<svg enable-background="new 0 0 480.116 480.116" viewBox="0 0 480.116 480.116" xmlns="http://www.w3.org/2000/svg"><path d="m420.618 297.492c-36.743-48.769-90.229-82.223-150.16-93.92-.048-.12-.12-.224-.168-.344-.553-1.332-1.194-2.626-1.92-3.872-.28-.512-.512-1.04-.8-1.536-.871-1.355-1.842-2.644-2.904-3.856-.256-.304-.48-.624-.752-.92-1.17-1.254-2.435-2.414-3.784-3.472-.24-.192-.456-.4-.696-.584-1.407-1.039-2.894-1.964-4.448-2.768-.192-.096-.352-.24-.536-.336v-167.824c.121-9.852-7.767-17.937-17.619-18.058-7.364-.091-14.027 4.353-16.773 11.186-24.025 57.999-25.495 122.885-4.12 181.912-.544.592-.968 1.264-1.464 1.896s-1.216 1.44-1.736 2.24c-1.061 1.606-1.977 3.303-2.736 5.072-.168.392-.264.8-.416 1.216-.569 1.467-1.034 2.972-1.392 4.504-.144.672-.216 1.368-.328 2.056-.136.856-.352 1.696-.416 2.576l-142.496 83.04c-8.498 5.008-11.399 15.912-6.512 24.48 3.156 5.56 9.055 8.996 15.448 9 .781-.003 1.561-.054 2.336-.152 52.073-6.793 100.621-30.02 138.584-66.304l-6.496 201.392h-40.256v16h144v-16h-40.256l-7.016-217.56 132.672 77.328c8.489 4.949 19.383 2.079 24.332-6.41.034-.058.067-.116.1-.174 3.599-6.258 3.097-14.063-1.272-19.808zm-205.04-58.48c-36.836 40.735-86.976 67.02-141.432 74.144-.739.095-1.461-.27-1.824-.92-.531-.945-.225-2.14.696-2.712l137.6-80.192c1.316 2.75 3.007 5.305 5.024 7.592zm19.28-221.72c.278-.7.951-1.164 1.704-1.176 1.048.026 1.878.895 1.856 1.944v164.456c-2.926.136-5.82.675-8.6 1.6-18.731-54.361-16.938-113.694 5.04-166.824zm-10.536 446.824 7-217.208c.368.104.744.144 1.12.232.632.152 1.272.288 1.92.4.864.16 1.736.28 2.616.36.376.04.752.056 1.136.08s.936.08 1.4.088c.16 0 .304.048.464.048h.144c1.505-.007 3.008-.122 4.496-.344.104 0 .2-.048.304-.064.248 0 .488-.112.736-.152.64-.112 1.256-.256 1.872-.4.416-.104.848-.152 1.264-.272l7 217.232zm26.808-236.464c-.051.027-.099.059-.144.096-1.303 1.178-2.776 2.154-4.368 2.896l-.136.056c-.76.326-1.543.594-2.344.8l-.208.072c-.256.064-.512.128-.8.176-.833.164-1.679.26-2.528.288-.549.028-1.099.028-1.648 0-.636-.031-1.269-.1-1.896-.208-.783-.154-1.553-.365-2.304-.632l-.336-.112c-.785-.293-1.547-.643-2.28-1.048-1.109-.61-2.152-1.334-3.112-2.16-.048-.04-.112-.064-.16-.104-3.118-2.849-5.049-6.768-5.408-10.976-.004-.075-.004-.149 0-.224 0-.136-.152-1.152-.168-1.288.006-1.244.151-2.484.432-3.696.064-.312.184-.592.272-.888.247-.907.568-1.793.96-2.648.12-.248.264-.488.392-.728.495-.923 1.074-1.798 1.728-2.616l.256-.32c.82-.967 1.742-1.842 2.752-2.608l.104-.104c2.82-2.132 6.257-3.289 9.792-3.296 1.393.018 2.777.214 4.12.584.072 0 .128.08.2.096 4.429 1.245 8.153 4.253 10.304 8.32.08.152.168.296.24.448.671 1.33 1.155 2.746 1.44 4.208.203 1.055.307 2.126.312 3.2-.004 4.721-1.986 9.224-5.464 12.416zm156.864 81.712c-.238.437-.647.755-1.128.88-.457.124-.945.058-1.352-.184l-136.736-79.688c1.657-3.157 2.781-6.565 3.328-10.088 54.202 11.747 102.381 42.573 135.76 86.864.476.648.526 1.516.128 2.216z"/><path d="m432.058 408.116c-30.913.035-55.965 25.087-56 56 0 4.418 3.582 8 8 8 30.913-.035 55.965-25.087 56-56 0-4.419-3.582-8-8-8zm-38.976 46.976c3.477-14.867 15.085-26.475 29.952-29.952-3.478 14.866-15.086 26.474-29.952 29.952z"/><path d="m424.058 112.116c-4.418 0-8 3.582-8 8 .035 30.913 25.087 55.965 56 56 4.418 0 8-3.582 8-8-.035-30.914-25.087-55.965-56-56zm9.024 17.024c14.867 3.477 26.475 15.085 29.952 29.952-14.867-3.478-26.475-15.086-29.952-29.952z"/><path d="m72.058 360.116c-30.913.035-55.965 25.087-56 56 0 4.418 3.582 8 8 8 30.913-.035 55.965-25.087 56-56 0-4.419-3.582-8-8-8zm-38.976 46.976c3.477-14.867 15.085-26.475 29.952-29.952-3.478 14.866-15.086 26.474-29.952 29.952z"/><path d="m456.058 24.116h-10.176c-6.532-18.68-26.97-28.529-45.651-21.997-10.299 3.601-18.396 11.698-21.997 21.997h-10.176c-13.255 0-24 10.745-24 24s10.745 24 24 24h88c13.255 0 24-10.745 24-24s-10.745-24-24-24zm0 32h-88c-4.418 0-8-3.582-8-8s3.582-8 8-8h16.408c3.977.001 7.351-2.92 7.92-6.856 1.49-10.865 11.504-18.465 22.369-16.975 8.826 1.21 15.765 8.15 16.975 16.975.569 3.936 3.943 6.857 7.92 6.856h16.408c4.418 0 8 3.582 8 8s-3.582 8-8 8z"/><path d="m160.058 80.116h-8.176c-2.097-22.644-21.083-39.973-43.824-40-13.332-.036-25.943 6.051-34.208 16.512-17.141-2.747-33.801 7.131-39.616 23.488h-10.176c-13.255 0-24 10.745-24 24s10.745 24 24 24h136c13.255 0 24-10.745 24-24s-10.745-24-24-24zm0 32h-136c-4.418 0-8-3.582-8-8s3.582-8 8-8h16.408c3.977.001 7.351-2.92 7.92-6.856 1.413-9.794 9.776-17.083 19.672-17.144 2.229.032 4.437.444 6.528 1.216 3.589 1.255 7.565-.19 9.512-3.456 4.974-8.519 14.095-13.758 23.96-13.76 15.464 0 28 12.536 28 28-.022.579-.081 1.156-.176 1.728l-.184 1.384c-.49 4.391 2.672 8.348 7.063 8.839.295.033.592.049.889.049h16.408c4.418 0 8 3.582 8 8s-3.582 8-8 8z"/><path d="m185.066 48.476c-7.439 2.326-14.723 5.121-21.808 8.368l6.688 14.544c6.447-2.969 13.08-5.518 19.856-7.632z"/><path d="m90.37 147.756-14.248-7.28c-13.271 25.878-20.15 54.558-20.064 83.64-.011 16.964 2.321 33.849 6.928 50.176l15.392-4.352c-4.202-14.912-6.329-30.331-6.32-45.824-.078-26.55 6.201-52.733 18.312-76.36z"/><path d="m110.458 331.02-12.344 10.192c25.712 31.065 60.874 52.873 100.128 62.104l3.632-15.584c-35.84-8.432-67.942-28.347-91.416-56.712z"/><path d="m375.602 323.388c-23.721 32.398-58.259 55.232-97.36 64.368l3.632 15.584c42.826-10.006 80.655-35.014 106.64-70.496z"/><path d="m281.515 44.822c-2.657-.617-5.327-1.175-8.009-1.674l-2.896 15.736c79.688 14.689 137.512 84.201 137.448 165.232.001 12.854-1.459 25.667-4.352 38.192l15.552 3.616c23.019-99.093-38.651-198.083-137.743-221.102z"/><path d="m126.954 148.572-13.296-8.912c-23.17 34.751-31.063 77.489-21.832 118.224l15.608-3.536c-2.247-9.92-3.379-20.06-3.376-30.232-.05-26.898 7.921-53.2 22.896-75.544z"/><path d="m145.986 322.34-11.064 11.552c17.745 16.985 39.33 29.432 62.92 36.28l4.432-15.376c-21.103-6.129-40.413-17.263-56.288-32.456z"/><path d="m345.842 309.604c-17.473 21.706-41.221 37.488-68 45.192l4.432 15.376c29.931-8.608 56.474-26.249 76-50.512z"/><path d="m273.834 75.884-3.552 15.6c62.06 13.837 106.092 69.049 105.776 132.632.01 5.053-.257 10.104-.8 15.128l15.912 1.744c.601-5.604.897-11.236.888-16.872.337-71.059-48.871-132.756-118.224-148.232z"/></svg>