<svg enable-background="new 0 0 480.005 480.005" viewBox="0 0 480.005 480.005" xmlns="http://www.w3.org/2000/svg"><path d="m472.003 152h-56c-4.418 0-8 3.582-8 8v24h-72v-8c0-4.418-3.582-8-8-8h-32v-40c0-4.418-3.582-8-8-8h-24v-48h23.2l47.848 9.6c18.539 3.706 36.572-8.319 40.278-26.858s-8.319-36.572-26.858-40.278c-4.429-.885-8.99-.885-13.419 0l-47.849 9.536h-23.2v-16c0-4.418-3.582-8-8-8h-32c-4.418 0-8 3.582-8 8v16h-23.2l-47.856-9.6c-18.539-3.728-36.59 8.279-40.318 26.818s8.279 36.59 26.818 40.318c2.217.446 4.472.671 6.733.672 2.273-.001 4.539-.226 6.768-.672l47.855-9.536h23.2v48h-24c-4.418 0-8 3.582-8 8v40h-32c-4.418 0-8 3.582-8 8v16h-40c-57.41.066-103.934 46.59-104 104v48c0 4.418 3.582 8 8 8h80c4.418 0 8-3.582 8-8v-48c0-4.418 3.582-8 8-8h40v16c0 4.418 3.582 8 8 8h176c4.418 0 8-3.582 8-8v-8h72v24c0 4.418 3.582 8 8 8h56c4.418 0 8-3.582 8-8v-160c0-4.418-3.582-8-8-8zm-208-112h24c.538.005 1.074-.049 1.6-.16l48.624-9.72c9.875-1.969 19.476 4.44 21.445 14.315s-4.44 19.476-14.315 21.445c-2.354.469-4.777.469-7.131 0l-48.624-9.72c-.526-.111-1.062-.165-1.6-.16h-24v-16zm-120 232h-40c-13.255 0-24 10.745-24 24v40h-64v-40c.057-48.577 39.423-87.943 88-88h40zm88-256h16v8h-16zm0 24h16v16h-16zm0 32h16v48h-16zm-40-16c-.538-.005-1.074.049-1.6.16l-48.624 9.72c-9.875 1.969-19.476-4.44-21.445-14.315s4.44-19.476 14.315-21.445c2.354-.469 4.777-.469 7.131 0l48.624 9.72c.526.111 1.062.165 1.6.16h24v16zm8 80h80v32h-80zm120 160h-160v-112h160zm88-16h-72v-80h72zm56 32h-40v-144h40z"/><path d="m83.635 425.272-28.584-53.064c-2.458-3.893-7.607-5.055-11.499-2.597-1.048.662-1.935 1.549-2.597 2.597l-28.584 53.064c-6.068 11.143-5.763 24.67.8 35.528 7.381 12.128 20.637 19.435 34.832 19.2 14.195.235 27.451-7.072 34.832-19.2 6.563-10.859 6.868-24.385.8-35.528zm-14.528 27.32c-4.513 7.277-12.544 11.618-21.104 11.408-8.56.21-16.591-4.131-21.104-11.408-3.693-6.019-3.858-13.561-.432-19.736l21.536-40 21.536 40c3.426 6.175 3.261 13.717-.432 19.736z"/></svg>