<svg enable-background="new 0 0 480.115 480.115" viewBox="0 0 480.115 480.115" xmlns="http://www.w3.org/2000/svg"><path d="m324.779 245.725-77.664-144.736c-2.442-3.893-7.577-5.068-11.469-2.627-1.062.666-1.96 1.564-2.627 2.627l-77.664 144.736c-15.756 29.037-14.931 64.252 2.168 92.52 27.586 45.588 86.905 60.181 132.493 32.595 13.339-8.072 24.523-19.256 32.595-32.595 17.098-28.267 17.924-63.482 2.168-92.52zm-15.888 84.296c-14.437 24.217-40.631 38.966-68.824 38.752-28.185.205-54.367-14.542-68.8-38.752-14.175-23.448-14.857-52.652-1.792-76.736l70.592-131.592 70.616 131.592c13.065 24.084 12.383 53.289-1.792 76.736z"/><path d="m476.186 197.851c-3.707-20.339-10.029-40.112-18.807-58.829-1.405-2.949-4.45-4.759-7.712-4.584-3.268.193-6.088 2.358-7.12 5.464l-8.76 26.4-22.888-5.44c-4.297-1.029-8.614 1.619-9.644 5.916-.398 1.661-.254 3.407.412 4.98 9.302 21.817 14.063 45.299 13.992 69.016-.636 82.269-57.889 153.247-138.16 171.28-1.81.402-3.427 1.417-4.576 2.872l-22.824 29.048c-2.733 3.471-2.135 8.501 1.337 11.234.002.002.005.004.007.006l25.44 20c1.41 1.109 3.151 1.712 4.944 1.712.484-.002.966-.053 1.44-.152 130.295-23.75 216.668-148.628 192.919-278.923zm-160.531 253.704c-10.355 3.708-20.969 6.647-31.756 8.795v.008l-16.28-12.8 16.136-20.528c86.229-20.746 147.234-97.569 147.904-186.256.065-20.689-3.246-41.249-9.8-60.872l15.36 3.648c4.035.958 8.134-1.328 9.44-5.264l4.304-12.976c41.68 116.408-18.899 244.564-135.308 286.245z"/><path d="m422.139 84.405c-45.475-52.949-111.748-83.479-181.544-83.632h-.528c-76.916.167-149.124 37.068-194.32 99.304-2.594 3.577-1.796 8.579 1.781 11.173 1.367.991 3.011 1.524 4.699 1.523h24.864l3.056 22.192c.334 2.456 1.788 4.619 3.936 5.856l1.104.632c3.582 2.056 8.14 1.047 10.52-2.328 32.982-46.828 86.659-74.714 143.936-74.776h.424c51.27.125 99.932 22.622 133.24 61.6 1.52 1.777 3.742 2.8 6.08 2.8h36.68c4.418 0 8-3.582 8-8v-31.128c-.003-1.912-.686-3.761-1.928-5.216zm-14.072 28.368h-25.072c-36.288-40.858-88.282-64.294-142.928-64.424h-.432c-56.16.068-109.484 24.682-145.968 67.376l-1.656-12c-.526-3.983-3.926-6.958-7.944-6.952h-15.448c42.59-50.6 105.31-79.866 171.448-80h.488c64.118.14 125.102 27.751 167.512 75.84z"/><path d="m224.403 415.661c-96.756-8.325-168.444-93.509-160.12-190.266 1.117-12.984 3.674-25.803 7.624-38.222.566-1.765.498-3.672-.192-5.392l-12.8-32c-1.637-4.104-6.291-6.103-10.395-4.466-.002.001-.003.001-.005.002l-30.68 12.296c-2.153.863-3.829 2.612-4.6 4.8-43.288 125.182 23.101 261.755 148.283 305.042 17.207 5.95 35.035 9.922 53.141 11.838.266.03.533.046.8.048 4.418.001 8.001-3.58 8.001-7.999 0-1.571-.462-3.107-1.329-4.417l-14.656-22.152 20.656-13.664c2.238-1.482 3.584-3.988 3.584-6.672v-.8c.002-4.153-3.174-7.619-7.312-7.976zm-34.69 31.279c0 .001.001.001.001.002v-.04l9.264 14.008c-121.535-22.6-201.739-139.444-179.14-260.98 1.815-9.762 4.278-19.393 7.372-28.829l19.816-7.928 8.8 21.944c-5.379 17.791-8.136 36.27-8.184 54.856.3 91.759 65.085 170.655 155.032 188.8l-10.704 7.08c-3.684 2.438-4.695 7.402-2.257 11.087z"/></svg>