<svg enable-background="new 0 0 480.007 480.007" viewBox="0 0 480.007 480.007" xmlns="http://www.w3.org/2000/svg"><path d="m480.002 224.007c.009-21.096-9.242-41.132-25.304-54.808 6.122-9.986 9.344-21.479 9.304-33.192-.042-32.452-24.333-59.753-56.56-63.568.374-2.795.562-5.612.56-8.432.083-35.267-28.439-63.923-63.706-64.006-20.752-.049-40.234 9.99-52.238 26.918-20.372-28.75-60.193-35.541-88.943-15.169-5.876 4.164-11.005 9.293-15.169 15.169-20.485-28.74-60.389-35.432-89.129-14.948-19.275 13.738-29.377 37.005-26.255 60.468-32.227 3.815-56.518 31.116-56.56 63.568-.04 11.713 3.182 23.206 9.304 33.192-30.265 25.792-33.891 71.236-8.099 101.501 2.48 2.911 5.189 5.619 8.099 8.099-6.125 9.991-9.347 21.489-9.304 33.208.04 35.33 28.67 63.96 64 64h48v88h-24c-4.418 0-8 3.582-8 8s3.582 8 8 8h272c4.418 0 8-3.582 8-8s-3.582-8-8-8h-24v-88h48c35.33-.04 63.96-28.67 64-64 .04-11.713-3.182-23.206-9.304-33.192 16.062-13.676 25.312-33.713 25.304-54.808zm-400 135.928c-26.471-.026-47.934-21.457-48-47.928-.031-10.88 3.677-21.44 10.504-29.912 2.757-3.452 2.194-8.486-1.258-11.244-.167-.134-.34-.261-.518-.38-25.661-17.264-32.469-52.061-15.206-77.723 4.039-6.003 9.202-11.167 15.206-15.205 3.662-2.471 4.628-7.444 2.156-11.106-.12-.178-.247-.35-.38-.518-6.827-8.472-10.535-19.032-10.504-29.912.026-26.499 21.501-47.974 48-48l2.072.112c2.587.129 5.07-1.03 6.632-3.096 1.59-2.04 2.088-4.726 1.336-7.2-7.494-25.428 7.045-52.117 32.474-59.611 22.605-6.662 46.702 4.072 56.87 25.331 0 .08 0 .16-.056.24-.997 2.999-1.768 6.069-2.304 9.184-.096.536-.168 1.08-.248 1.6-.957 5.906-1.03 11.921-.216 17.848-32.236 3.817-56.53 31.13-56.56 63.592-.04 11.713 3.182 23.206 9.304 33.192-.144.128-.264.264-.408.392l-37.24-37.24c-3.178-3.069-8.243-2.981-11.312.197-2.994 3.1-2.994 8.015 0 11.115l37.696 37.696c-22.423 30.402-17.503 72.97 11.264 97.456-3.087 5.035-5.447 10.48-7.008 16.176l-28.64-28.64c-3.178-3.07-8.242-2.982-11.312.196-2.994 3.1-2.994 8.015 0 11.116l37.832 37.832c.064 1.112.08 2.232.2 3.32.08.752.232 1.472.336 2.208.208 1.48.416 2.952.728 4.4.184.864.44 1.696.656 2.544.328 1.28.656 2.568 1.064 3.816.288.888.632 1.736.96 2.608.44 1.168.88 2.344 1.392 3.48.384.864.8 1.704 1.224 2.544.544 1.096 1.104 2.176 1.704 3.2.472.8.976 1.6 1.488 2.4.64 1.016 1.296 2.008 1.992 2.976.552.8 1.128 1.544 1.72 2.296.728.944 1.488 1.848 2.272 2.744.632.72 1.272 1.432 1.928 2.12.8.864 1.688 1.688 2.568 2.504.44.416.848.88 1.304 1.28zm152 104.072h-88v-88h88zm8-360c-4.418 0-8 3.582-8 8v56.688l-36.344-36.344c-3.178-3.069-8.243-2.981-11.312.197-2.994 3.1-2.994 8.015 0 11.115l47.656 47.656v109.376l-34.344-34.344c-3.178-3.07-8.242-2.982-11.312.196-2.994 3.1-2.994 8.015 0 11.116l45.656 45.656v36.688h-48c-26.499-.026-47.974-21.501-48-48-.031-10.88 3.677-21.44 10.504-29.912 2.757-3.452 2.194-8.486-1.258-11.244-.167-.134-.34-.261-.518-.38-25.661-17.264-32.469-52.061-15.206-77.723 4.039-6.003 9.202-11.167 15.206-15.205 3.662-2.471 4.628-7.444 2.156-11.106-.12-.178-.247-.35-.38-.518-6.827-8.472-10.535-19.032-10.504-29.912.026-26.499 21.501-47.974 48-48l2.072.112c2.59.144 5.079-1.018 6.632-3.096 1.59-2.04 2.088-4.726 1.336-7.2-1.348-4.482-2.036-9.136-2.04-13.816.004-2.953.286-5.899.84-8.8 0-.112 0-.232.048-.344.58-2.888 1.418-5.718 2.504-8.456 7.223-18.327 24.909-30.38 44.608-30.4 19.699.02 37.385 12.073 44.608 30.4 1.089 2.756 1.927 5.605 2.504 8.512 0 .112 0 .232.048.344.551 2.882.832 5.81.84 8.744-.004 4.68-.692 9.334-2.04 13.816-.752 2.474-.254 5.16 1.336 7.2 1.559 2.07 4.044 3.23 6.632 3.096l2.072-.112c26.499.026 47.974 21.501 48 48 .031 10.88-3.677 21.44-10.504 29.912-2.757 3.452-2.194 8.486 1.258 11.244.167.134.34.261.518.38 25.661 17.264 32.469 52.061 15.205 77.723-4.039 6.003-9.202 11.167-15.205 15.205-3.662 2.471-4.628 7.444-2.156 11.106.12.178.247.35.38.518 6.827 8.472 10.535 19.032 10.504 29.912-.026 26.499-21.501 47.974-48 48h-48v-109.24c.597-.295 1.154-.666 1.656-1.104l52-52c3.07-3.178 2.982-8.242-.196-11.312-3.1-2.994-8.015-2.994-11.116 0l-42.344 42.344v-116.688c0-4.419-3.582-8-8-8zm96 360h-88v-88h88zm101.115-182.43c.12.178.247.35.38.518 6.827 8.472 10.535 19.032 10.504 29.912-.026 26.499-21.501 47.974-48 48h-61.711c.456-.4.864-.864 1.304-1.28.88-.8 1.736-1.64 2.568-2.504.656-.688 1.296-1.4 1.928-2.12.8-.896 1.544-1.8 2.272-2.744.592-.752 1.168-1.512 1.72-2.296.696-.968 1.352-1.96 1.992-2.976.512-.8 1.016-1.6 1.488-2.4.6-1.056 1.16-2.136 1.704-3.2.416-.84.8-1.68 1.224-2.544.512-1.136.952-2.312 1.392-3.48.328-.872.672-1.72.96-2.608.408-1.248.736-2.536 1.064-3.816.216-.848.472-1.68.656-2.544.312-1.448.52-2.92.728-4.4.104-.736.256-1.456.336-2.208.249-2.285.375-4.582.376-6.88.04-11.713-3.182-23.206-9.304-33.192 15.099-12.897 24.189-31.468 25.112-51.304l29.848-29.848c3.07-3.178 2.982-8.242-.196-11.312-3.1-2.994-8.015-2.994-11.116 0l-20.488 20.488c-3.582-14.653-11.685-27.808-23.16-37.6 6.129-9.997 9.351-21.505 9.304-33.232-.042-32.452-24.333-59.753-56.56-63.568.806-5.928.725-11.944-.24-17.848-.08-.544-.152-1.088-.248-1.6-.536-3.115-1.307-6.185-2.304-9.184 0-.08 0-.16-.056-.24 11.439-23.915 40.098-34.029 64.013-22.59 21.259 10.168 31.992 34.266 25.331 56.87-.752 2.474-.254 5.16 1.336 7.2 1.562 2.066 4.045 3.225 6.632 3.096l2.096-.136c26.499.026 47.974 21.501 48 48 .031 10.88-3.677 21.44-10.504 29.912-2.757 3.452-2.194 8.486 1.258 11.244.167.134.34.261.518.38 25.661 17.264 32.469 52.061 15.205 77.723-4.039 6.003-9.202 11.167-15.205 15.205-3.663 2.471-4.628 7.444-2.157 11.106z"/></svg>