<svg enable-background="new 0 0 480.049 480.049" viewBox="0 0 480.049 480.049" xmlns="http://www.w3.org/2000/svg"><path d="m413.225 113.937-53.2-45.6v-60.328c0-4.418-3.582-8-8-8-2.309 0-4.505.997-6.024 2.736l-53.608 61.264h-104.736l-53.6-61.264c-2.902-3.331-7.956-3.679-11.287-.777-1.746 1.521-2.748 3.725-2.745 6.041v60.328l-53.2 45.6c-3.353 2.877-3.74 7.927-.863 11.281 1.518 1.769 3.732 2.789 6.063 2.791h48v48c.006.852.149 1.697.424 2.504v.12l63.136 181.52-34.76 105.304-.488.4.256.304-4.568 13.848h16.352l1.6-4.672 78.048-64.928 78.056 64.968 1.6 4.672h16.344l-4.576-13.848.256-.304-.488-.4-34.776-105.344 63.136-181.52v-.12c.283-.805.434-1.651.448-2.504v-48h48c4.418-.005 7.996-3.59 7.991-8.009-.003-2.331-1.022-4.545-2.791-6.063zm-293.2-1.928h-26.4l26.4-22.608zm128-27.872 65.032 27.872h-65.032zm-112-54.84 30.4 34.712h-30.4zm0 50.712h65.032l-65.032 27.872zm96 4.128v27.872h-48-17.032zm-96 43.872h28.688l-28.688 28.688zm13.184 84.552 30.816 35.448h-18.488zm29.024 83.448-11.128-32h26.84l27.832 32zm92.24 56h-60.896l30.448-35.008zm-13.584-40h39.36l-11.248 32.328zm-61.84 32.328-11.248-32.328h39.36zm-23.192 101.952 24.584-72.192 31.08 25.864zm42.28-78.28h51.776l-25.888 21.544zm94.056 78.28-55.664-46.328 31.08-25.864zm-6.376-150.28h-43.544l27.832-32h26.84zm16.696-48h-18.488l30.824-35.448zm-78.488 44.608-101.064-116.232 48.376-48.376h105.376l48.376 48.376zm104-135.92-28.688-28.688h28.688zm0-48.816-65.032-27.872h65.032zm0-43.872h-30.4l30.4-34.712zm16 48v-22.608l26.4 22.608z"/></svg>