<svg enable-background="new 0 0 480.633 480.633" viewBox="0 0 480.633 480.633" xmlns="http://www.w3.org/2000/svg"><path d="m264.934.001c-106.039-.349-192.283 85.329-192.632 191.368-3.448 8.8-30.4 66.336-47.2 101.84-1.891 3.993-.187 8.763 3.806 10.654 1.061.503 2.22.765 3.394.77h40.152l-.112 87.952c-.026 22.091 17.861 40.021 39.952 40.048h.048 63.96v40c0 4.418 3.582 8 8 8h216c4.418 0 8-3.582 8-8v-72.48c.056-30.148 6.605-59.93 19.2-87.32l8-17.264c13.649-29.661 20.692-61.933 20.64-94.584.072-2.752.16-5.552.16-8.352.349-106.039-85.329-192.283-191.368-192.632zm175.168 200.632c.072 30.445-6.479 60.54-19.2 88.2l-8 17.272c-13.541 29.506-20.567 61.583-20.6 94.048v64.48h-200v-40c0-4.418-3.582-8-8-8h-71.96c-13.255 0-24-10.745-24-24l.12-96c0-4.418-3.582-8-8-8h-35.52c43.36-91.672 43.36-93.784 43.36-96 0-97.202 78.798-176 176-176s176 78.798 176 176c0 2.56-.088 5.112-.2 8z"/><path d="m408.302 152.633h-48c-10.393-.006-20.727 1.553-30.656 4.624 1.278-33.369-11.354-65.772-34.88-89.472l-24.8-24.8c-3.124-3.123-8.188-3.123-11.312 0l-24.8 24.8c-23.526 23.7-36.158 56.102-34.88 89.472-9.934-3.073-20.274-4.632-30.672-4.624h-48c-4.418 0-8 3.582-8 8v48c.066 57.41 46.59 103.934 104 104h48 48c57.41-.066 103.934-46.59 104-104v-48c0-4.418-3.582-8-8-8zm-163.152-73.536 11.152-11.152v59.6l-29.056-24.216c4.764-8.901 10.795-17.064 17.904-24.232zm-24.72 39.392 35.872 29.896v42.864l-41.312-35.416c-.5-12.677 1.345-25.337 5.44-37.344zm-20.88 55.984c2.184.8 4.312 1.744 6.4 2.744 2.988 1.423 5.894 3.012 8.704 4.76.488.304.992.576 1.472.888 1.28.8 2.512 1.728 3.744 2.616.8.56 1.52 1.12 2.272 1.704 1.16.904 2.312 1.816 3.424 2.776.712.608 1.384 1.256 2.08 1.888 1.304 1.2 2.576 2.4 3.808 3.688l-11.808 53.136-26.856-26.864zm-31.248-5.84c5.268.024 10.524.519 15.704 1.48l-5.36 37.552-39.032-39.032zm-40 40v-28.688l54.576 54.576-48.72 5.408c-3.854-9.985-5.839-20.593-5.856-31.296zm88 88c-30.332-.032-58.505-15.699-74.536-41.448l55.6-6.176 47.624 47.624zm40.008-11.312-23.2-23.24 11.032-49.832c1.168 1.992 2.264 4 3.272 6.104.36.736.736 1.464 1.072 2.216.608 1.352 1.176 2.728 1.72 4.112.384.984.744 1.976 1.088 2.976.456 1.28.92 2.56 1.312 3.864.64 2.152 1.208 4.328 1.68 6.536.208.952.36 1.92.536 2.872.304 1.72.584 3.448.8 5.192.104.872.208 1.744.288 2.616.232 2.608.4 5.232.4 7.896zm103.992-116.688h28.688l-39.032 39.032-5.36-37.552c5.18-.961 10.436-1.456 15.704-1.48zm-37.656 8.584c2.096-1 4.224-1.912 6.4-2.744l6.76 47.336-26.864 26.864-11.84-53.136c1.232-1.272 2.504-2.488 3.808-3.688.736-.632 1.408-1.28 2.12-1.888 1.112-.96 2.264-1.872 3.424-2.776.752-.584 1.512-1.144 2.272-1.704 1.232-.888 2.464-1.784 3.744-2.616.48-.312.984-.584 1.472-.888 2.81-1.748 5.716-3.337 8.704-4.76zm-9.464-13.2c-.168.088-.328.192-.504.288-2.032 1.032-3.984 2.168-5.92 3.344-.848.504-1.704 1-2.536 1.536-1.768 1.136-3.48 2.352-5.176 3.592-.896.656-1.784 1.304-2.656 1.992-1.6 1.256-3.2 2.568-4.704 3.92-.84.736-1.664 1.48-2.472 2.248-1.509 1.413-2.976 2.872-4.4 4.376-.704.752-1.392 1.512-2.072 2.272-1.44 1.6-2.848 3.272-4.192 4.984-.528.672-1.024 1.36-1.536 2.048-1.392 1.872-2.752 3.752-4 5.72-.24.36-.456.736-.688 1.112v-20.704l41.456-29.6c.066 4.299-.134 8.598-.6 12.872zm-40.88-96.072 11.152 11.152c14.672 14.637 24.574 33.369 28.408 53.736l-39.56 28.256zm0 188.688c0-2.664.168-5.288.4-7.896.08-.872.184-1.744.288-2.616.208-1.744.488-3.472.8-5.192.176-.952.328-1.92.536-2.872.472-2.208 1.04-4.384 1.68-6.536.392-1.304.856-2.584 1.312-3.864.344-1 .704-1.992 1.088-2.976.544-1.384 1.112-2.76 1.72-4.112.336-.752.712-1.48 1.072-2.216 1.008-2.08 2.104-4.112 3.272-6.104l11.032 49.832-23.2 23.24zm40 40h-28.688l47.624-47.624 55.6 6.176c-16.031 25.749-44.204 41.416-74.536 41.448zm88-88c-.017 10.703-2.002 21.311-5.856 31.296l-48.72-5.408 54.576-54.576z"/></svg>