<svg enable-background="new 0 0 480 480" viewBox="0 0 480 480" xmlns="http://www.w3.org/2000/svg"><path d="m375.98 40c-35.346 0-64 28.654-64 64 .04 35.33 28.67 63.96 64 64 35.346 0 64-28.654 64-64s-28.654-64-64-64zm0 112c-26.51 0-48-21.49-48-48 .026-26.499 21.501-47.974 48-48 26.51 0 48 21.49 48 48s-21.49 48-48 48z"/><path d="m367.98 0h16v24h-16z"/><path d="m367.98 184h16v24h-16z"/><path d="m271.98 96h24v16h-24z"/><path d="m455.98 96h24v16h-24z"/><path d="m302.921 26.946h16v24h-16z" transform="matrix(.7071 -.7071 .7071 .7071 63.5276 231.2613)"/><path d="m433.028 157.037h16v24h-16z" transform="matrix(.7071 -.7071 .7071 .7071 9.6468 361.3641)"/><path d="m298.924 161.031h24v16h-24z" transform="matrix(.7071 -.7071 .7071 .7071 -28.4553 269.3647)"/><path d="m429.036 30.943h24v16h-24z" transform="matrix(.7071 -.7071 .7071 .7071 101.64 323.2658)"/><path d="m431.004 468.168-192-352c-1.402-2.57-4.096-4.169-7.024-4.168h-224c-.601.013-1.199.09-1.784.232-.064 0-.128 0-.192 0-.78.209-1.522.538-2.2.976-.2.132-.393.277-.576.432-.66.501-1.243 1.096-1.728 1.768-.112.168-.264.304-.368.48-.17.324-.315.661-.432 1.008-.105.208-.198.422-.28.64-.255.775-.39 1.584-.4 2.4v56.064c-.001 1.329.329 2.638.96 3.808l159.96 296c1.399 2.584 4.102 4.194 7.04 4.192h256c4.418.001 8.001-3.58 8.001-7.999.001-1.339-.335-2.657-.977-3.833zm-68.504-92.168h-53.768l-39.272-72h53.768zm-192-88h-61.768l-39.272-72h61.768zm-21.04-72h53.768l39.272 72h-53.768zm29.768 88 39.272 72h-61.768l-39.272-72zm18.232 0h53.768l39.272 72h-53.768zm117.04-16h-53.768l-39.272-72h53.768zm-87.272-160 39.272 72h-53.768l-39.272-72zm-72 0 39.272 72h-53.768l-39.272-72zm-72 0 39.272 72h-61.768l-39.272-72zm89.552 336-156.8-290.024v-22.6l170.52 312.624zm31.952 0-39.272-72h61.768l39.272 72zm80 0-39.272-72h53.768l39.272 72zm72 0-39.272-72h53.768l39.272 72z"/></svg>