<svg enable-background="new 0 0 480.009 480.009" fill="#0bcc95" viewBox="0 0 480.009 480.009" xmlns="http://www.w3.org/2000/svg"><path d="m479.913 311.508c-.046-.706-.186-1.403-.416-2.072-.088-.256-.152-.496-.264-.744-.389-.87-.931-1.664-1.6-2.344l-128-128c-1.492-1.493-3.514-2.335-5.624-2.344h-172.56c2.971-6.251 4.528-13.079 4.56-20-.031-23.51-17.059-43.55-40.256-47.376.168-1.536.253-3.079.256-4.624 0-26.51-21.49-48-48-48s-48 21.49-48 48c.003 1.545.088 3.088.256 4.624-26.05 4.143-43.808 28.62-39.665 54.669 1.062 6.678 3.53 13.054 7.241 18.707-10.87 16.499-10.389 38.004 1.208 54-13.274 18.326-11.795 43.468 3.536 60.112l-10.232 10.232c-1.5 1.5-2.344 3.534-2.344 5.656v160c0 4.418 3.582 8 8 8h464c4.418 0 8-3.582 8-8v-160c0-.168-.088-.32-.096-.496zm-27.24-7.504h-49.2l-30-32h47.2zm-180.704-72h42.08l22.496 24h-42.072zm.576 24h-53.224l-24-24h54.728zm79 16 30 32h-42.072l-30-32zm53.152-16h-46.224l-22.464-24h44.728zm-64-64 24 24h-43.728l-22.496-24zm-64.152 0 22.504 24h-42.08l-22.496-24zm-64 0 22.504 24h-55.728l-24-24zm-188.648-15.2c-5.059-5.751-7.862-13.141-7.888-20.8 0-17.673 14.327-32 32-32h.08c.52.072 1.048.136 1.6.16 4.412.232 8.177-3.157 8.409-7.569.05-.958-.072-1.917-.361-2.831-1.084-3.143-1.667-6.436-1.728-9.76 0-17.673 14.327-32 32-32s32 14.327 32 32c-.056 3.32-.634 6.611-1.712 9.752-1.332 4.213 1.004 8.707 5.217 10.039.914.289 1.873.411 2.831.361.557-.015 1.113-.066 1.664-.152 17.673 0 32 14.327 32 32-.014 7.299-2.558 14.367-7.2 20h-16.8c-.933.016-1.856.194-2.728.528-.096.04-.208 0-.312.08s-.28.2-.44.28c-.64.314-1.234.712-1.768 1.184-.12.104-.288.152-.408.272l-34.344 34.344v-84.688c0-4.418-3.582-8-8-8s-8 3.582-8 8v44.688l-18.344-18.344c-3.178-3.069-8.243-2.981-11.312.197-2.994 3.1-2.994 8.015 0 11.115l29.656 29.656v33.368l-8 8-10.344-10.336c-3.178-3.069-8.243-2.981-11.312.197-2.994 3.1-2.994 8.015 0 11.115l10.344 10.344-36.84 36.8c-5.059-5.748-7.849-13.143-7.848-20.8-.009-8.386 3.295-16.437 9.192-22.4 3.049-3.111 3.049-8.089 0-11.2-11.746-11.809-12.316-30.704-1.304-43.2 2.56-2.993 2.56-7.406 0-10.4zm144.112 287.2h-64v-96h64zm88 0h-72v-104c0-4.418-3.582-8-8-8h-80c-4.418 0-8 3.582-8 8v104h-72v-148.688l13.76-13.76 63.888-63.888 42.352-42.352 120 120zm-20.688-192h52.224l30 32h-50.224zm228.688 192h-192v-144h192z"/><path d="m392.009 32.004c-30.928 0-56 25.072-56 56s25.072 56 56 56c30.911-.04 55.96-25.089 56-56 0-30.928-25.072-56-56-56zm0 96c-22.091 0-40-17.909-40-40s17.909-40 40-40 40 17.909 40 40c-.027 22.081-17.92 39.974-40 40z"/><path d="m384.009.004h16v16h-16z"/><path d="m384.009 160.004h16v16h-16z"/><path d="m304.009 80.004h16v16h-16z"/><path d="m464.009 80.004h16v16h-16z"/><path d="m327.441 23.435h16v16h-16z" transform="matrix(.7071 -.7071 .7071 .7071 76.0201 246.3993)"/><path d="m440.565 136.571h16v16h-16z" transform="matrix(.7071 -.7071 .7071 .7071 29.1552 359.5285)"/><path d="m327.435 136.565h16v16h-16z" transform="matrix(.7071 -.7071 .7071 .7071 -3.9761 279.5307)"/><path d="m440.571 23.441h16v16h-16z" transform="matrix(.7071 -.7071 .7071 .7071 109.1514 326.3967)"/></svg>