<svg enable-background="new 0 0 480 480" viewBox="0 0 480 480" xmlns="http://www.w3.org/2000/svg"><path d="m472 200h-464c-4.418 0-8 3.582-8 8v264c0 4.418 3.582 8 8 8h464c4.418 0 8-3.582 8-8v-264c0-4.418-3.582-8-8-8zm-360 264h-96v-72h96zm0-88h-96v-72h96zm0-88h-96v-72h96zm120 176h-104v-72h104zm0-88h-104v-72h104zm0-88h-104v-72h104zm120 176h-104v-72h104zm0-88h-104v-72h104zm0-88h-104v-72h104zm112 176h-96v-72h96zm0-88h-96v-72h96zm0-88h-96v-72h96z"/><path d="m240 32c-30.928 0-56 25.072-56 56s25.072 56 56 56c30.913-.035 55.965-25.087 56-56 0-30.928-25.072-56-56-56zm0 96c-22.091 0-40-17.909-40-40s17.909-40 40-40 40 17.909 40 40c-.026 22.08-17.92 39.974-40 40z"/><path d="m232 160h16v16h-16z"/><path d="m232 0h16v16h-16z"/><path d="m312 80h32v16h-32z"/><path d="m136 80h32v16h-32z"/><path d="m170.55 11.633h16v29.824h-16z" transform="matrix(.707 -.7072 .7072 .707 33.5349 134.041)"/><path d="m163.632 141.432h29.824v16h-29.824z" transform="matrix(.7071 -.7071 .7071 .7071 -53.3699 170.0166)"/><path d="m286.544 18.543h29.824v16h-29.824z" transform="matrix(.7071 -.7071 .7071 .7071 69.5256 220.9355)"/><path d="m293.463 134.538h16v29.824h-16z" transform="matrix(.707 -.7072 .7072 .707 -17.3716 256.9669)"/></svg>