<svg enable-background="new 0 0 480 480" viewBox="0 0 480 480" xmlns="http://www.w3.org/2000/svg"><path d="m383.12 172.196c-1.373-2.665-4.122-4.339-7.12-4.336h-16v-64c0-4.418-3.582-8-8-8h-40c-2.43-.001-4.729 1.103-6.248 3l-32 40c-2.547 3.184-2.292 7.774.592 10.656l21.656 21.656v60.688c0 4.418 3.582 8 8 8h32c2.582-.002 5.004-1.251 6.504-3.352l40-56c1.746-2.437 1.984-5.645.616-8.312zm-51.24 51.664h-19.88v-56c0-2.122-.844-4.156-2.344-5.656l-18.936-18.936 25.12-31.408h28.16v64c0 4.418 3.582 8 8 8h8.456z"/><path d="m452 179.86c-15.464 0-28 12.536-28 28v88.8c-1.306-1.527-2.776-2.906-4.384-4.112-11.719-8.743-28.204-6.937-37.752 4.136l-34.912 40.776c-31.4 16.254-51.07 48.707-50.952 84.064v50.336c0 4.418 3.582 8 8 8h88c2.758 0 5.322-1.421 6.784-3.76l80-128c.795-1.271 1.216-2.741 1.216-4.24v-136c0-15.464-12.536-28-28-28zm12 161.704-76.44 122.296h-75.56v-42.336c-.085-29.872 16.813-57.196 43.576-70.464.955-.48 1.805-1.144 2.504-1.952l35.936-41.944c4.047-4.69 11.03-5.458 16-1.76 5.202 3.896 6.26 11.272 2.364 16.474-.213.284-.438.559-.676.822l-41.728 47.952c-2.905 3.329-2.561 8.383.768 11.288s8.383 2.561 11.288-.768l56-64c1.282-1.471 1.982-3.361 1.968-5.312v-104c0-6.627 5.373-12 12-12s12 5.373 12 12z"/><path d="m330.968 26.828-.624-.624-.152.152c-78.233-49.728-181.966-26.62-231.694 51.614-49.728 78.233-26.619 181.966 51.614 231.694s181.966 26.619 231.694-51.614c17.136-26.958 26.223-58.246 26.194-90.19-.049-57.045-29.061-110.162-77.032-141.032zm-66.968-8.88c19.315 3.074 37.847 9.881 54.56 20.04l-31.312 31.312-23.248-17.44zm-104 20.912v57c0 4.418 3.582 8 8 8h32c4.418 0 8-3.582 8-8v-4.688l16 16v28.688h-48c-4.418 0-8 3.582-8 8v31.352l-24-19.2v-36.152c0-4.418-3.582-8-8-8h-37.176c12.086-30.234 33.522-55.813 61.176-73zm42.528 185.408-18.528-6.176v-18.232h48v68.184l-24-9.6v-26.584c.001-3.445-2.204-6.504-5.472-7.592zm158.671 35.561c-28.762 37.895-73.625 60.116-121.199 60.031-83.66.287-151.712-67.299-151.999-150.959-.048-13.869 1.81-27.678 5.519-41.041h34.48v32c-.001 2.43 1.103 4.729 3 6.248l37 29.6v28.152c-.001 3.445 2.204 6.503 5.472 7.592l18.528 6.176v26.232c-.001 3.273 1.992 6.218 5.032 7.432l40 16c2.464.987 5.257.687 7.456-.8 2.199-1.49 3.515-3.975 3.512-6.632v-88c0-4.418-3.582-8-8-8h-56v-32h48c4.418 0 8-3.582 8-8v-40c0-2.122-.844-4.156-2.344-5.656l-32-32c-3.125-3.124-8.19-3.123-11.314.002-1.499 1.5-2.342 3.534-2.342 5.654v16h-16v-57.68c20.026-9.406 41.875-14.295 64-14.32 2.704 0 5.336.264 8 .408v39.592c0 2.518 1.186 4.889 3.2 6.4l32 24c3.185 2.388 7.641 2.071 10.456-.744l38.4-38.4c66.787 50.691 79.835 145.926 29.143 212.713z"/><path d="m133.048 337.46-34.92-40.744c-9.546-11.072-26.027-12.878-37.744-4.136-1.606 1.196-3.076 2.564-4.384 4.08v-88.8c0-15.464-12.536-28-28-28s-28 12.536-28 28v136c0 1.499.421 2.969 1.216 4.24l80 128c1.462 2.339 4.026 3.76 6.784 3.76h88c4.418 0 8-3.582 8-8v-50.336c.118-35.358-19.552-67.81-50.952-84.064zm34.952 126.4h-75.56l-76.44-122.296v-133.704c0-6.627 5.373-12 12-12s12 5.373 12 12v104c-.002 1.939.7 3.812 1.976 5.272l56 64c2.905 3.329 7.959 3.673 11.288.768s3.673-7.959.768-11.288l-41.784-48c-4.315-4.86-3.874-12.298.986-16.613.244-.217.497-.423.758-.619 4.966-3.715 11.961-2.945 16 1.76l35.944 41.944c.699.808 1.549 1.472 2.504 1.952 26.765 13.277 43.657 40.611 43.56 70.488z"/></svg>