<svg enable-background="new 0 0 480.02 480.02" viewBox="0 0 480.02 480.02" xmlns="http://www.w3.org/2000/svg"><path d="m407.709 161.924c.375-1.518.295-3.112-.232-4.584-5.678-92.003-84.562-162.168-176.6-157.08-89.901 5.582-159.705 80.554-158.864 170.624.755 51.594 25.349 99.933 66.608 130.92 23.178 16.845 37.04 43.646 37.392 72.296v49.92c0 13.255 10.745 24 24 24h8c0 17.673 14.327 32 32 32s32-14.327 32-32h8c13.255 0 24-10.745 24-24v-49.944c.174-28.177 13.592-54.631 36.224-71.416 42.796-31.482 67.98-81.512 67.776-134.64 0-2.056-.232-4.056-.304-6.096zm-31.696-61.616c8.148 16.178 13.298 33.698 15.2 51.712h-15.2zm6.608 67.712-34.288 40h-20.32v-56c0-2.122-.844-4.156-2.344-5.656l-18.936-18.936 25.12-31.408h28.16v64c0 4.418 3.582 8 8 8zm-134.608-151.784c23.03 1.165 45.479 7.631 65.6 18.896l-42.352 42.328-23.248-17.44zm-96 28.384v51.4c0 4.418 3.582 8 8 8h32c4.418 0 8-3.582 8-8v-4.688l16 16v28.688h-48c-4.418 0-8 3.582-8 8v31.352l-24-19.2v-36.152c0-4.418-3.582-8-8-8h-28.992c10.985-26.997 29.35-50.355 52.992-67.4zm42.528 179.808-18.528-6.176v-18.232h48v68.184l-24-9.6v-26.584c.001-3.445-2.203-6.503-5.472-7.592zm45.472 239.592c-8.837 0-16-7.163-16-16h32c0 8.837-7.163 16-16 16zm48-40c0 4.418-3.582 8-8 8h-80c-4.418 0-8-3.582-8-8v-8h96zm0-24h-96v-16h96zm42.68-110.192c-24.976 18.546-40.523 47.146-42.504 78.192h-96.352c-2.186-31.448-18.112-60.338-43.536-78.976-37.335-28.021-59.596-71.748-60.288-118.424-.208-14.396 1.679-28.746 5.6-42.6h26.4v32c-.001 2.43 1.103 4.729 3 6.248l37 29.592v28.16c-.001 3.445 2.204 6.503 5.472 7.592l18.528 6.176v26.232c-.003 3.272 1.987 6.215 5.024 7.432l40 16c4.101 1.644 8.758-.349 10.402-4.45.38-.948.575-1.961.574-2.982v-88c0-4.418-3.582-8-8-8h-56v-32h48c4.418 0 8-3.582 8-8v-40c0-2.122-.844-4.156-2.344-5.656l-32-32c-3.125-3.124-8.19-3.123-11.314.002-1.499 1.5-2.342 3.534-2.342 5.654v16h-16v-53.4c19.58-10.856 41.359-17.146 63.712-18.4h.288v47.8c0 2.518 1.186 4.889 3.2 6.4l32 24c3.185 2.388 7.641 2.071 10.456-.744l49.8-49.8c14.192 9.803 26.537 22.039 36.464 36.144h-35.92c-2.43-.001-4.729 1.103-6.248 3l-32 40c-2.547 3.184-2.292 7.774.592 10.656l21.656 21.656v60.688c0 4.418 3.582 8 8 8h32c2.334 0 4.552-1.02 6.072-2.792l33.192-38.72c-3.938 42.785-25.987 81.843-60.584 107.32z"/></svg>