<svg enable-background="new 0 0 480.052 480.052" fill="#0bcc95" viewBox="0 0 480.052 480.052" xmlns="http://www.w3.org/2000/svg"><path d="m435.498 64.829c-2.248-1.089-4.876-1.066-7.105.064l-34.48 17.488-26.984-46.352c-9.237-17.313-27.298-28.091-46.92-28h-133.344c-19.909.048-38.353 10.472-48.664 27.504l-24.8 40.304c-2.292 3.724-1.17 8.598 2.52 10.944l88 56c1.282.815 2.769 1.247 4.288 1.248.664.001 1.325-.083 1.968-.248 2.135-.541 3.953-1.939 5.024-3.864l33.6-60.456 36.8 69.6-33.504 20.104c-2.942 1.764-4.432 5.208-3.704 8.56.725 3.351 3.505 5.867 6.912 6.256l119.064 13.536c.3.032.602.048.904.048 3.066 0 5.863-1.752 7.2-4.512l56.936-117.536c1.926-3.977.265-8.762-3.711-10.688zm-230.361 59.887-74.184-47.2 20.72-33.664c7.401-12.267 20.666-19.782 34.992-19.824h32.48l19.824 39.8zm165.208 56.264-89.984-10.232 19.768-11.864c3.639-2.188 4.935-6.837 2.952-10.592l-65.704-124.264h82.632c13.895-.02 26.648 7.688 33.088 20l30.784 52.904c2.137 3.656 6.752 5.013 10.528 3.096l20.048-10.16z"/><path d="m473.049 232.06-25.856-51.648c-1.974-3.953-6.779-5.556-10.732-3.582-.159.079-.315.164-.468.254l-96 56c-3.762 2.194-5.077 6.994-2.96 10.8l33.376 60.144h-74.4v-32c.002-4.418-3.579-8.001-7.997-8.003-2.255-.001-4.406.95-5.923 2.619l-80 88c-2.607 2.869-2.782 7.194-.416 10.264l80 104c2.697 3.499 7.721 4.149 11.22 1.452 1.964-1.514 3.115-3.852 3.116-6.332v-24h56c19.726.486 37.977-10.407 46.912-28l56-95.952 16.64-26.88c10.763-17.383 11.332-39.216 1.488-57.136zm-88.04 172.096c-6.164 12.51-19.059 20.275-33 19.872h-64c-4.418 0-8 3.582-8 8v8.48l-61.6-80.048 61.6-67.744v19.312c0 4.418 3.582 8 8 8h146.072zm72.912-123.344-14.4 23.2h-54.808l-33.904-61.016 81.864-47.768 22.2 44.32c7.166 12.915 6.802 28.693-.952 41.264z"/><path d="m191.273 244.676-48-104c-1.38-3.006-4.467-4.854-7.768-4.648l-128 8c-4.41.274-7.763 4.07-7.489 8.48.161 2.588 1.565 4.938 3.769 6.304l.008.016 39.552 24.528-26.4 52.864c-9.569 17.385-9.514 38.472.144 55.808l44.52 76.88 24.344 42.168c10.455 17.76 29.448 28.746 50.056 28.952h32c4.418 0 8-3.582 8-8v-112c0-4.418-3.582-8-8-8h-59.768l39.904-69.24 32.992 12.704c4.124 1.585 8.753-.473 10.338-4.597.775-2.015.702-4.258-.202-6.219zm-31.264 83.352v96h-24c-14.908-.144-28.651-8.089-36.216-20.936l-21.96-38.048 22.656-37.016zm-12.504-102.632c-3.676-1.412-7.833.06-9.8 3.472l-69.2 120.064-37.568-64.904c-6.906-12.618-6.803-27.908.272-40.432l29.752-59.632c1.863-3.706.585-8.221-2.944-10.4l-24.472-15.136 97.496-6.072 37.44 81.12z"/></svg>