<svg enable-background="new 0 0 479.999 479.999" viewBox="0 0 479.999 479.999" xmlns="http://www.w3.org/2000/svg"><path d="m415.999 48.175c0-.064 0-.112 0-.176v-24c.048-13.206-10.618-23.951-23.825-23.999-6.848-.025-13.378 2.887-17.935 7.999h-238.24c-19.001.024-35.373 13.389-39.2 32h-8.8c-22.08.026-39.974 17.92-40 40v16c0 4.418 3.582 8 8 8h24.648l31.352 368.68c.354 4.151 3.834 7.335 8 7.32h240c35.346-.063 63.949-28.767 63.886-64.114-.05-28.318-18.705-53.237-45.862-61.263l21.328-250.624h24.648c4.418 0 8-3.582 8-8v-16c-.028-12.534-5.956-24.324-16-31.823zm-32-24.176c0-4.418 3.582-8 8-8s8 3.582 8 8v16h-16zm-248 0h232v16h-254.632c3.403-9.582 12.465-15.988 22.632-16zm272 392c0 26.51-21.49 48-48 48s-48-21.49-48-48 21.49-48 48-48c2.72.015 5.434.264 8.112.744 23.024 3.948 39.862 23.897 39.888 47.256zm-45.816-63.96c-.352 0-.696 0-1.048 0s-.752-.04-1.136-.04c-.68 0-1.336.08-2.016.104-1.328 0-2.656.08-3.96.2-.56.048-1.104.128-1.656.192-1.76.208-3.504.456-5.224.8h-.088c-32.296 6.611-54.253 36.717-50.68 69.488.08.752.232 1.472.336 2.208.208 1.48.416 2.952.728 4.4.184.864.44 1.696.656 2.544.328 1.28.656 2.568 1.064 3.816.288.888.632 1.736.96 2.608.44 1.168.88 2.344 1.392 3.48.384.864.8 1.704 1.224 2.544.544 1.096 1.104 2.176 1.704 3.2.472.8.976 1.6 1.488 2.4.64 1.016 1.296 2.008 1.992 2.976.552.8 1.128 1.544 1.72 2.296.728.944 1.488 1.848 2.272 2.744.632.72 1.272 1.432 1.928 2.12.8.864 1.688 1.688 2.568 2.504.44.416.848.88 1.304 1.28h-190.4l-30.6-359.904h286.576zm53.816-264.04h-352v-8c0-13.255 10.745-24 24-24h304c13.255 0 24 10.745 24 24z"/><path d="m297.873 200.281c-4.25-1.032-8.54 1.54-9.634 5.774l-4.288 17.144-37.168-59.44c-2.64-3.756-7.825-4.66-11.58-2.02-.785.552-1.468 1.235-2.02 2.02l-16 25.6c-2.334 3.752-1.184 8.685 2.567 11.019.003.002.006.004.009.005 3.747 2.342 8.682 1.203 11.024-2.544l9.216-14.744 30.568 48.904h-14.568c-4.418 0-8 3.582-8 8s3.582 8 8 8h32c3.669 0 6.868-2.497 7.76-6.056l8-32c1.043-4.294-1.592-8.619-5.886-9.662z"/><path d="m223.767 254.055-8-32c-.892-3.562-4.096-6.06-7.768-6.056h-32c-4.418 0-8 3.582-8 8s3.582 8 8 8h14.568l-37.352 59.76c-2.342 3.747-1.203 8.682 2.544 11.024 1.271.795 2.741 1.216 4.24 1.216h32c4.418 0 8-3.582 8-8s-3.582-8-8-8h-17.6l29.512-47.2 4.296 17.168c.904 3.562 4.118 6.049 7.792 6.032.658.003 1.314-.078 1.952-.24 4.286-1.074 6.89-5.418 5.816-9.704z"/><path d="m326.655 291.559-16-24c-2.451-3.676-7.418-4.669-11.094-2.217-.001 0-.001.001-.002.001-3.676 2.451-4.668 7.418-2.217 11.094 0 .001.001.001.001.002l7.704 11.56h-61.736l10.344-10.344c3.07-3.178 2.982-8.242-.196-11.312-3.1-2.995-8.016-2.995-11.116 0l-24 24c-3.123 3.124-3.123 8.188 0 11.312l24 24c3.178 3.07 8.242 2.982 11.312-.196 2.995-3.1 2.995-8.016 0-11.116l-10.344-10.344h76.688c4.418.001 8.001-3.581 8.001-7.999.001-1.581-.467-3.126-1.345-4.441z"/><path d="m359.999 391.999c-13.255 0-24 10.745-24 24s10.745 24 24 24 24-10.745 24-24-10.745-24-24-24zm0 32c-4.418 0-8-3.582-8-8s3.582-8 8-8 8 3.582 8 8-3.581 8-8 8z"/></svg>