<svg enable-background="new 0 0 480 480" viewBox="0 0 480 480" xmlns="http://www.w3.org/2000/svg"><path d="m432 136h-96v-88c0-.168-.088-.312-.096-.48-.047-.726-.192-1.442-.432-2.128-.077-.255-.168-.506-.272-.752-.376-.828-.89-1.585-1.52-2.24l-40-40c-1.497-1.527-3.542-2.391-5.68-2.4h-96c-2.122 0-4.156.844-5.656 2.344l-40 40c-.635.661-1.152 1.427-1.528 2.264-.101.246-.189.497-.264.752-.239.684-.385 1.397-.432 2.12 0 .176-.096.32-.096.488v88.032h-96.024c-4.418 0-8 3.582-8 8v328c0 4.418 3.582 8 8 8h384c4.418 0 8-3.582 8-8v-328c0-4.418-3.582-8-8-8zm-236.688-120h89.376l24 24h-137.376zm124.688 40v80h-24v-80zm-40 0v80h-80v-80zm-120 0h24v80h-24zm264 408h-368v-312h368z"/><path d="m296.16 254.4-3.872 19.328-45.376-77.728c-1.491-2.448-4.134-3.959-7-4-2.873.032-5.508 1.601-6.904 4.112l-40 72 13.984 7.776 33.176-59.72 48.92 83.832c1.426 2.47 4.06 3.994 6.912 4 .443.002.884-.035 1.32-.112 3.274-.55 5.869-3.065 6.52-6.32l8-40z"/><path d="m149.928 384 48.984-84c2.208-3.827.896-8.719-2.931-10.927-1.687-.973-3.672-1.298-5.581-.913l-40 8 3.136 15.68 22.56-4.504-47.008 80.664c-2.209 3.826-.898 8.719 2.928 10.928 1.211.699 2.585 1.069 3.984 1.072h72v-16z"/><path d="m351.048 388.208-39-72.496-14.096 7.576 32.656 60.712h-90.608c-4.418 0-8 3.582-8 8 0 1.731.561 3.415 1.6 4.8l24 32 12.8-9.6-14.4-19.2h88c4.418.002 8.002-3.578 8.004-7.996 0-1.325-.328-2.629-.956-3.796z"/></svg>