<svg enable-background="new 0 0 479.852 479.852" viewBox="0 0 479.852 479.852" xmlns="http://www.w3.org/2000/svg"><path d="m439.335 144.069c0-.256 0-.504.056-.76 5.338-42.118-24.478-80.589-66.596-85.928-3.384-.429-6.793-.632-10.204-.608-2.504 0-4.992.136-7.456.376-.8.072-1.6.216-2.4.312-1.656.216-3.312.44-4.944.76-.864.168-1.72.384-2.576.576-1.552.36-3.088.744-4.608 1.192-.8.24-1.6.504-2.4.8-1.6.52-3.104 1.08-4.624 1.696-.696.28-1.376.56-2.064.864-1.6.712-3.2 1.488-4.8 2.312-.536.28-1.072.552-1.6.848-1.704.944-3.36 1.96-4.992 3.032-.368.248-.752.472-1.12.72-1.776 1.216-3.504 2.52-5.184 3.88-.192.16-.4.304-.584.456s-.504.376-.744.584c-12.241-31.015-41.148-52.291-74.4-54.76-2.24-.176-4.496-.272-6.776-.272-2.792 0-5.6.16-8.288.424-1.088.104-2.144.288-3.2.424-1.6.216-3.2.432-4.8.736-1.352.256-2.68.576-4 .896-1.2.288-2.4.584-3.592.92-1.512.432-3.008.912-4.488 1.424-.888.312-1.776.632-2.648.968-1.672.64-3.32 1.312-4.944 2.048-.52.232-1.032.496-1.544.744-12.861 6.155-24.028 15.351-32.536 26.792l-.168.216c-1.397 1.899-2.731 3.851-4 5.856l-.16.272c-5.214 8.398-8.948 17.628-11.04 27.288-32.318-14.315-70.121.279-84.436 32.597-2.576 5.816-4.271 11.983-5.028 18.299-35.099 4.175-60.168 36.013-55.993 71.111 3.829 32.193 31.125 56.437 63.545 56.441h352c35.346-.081 63.934-28.801 63.853-64.147-.06-26.228-16.118-49.765-40.517-59.389zm20.562 79.078c-7.715 17.334-24.925 28.491-43.898 28.458h-352c-26.509-.196-47.84-21.844-47.644-48.353.173-23.4 17.195-43.266 40.292-47.023 1.325 10.049 5.039 19.634 10.832 27.952 2.453 3.674 7.421 4.664 11.096 2.211s4.664-7.421 2.211-11.096c-.06-.09-.122-.18-.186-.267-15.27-21.567-10.165-51.43 11.403-66.7 15.418-10.916 35.815-11.739 52.061-2.1 0 .408-.064.8-.064 1.2-.026 12.186 2.517 24.24 7.464 35.376 1.692 4.081 6.372 6.018 10.454 4.326s6.018-6.372 4.326-10.454c-.049-.119-.101-.236-.156-.352-4.031-9.085-6.106-18.917-6.088-28.856 0-1.68.136-3.32.248-4.976v-.048c.469-6.806 1.924-13.508 4.32-19.896v-.056c.779-2.075 1.648-4.099 2.608-6.072v-.048c5.803-11.882 14.769-21.936 25.912-29.056l.104-.064c1.792-1.144 3.648-2.208 5.544-3.2l.408-.2c1.808-.92 3.656-1.776 5.552-2.544.296-.12.6-.216.904-.328 1.744-.688 3.52-1.32 5.328-1.864.584-.176 1.184-.296 1.768-.456 1.6-.432 3.144-.856 4.752-1.176 1.032-.2 2.088-.32 3.136-.48 1.216-.184 2.4-.408 3.664-.536 2.32-.224 4.672-.36 7.048-.36 2.064 0 4.112.096 6.144.272h.272c29.586 2.842 54.363 23.618 62.32 52.256-9.694 13.192-14.924 29.133-14.928 45.504 0 4.418 3.582 8 8 8s8-3.582 8-8c.023-14.231 5.008-28.009 14.096-38.96 1.312-1.6 2.704-3.096 4.152-4.536.72-.72 1.496-1.368 2.248-2.048s1.6-1.472 2.456-2.152 1.768-1.344 2.672-2 1.6-1.168 2.448-1.712 1.888-1.176 2.856-1.736 1.768-.992 2.68-1.456 1.92-.96 2.904-1.4 2.016-.848 3.032-1.24 1.88-.728 2.84-1.04c1.16-.384 2.336-.696 3.52-1.008.872-.232 1.736-.48 2.624-.672 1.4-.304 2.816-.512 4.24-.72.72-.096 1.424-.248 2.152-.328 2.189-.237 4.39-.357 6.592-.36 33.889.053 61.344 27.519 61.384 61.408-.008 2.138-.131 4.275-.368 6.4-.04.32-.088.632-.128.944-.24 1.92-.56 3.848-.984 5.792-2.075 9.59-6.421 18.542-12.672 26.104-2.611 3.565-1.838 8.57 1.727 11.181 3.269 2.395 7.813 1.966 10.577-.997 5.854-7.065 10.403-15.116 13.432-23.776 24.198 10.77 35.084 39.119 24.313 63.318z"/><path d="m213.459 285.949c-3.1-2.994-8.015-2.994-11.116 0l-32 32c-3.124 3.125-3.123 8.19.002 11.314 1.5 1.499 3.534 2.342 5.654 2.342 2.122 0 4.156-.844 5.656-2.344l32-32c3.069-3.178 2.982-8.243-.196-11.312z"/><path d="m149.655 349.949c-3.124-3.123-8.188-3.123-11.312 0l-32 32c-3.178 3.069-3.266 8.134-.196 11.312 3.069 3.178 8.134 3.266 11.312.196.067-.064.132-.13.196-.196l32-32c3.123-3.124 3.123-8.188 0-11.312z"/><path d="m85.459 413.949c-3.1-2.994-8.015-2.994-11.116 0l-32 32c-3.178 3.07-3.266 8.134-.196 11.312s8.134 3.266 11.312.196c.067-.064.132-.13.196-.196l32-32c3.069-3.178 2.982-8.243-.196-11.312z"/><path d="m117.459 285.949c-3.1-2.994-8.015-2.994-11.116 0l-32 32c-3.124 3.125-3.123 8.19.002 11.314 1.5 1.499 3.534 2.342 5.654 2.342 2.122 0 4.156-.844 5.656-2.344l32-32c3.069-3.178 2.982-8.243-.196-11.312z"/><path d="m53.655 349.949c-3.124-3.123-8.188-3.123-11.312 0l-32 32c-3.178 3.07-3.266 8.134-.196 11.312s8.134 3.266 11.312.196c.067-.064.132-.13.196-.196l32-32c3.123-3.124 3.123-8.188 0-11.312z"/><path d="m309.459 285.949c-3.1-2.995-8.016-2.995-11.116 0l-32 32c-3.124 3.125-3.123 8.19.002 11.314 1.5 1.499 3.534 2.342 5.654 2.342 2.122 0 4.156-.844 5.656-2.344l32-32c3.07-3.178 2.982-8.242-.196-11.312z"/><path d="m245.655 349.949c-3.124-3.123-8.188-3.123-11.312 0l-32 32c-3.178 3.069-3.266 8.134-.196 11.312 3.069 3.178 8.134 3.266 11.312.196.067-.064.132-.13.196-.196l32-32c3.123-3.124 3.123-8.188 0-11.312z"/><path d="m181.459 413.949c-3.1-2.994-8.015-2.994-11.116 0l-32 32c-3.178 3.069-3.266 8.134-.196 11.312 3.069 3.178 8.134 3.266 11.312.196.067-.064.132-.13.196-.196l32-32c3.069-3.178 2.982-8.243-.196-11.312z"/><path d="m405.459 285.949c-3.1-2.995-8.016-2.995-11.116 0l-32 32c-3.178 3.07-3.266 8.134-.196 11.312s8.134 3.266 11.312.196c.066-.064.132-.13.196-.196l32-32c3.07-3.178 2.982-8.242-.196-11.312z"/><path d="m341.459 349.949c-3.1-2.995-8.016-2.995-11.116 0l-32 32c-3.178 3.07-3.266 8.134-.196 11.312s8.134 3.266 11.312.196c.066-.064.132-.13.196-.196l32-32c3.07-3.178 2.982-8.242-.196-11.312z"/><path d="m277.459 413.949c-3.1-2.995-8.016-2.995-11.116 0l-32 32c-3.178 3.07-3.266 8.134-.196 11.312s8.134 3.266 11.312.196c.066-.064.132-.13.196-.196l32-32c3.07-3.178 2.982-8.242-.196-11.312z"/></svg>