<svg enable-background="new 0 0 480.003 480.003" viewBox="0 0 480.003 480.003" xmlns="http://www.w3.org/2000/svg"><path d="m479.706 469.842-32.272-115.256c-15.549-55.528-23.433-112.92-23.432-170.584 5.004-2.8 9.602-6.273 13.664-10.32 8.721-8.78 20.593-13.706 32.968-13.68h9.368v-16h-9.368c-16.62-.046-32.568 6.559-44.288 18.344-8.727 8.773-20.601 13.691-32.976 13.656h-80.648c3.919-23.066 23.883-39.957 47.28-40 2.674 0 5.172-1.335 6.656-3.56 8.498-12.782 22.835-20.457 38.184-20.44h11.16c12.113-.023 23.896-3.951 33.6-11.2l6.4-4.8c6.931-5.178 15.348-7.984 24-8v-16c-12.113.023-23.896 3.951-33.6 11.2l-6.4 4.8c-6.931 5.178-15.348 7.984-24 8h-11.2c-19.212-.023-37.339 8.898-49.04 24.136-33.61 2.271-59.723 30.177-59.76 63.864.001 57.664-7.883 115.056-23.432 170.584l-.336 1.2-.608-2.232c-20.984-76.077-31.621-154.634-31.624-233.552 0-8.837 7.163-16 16-16h56c12.584-.028 24.428-5.95 32-16l4.8-6.4c4.542-6.031 11.649-9.585 19.2-9.6 39.746-.044 71.956-32.254 72-72h-16c-.035 30.913-25.087 55.965-56 56-12.584.028-24.428 5.95-32 16l-4.8 6.4c-4.542 6.031-11.649 9.585-19.2 9.6h-56c-14.547.055-27.227 9.914-30.864 24h-144.416c3.919-23.066 23.883-39.957 47.28-40h72c17.608.047 34.271-7.963 45.232-21.744l2.024-2.512c7.936-9.976 19.997-15.775 32.744-15.744 17.673 0 32-14.327 32-32h-16c0 8.837-7.163 16-16 16-17.608-.047-34.271 7.963-45.232 21.744l-2.024 2.512c-7.936 9.976-19.997 15.775-32.744 15.744h-72c-35.33.04-63.96 28.67-64 64-.002 78.917-10.639 157.475-31.624 233.552l-32.088 116.32c-1.175 4.259 1.325 8.664 5.584 9.84.693.191 1.409.288 2.128.288h464c4.418.001 8.001-3.581 8.001-7.999 0-.731-.099-1.458-.297-2.161zm-167.704-277.84h81.368 14.68c.104 8 .392 16 .8 24h-97.648c.392-8 .68-16 .8-24zm-232.032-64h144.032c.104 8 .352 16 .64 24h-145.28c.288-8 .536-16 .608-24zm-61.464 336 29.296-106.192c17.059-61.979 27.385-125.616 30.8-189.808h146.8c3.415 64.192 13.741 127.829 30.8 189.808l28.848 104.592.448 1.6zm283.592 0-21.6-78.336 7.504-26.768c11.589-41.457 19.02-83.966 22.184-126.896h99.632c3.164 42.93 10.595 85.439 22.184 126.896l29.456 105.104z"/></svg>