<svg enable-background="new 0 0 480.272 480.272" viewBox="0 0 480.272 480.272" xmlns="http://www.w3.org/2000/svg"><path d="m236.136 208.272c-4.418 0-8 3.582-8 8v128c0 4.418 3.582 8 8 8s8-3.582 8-8v-128c0-4.419-3.582-8-8-8z"/><path d="m204 342.8-24-128c-.628-4.373-4.682-7.41-9.055-6.782s-7.41 4.682-6.782 9.055c.032.225.074.449.126.671l24 128c.707 3.779 4.003 6.521 7.848 6.528 4.418 0 8-3.581 8.001-7.999-.001-.495-.047-.988-.138-1.473z"/><path d="m302.006 208.135c-4.304-.998-8.602 1.682-9.601 5.986-.051.222-.093.445-.126.671l-24 128c-.819 4.341 2.035 8.524 6.376 9.344 4.343.812 8.522-2.05 9.335-6.393 0-.003.001-.005.001-.007l24-128c.999-4.304-1.681-8.603-5.985-9.601z"/><path d="m388.136 176.272h-3.616c15.599-80.236-36.8-157.925-117.036-173.524-80.236-15.599-157.925 36.8-173.524 117.036-3.627 18.655-3.627 37.833 0 56.488h-1.824c-4.418 0-8 3.582-8 8s3.582 8 8 8h5.84c1.903 6.052 4.185 11.979 6.832 17.744l59.328 175.568v46.688c0 13.255 10.745 24 24 24h17.136c4.339 17.046 21.674 27.347 38.719 23.009 11.304-2.877 20.131-11.704 23.009-23.009h17.136c13.255 0 24-10.745 24-24v-46.56l62.992-170.488c3.728-7.381 6.84-15.058 9.304-22.952h7.704c4.418 0 8-3.582 8-8s-3.582-8-8-8zm-152 288c-5.713-.003-10.991-3.052-13.848-8h27.696c-2.857 4.947-8.135 7.997-13.848 8zm56-32c0 4.418-3.582 8-8 8h-96c-4.418 0-8-3.582-8-8v-8h112zm0-24h-112v-16h112zm64.528-199.912c-.144.286-.272.58-.384.88l-61.744 167.032h-116.656l-58.048-171.784c-.096-.272-.2-.536-.32-.8-1.744-3.752-3.2-7.568-4.6-11.416h248.704c-1.962 5.509-4.284 10.883-6.952 16.088zm11.568-32.088h-257.912c-7.497-34.068-1.124-69.719 17.712-99.08v-.032c39.279-61.415 120.907-79.36 182.322-40.082 46.495 29.736 69.581 85.259 57.878 139.194z"/><path d="m198.888 49.792c-8.314 3.675-16.148 8.353-23.328 13.928l9.792 12.648c6.161-4.773 12.876-8.784 20-11.944z"/><path d="m159.52 78.896c-17.661 20.366-27.384 46.419-27.384 73.376h16c-.005-23.104 8.326-45.434 23.464-62.888z"/></svg>