<svg enable-background="new 0 0 472.01 472.01" fill="#0bcc95" viewBox="0 0 472.01 472.01" xmlns="http://www.w3.org/2000/svg"><path d="m357.398 55.734c-4.581-5.328-9.509-10.349-14.751-15.028-65.885-58.886-167.033-53.212-225.919 12.673-22.519 25.196-36.483 56.874-39.889 90.495-5.436 51.595 14.718 102.584 53.96 136.52 14.861 12.925 26.361 29.265 33.512 47.616h-.272c-4.418 0-8 3.582-8 8s3.582 8 8 8h5.296c1.784 7.876 2.691 15.925 2.704 24v48c0 13.255 10.745 24 24 24h8c0 17.673 14.327 32 32 32s32-14.327 32-32h8c13.255 0 24-10.745 24-24v-48c.008-8.071.888-16.118 2.624-24h5.376c4.418 0 8-3.582 8-8s-3.582-8-8-8h-.48c6.877-18.11 18.168-34.216 32.848-46.856 66.94-57.557 74.547-158.48 16.991-225.42zm-121.358 400.275c-8.837 0-16-7.163-16-16h32c0 8.837-7.164 16-16 16zm48-40c0 4.418-3.582 8-8 8h-80c-4.418 0-8-3.582-8-8v-8h96zm0-24h-96v-16h96zm.248-32h-96.504c-.391-5.375-1.129-10.72-2.208-16h100.864c-1.055 5.283-1.774 10.627-2.152 16zm60.198-105.406c-4.494 5.146-9.348 9.965-14.527 14.422h.008c-18.252 15.705-31.863 36.102-39.36 58.984h-46.567v-56h8c57.41-.066 103.934-46.59 104-104 0-4.418-3.582-8-8-8h-16c-35.777.038-69.02 18.473-88 48.8v-41.272c36.414-4.108 63.95-34.883 64-71.528 0-4.418-3.582-8-8-8-26.995.036-51.702 15.169-64 39.2-12.298-24.031-37.005-39.164-64-39.2-4.418 0-8 3.582-8 8 .05 36.645 27.586 67.42 64 71.528v41.272c-18.98-30.327-52.223-48.762-88-48.8h-16c-4.418 0-8 3.582-8 8 .066 57.41 46.59 103.934 104 104h8v56h-46.736c-7.789-23.092-21.597-43.688-40-59.664-59.902-52.312-66.055-143.28-13.742-203.183s143.28-66.055 203.183-13.742c59.901 52.313 66.054 143.281 13.741 203.183zm-100.086 1.406c4.191-45.288 42.159-79.946 87.64-80h7.64c-4.191 45.288-42.159 79.946-87.64 80zm.312-104.671c3.802-24.018 22.638-42.854 46.656-46.656-3.802 24.017-22.639 42.854-46.656 46.656zm-17.344 0c-24.018-3.802-42.854-22.638-46.656-46.656 24.017 3.801 42.854 22.638 46.656 46.656zm.312 104.671h-7.64c-45.481-.054-83.449-34.713-87.64-80h7.64c45.481.055 83.449 34.713 87.64 80z"/></svg>