<svg enable-background="new 0 0 480 480" fill="#0bcc95" viewBox="0 0 480 480" xmlns="http://www.w3.org/2000/svg"><path d="m105.24 370.36.008-.008c-6.127-.486-12.19 1.535-16.8 5.6-9.646 8.366-10.684 22.968-2.318 32.614 4.018 4.633 9.712 7.48 15.83 7.914.56.04 1.12.056 1.68.056 12.769-.064 23.068-10.466 23.004-23.235-.06-12.059-9.378-22.047-21.404-22.941zm5.496 23.536-.032.024c-.119 1.879-.983 3.633-2.4 4.872-1.437 1.217-3.288 1.833-5.168 1.72-3.922-.282-6.875-3.686-6.6-7.608.268-3.72 3.358-6.605 7.088-6.616h.512c3.922.281 6.875 3.685 6.6 7.608z"/><path d="m393.24 370.36.008-.008c-6.128-.489-12.191 1.532-16.8 5.6-9.646 8.366-10.684 22.968-2.318 32.614 4.018 4.633 9.712 7.48 15.83 7.914.56.04 1.12.056 1.68.056 12.769-.064 23.068-10.466 23.004-23.235-.06-12.059-9.378-22.047-21.404-22.941zm5.496 23.536-.032.024c-.119 1.879-.983 3.633-2.4 4.872-1.439 1.215-3.289 1.83-5.168 1.72-3.922-.282-6.875-3.686-6.6-7.608.268-3.72 3.358-6.605 7.088-6.616h.512c3.922.281 6.875 3.685 6.6 7.608z"/><path d="m248 320.008h-32c-4.418 0-8 3.582-8 8s3.582 8 8 8h32c4.418 0 8-3.582 8-8s-3.582-8-8-8z"/><path d="m440 288.008h-4.152l-47.2-58.984c-10.6-13.313-26.702-21.054-43.72-21.016h-56.928v-16h40c39.496-.053 75.554-22.473 93.072-57.872 1.608-1.306 2.642-3.19 2.88-5.248-.009-.217-.031-.433-.064-.648 5.365-12.734 8.123-26.414 8.112-40.232v-48c-.005-1.049-.214-2.087-.616-3.056-1.236-2.989-4.15-4.94-7.384-4.944h-48c-13.716-.01-27.297 2.709-39.952 8-1.1-.014-2.19.204-3.2.64-1.127.51-2.119 1.277-2.896 2.24-27.138 13.474-47.073 38.087-54.616 67.432-18.213-33.453-53.246-54.285-91.336-54.312h-32-.128c-.659.047-1.31.179-1.936.392-.376.06-.748.145-1.112.256-.315.182-.617.385-.904.608-.601.321-1.157.719-1.656 1.184l-.096.064c-.217.3-.412.616-.584.944-.398.488-.732 1.026-.992 1.6-.195.589-.318 1.198-.368 1.816-.104.372-.179.752-.224 1.136v24c.017 28.801 12.015 56.297 33.12 75.896.834 1.485 2.129 2.659 3.688 3.344 18.737 15.987 42.562 24.767 67.192 24.76h24v16h-74.624c-15.864.016-30.979 6.751-41.6 18.536l-55.824 62.032-66.528 11.088c-19.315 3.165-33.477 19.883-33.424 39.456v52.888c0 4.418 3.582 8 8 8h40.64c4.391 30.574 32.736 51.8 63.311 47.409 24.574-3.529 43.88-22.836 47.409-47.409h177.28c4.391 30.574 32.736 51.8 63.311 47.409 24.574-3.529 43.88-22.836 47.409-47.409h24.64c4.418 0 8-3.582 8-8v-64c-.026-22.081-17.919-39.974-40-40zm-112-112h-28.688l47.624-47.624 55.6 6.176c-16.031 25.749-44.204 41.415-74.536 41.448zm88-88c-.017 10.703-2.002 21.311-5.856 31.296l-48.72-5.408 54.576-54.576zm-40-40h28.688l-41.992 41.992-15.824-36.936c9.352-3.327 19.202-5.037 29.128-5.056zm-43.68 11.712 18.192 42.456-27.816 27.824-18.912-44.136c7.469-10.712 17.213-19.639 28.536-26.144zm-44.32 76.288c.014-10.976 2.095-21.851 6.136-32.056l16.376 38.224-22.512 22.52zm-184 296c-22.091 0-40-17.909-40-40s17.909-40 40-40 40 17.909 40 40c-.026 22.08-17.919 39.973-40 40zm168-48h-112.568c-.088-.616-.24-1.208-.352-1.816-.136-.8-.264-1.52-.432-2.272-.224-1.016-.496-2.008-.8-3.008-.192-.704-.376-1.416-.6-2.104-.336-1.04-.728-2.048-1.12-3.056-.248-.624-.464-1.248-.72-1.856-.496-1.144-1.056-2.256-1.6-3.36-.224-.44-.416-.896-.656-1.328-.821-1.509-1.715-2.979-2.68-4.408-.216-.32-.464-.608-.68-.928-.8-1.096-1.6-2.176-2.4-3.2-.392-.48-.8-.928-1.224-1.4-.728-.8-1.448-1.656-2.216-2.4-.488-.496-1-.96-1.512-1.432-.744-.704-1.488-1.408-2.272-2.072-.552-.472-1.128-.912-1.704-1.36-.8-.616-1.6-1.216-2.4-1.792-.608-.424-1.224-.8-1.856-1.232-.8-.536-1.672-1.056-2.536-1.544-.648-.376-1.304-.728-1.968-1.08-.888-.456-1.784-.888-2.696-1.296-.68-.312-1.36-.616-2.048-.896-.944-.384-1.912-.72-2.88-1.056-.696-.24-1.384-.488-2.096-.696-1.024-.304-2.064-.552-3.104-.8-.688-.16-1.36-.344-2.056-.48-1.168-.232-2.4-.392-3.56-.544-.592-.08-1.176-.192-1.776-.248-1.808-.232-3.64-.336-5.488-.336s-3.68.104-5.48.28c-.6.056-1.184.168-1.776.248-1.2.152-2.4.312-3.56.544-.696.136-1.368.32-2.056.48-1.04.248-2.08.496-3.104.8-.712.208-1.4.456-2.096.696-.968.336-1.936.672-2.88 1.056-.688.28-1.368.584-2.048.896-.912.408-1.808.8-2.696 1.296-.664.352-1.32.704-1.968 1.08-.864.488-1.704 1.008-2.536 1.544-.632.4-1.248.8-1.856 1.232-.8.576-1.6 1.176-2.4 1.792-.576.448-1.152.888-1.704 1.36-.8.664-1.528 1.368-2.272 2.072-.512.472-1.024.936-1.512 1.432-.8.8-1.488 1.6-2.216 2.4-.408.472-.8.92-1.224 1.4-.848 1.04-1.64 2.12-2.4 3.2-.216.32-.464.608-.68.928-.96 1.424-1.853 2.893-2.68 4.408-.24.432-.432.888-.656 1.328-.568 1.104-1.128 2.216-1.6 3.36-.256.608-.472 1.232-.72 1.856-.392 1.008-.8 2.016-1.12 3.056-.224.688-.408 1.4-.6 2.104-.28 1-.552 1.992-.8 3.008-.168.752-.296 1.504-.432 2.272-.112.608-.264 1.2-.352 1.816h-32.576v-44.832c-.032-11.744 8.466-21.775 20.056-23.672l68.608-11.44h167.336zm0-96h-150.032l45.68-50.76c7.59-8.42 18.392-13.231 29.728-13.24h74.624zm-88-216c8.119.02 16.196 1.167 24 3.408v30.128l-35.768-33.536zm-24 16v-5.536l60.672 56.88-34.272 11.416c-16.892-16.512-26.41-39.139-26.4-62.76zm88 88c-16.445-.007-32.554-4.658-46.472-13.416l32.408-10.8 25.832 24.216zm24-10.464-48.088-45.088c0-.16.088-.288.088-.448v-38.288c29.427 15.017 47.964 45.251 48 78.288zm16 58.464h56.928c12.16-.029 23.667 5.502 31.24 15.016l39.184 48.984h-127.352zm104 208c-22.091 0-40-17.909-40-40s17.909-40 40-40 40 17.909 40 40c-.026 22.08-17.919 39.973-40 40zm72-48h-16.568c-.088-.616-.24-1.208-.352-1.816-.136-.8-.264-1.52-.432-2.272-.224-1.016-.496-2.008-.8-3.008-.192-.704-.376-1.416-.6-2.104-.336-1.04-.728-2.048-1.12-3.056-.248-.624-.464-1.248-.72-1.856-.496-1.144-1.056-2.256-1.6-3.36-.224-.44-.416-.896-.656-1.328-.827-1.509-1.72-2.979-2.68-4.408-.216-.32-.464-.608-.68-.928-.8-1.096-1.6-2.176-2.4-3.2-.392-.48-.8-.928-1.224-1.4-.728-.8-1.448-1.656-2.216-2.4-.488-.496-1-.96-1.512-1.432-.744-.704-1.488-1.408-2.272-2.072-.552-.472-1.128-.912-1.704-1.36-.8-.616-1.6-1.216-2.4-1.792-.608-.424-1.224-.8-1.856-1.232-.8-.536-1.672-1.056-2.536-1.544-.648-.376-1.304-.728-1.968-1.08-.888-.456-1.784-.888-2.696-1.296-.68-.312-1.36-.616-2.048-.896-.944-.384-1.912-.72-2.88-1.056-.696-.24-1.384-.488-2.096-.696-1.024-.304-2.064-.552-3.104-.8-.688-.16-1.36-.344-2.056-.48-1.168-.232-2.36-.392-3.56-.544-.592-.08-1.176-.192-1.776-.248-1.808-.232-3.64-.336-5.488-.336s-3.68.104-5.48.28c-.6.056-1.184.168-1.776.248-1.2.152-2.4.312-3.56.544-.696.136-1.368.32-2.056.48-1.04.248-2.08.496-3.104.8-.712.208-1.4.456-2.096.696-.968.336-1.936.672-2.88 1.056-.688.28-1.368.584-2.048.896-.912.408-1.808.8-2.696 1.296-.664.352-1.32.704-1.968 1.08-.864.488-1.704 1.008-2.536 1.544-.632.4-1.248.8-1.856 1.232-.8.576-1.6 1.176-2.4 1.792-.576.448-1.152.888-1.704 1.36-.8.664-1.528 1.368-2.272 2.072-.512.472-1.024.936-1.512 1.432-.8.8-1.488 1.6-2.216 2.4-.408.472-.8.92-1.224 1.4-.848 1.04-1.64 2.12-2.4 3.2-.216.32-.464.608-.68.928-.96 1.424-1.853 2.893-2.68 4.408-.24.432-.432.888-.656 1.328-.568 1.104-1.128 2.216-1.6 3.36-.256.608-.472 1.232-.72 1.856-.392 1.008-.8 2.016-1.12 3.056-.224.688-.408 1.4-.6 2.104-.28 1-.552 1.992-.8 3.008-.168.752-.296 1.504-.432 2.272-.112.608-.264 1.2-.352 1.816h-48.576v-79.944h152c13.255 0 24 10.745 24 24z"/></svg>