<svg enable-background="new 0 0 480.006 480.006" viewBox="0 0 480.006 480.006" xmlns="http://www.w3.org/2000/svg"><path d="m60.646 168.74-21.44-44.224c-2.311-3.976-7.409-5.326-11.385-3.015-1.25.726-2.289 1.765-3.015 3.015l-21.44 44.224c-5.041 10.314-4.384 22.503 1.736 32.216 5.754 9.34 15.934 15.034 26.904 15.048 10.97-.014 21.15-5.708 26.904-15.048 6.12-9.713 6.777-21.901 1.736-32.216zm-15.296 23.72c-4.437 7.37-14.009 9.747-21.378 5.31-2.176-1.31-3.999-3.133-5.31-5.31-3.179-5.049-3.518-11.384-.896-16.744l14.24-29.376 14.24 29.376c2.621 5.36 2.282 11.695-.896 16.744z"/><path d="m458.918 287.604-15.6-15.6 2.344-2.344c3.123-3.124 3.123-8.188 0-11.312l-77.656-77.656v-68.688c0-4.418-3.582-8-8-8h-68.688l-21.656-21.656c-3.124-3.123-8.188-3.123-11.312 0l-2.344 2.344-35.792-35.792 2.784-5.008c2.147-3.862.758-8.733-3.104-10.88s-8.733-.758-10.88 3.104l-.568 1.016c-9.595-9.618-21.734-16.3-34.992-19.264l2.256-7.528c1.268-4.233-1.135-8.692-5.368-9.96-4.233-1.268-8.692 1.135-9.96 5.368l-3.128 10.256h-31.296l1.712-5.704c1.268-4.233-1.135-8.692-5.368-9.96s-8.692 1.135-9.96 5.368l-3.088 10.296h-31.296l1.712-5.704c1.268-4.233-1.135-8.692-5.368-9.96-4.233-1.268-8.692 1.135-9.96 5.368l-3.088 10.296h-29.248c-4.418 0-8 3.582-8 8v48c0 4.418 3.582 8 8 8h10.048l-1.712 5.704c-1.268 4.232 1.135 8.691 5.367 9.96h.001c.745.224 1.518.338 2.296.336 3.534 0 6.65-2.319 7.664-5.704l3.088-10.296h31.296l-1.712 5.704c-1.268 4.232 1.135 8.691 5.367 9.96h.001c.745.224 1.518.338 2.296.336 3.534 0 6.65-2.319 7.664-5.704l3.088-10.296h31.296l-1.712 5.704c-1.268 4.232 1.135 8.691 5.367 9.96h.001c.745.224 1.518.338 2.296.336 3.534 0 6.65-2.319 7.664-5.704l1.6-5.296c.864.621 1.687 1.297 2.464 2.024l16.08 16.08-2.784 5.008c-2.147 3.862-.758 8.733 3.104 10.88s8.733.758 10.88-3.104l.568-1.016 21.112 21.128-66.344 66.344c-3.123 3.124-3.123 8.188 0 11.312l36 36c2.247 2.245 5.609 2.949 8.568 1.792l1.6-.64c.389 1.067 1.003 2.039 1.8 2.848l97.4 97.368c15.619 15.623 40.945 15.626 56.569.007.002-.003.005-.005.007-.007l31.712-31.712 6.344 6.344c3.124 3.123 8.188 3.123 11.312 0l2.344-2.344 8.976 8.976c4.483 4.511 7.007 10.608 7.024 16.968v130.744h16v-130.744c.03-10.613-4.187-20.796-11.712-28.28l-8.976-8.976 28.688-28.688 15.6 15.6c10.534 10.478 16.44 24.734 16.4 39.592v141.496h16v-141.496c.052-19.103-7.542-37.434-21.088-50.904zm-412.064-223.6h-6.848v-32h16.448zm48 0h-31.296l9.6-32h31.296zm47.88.392c-1.318-.199-2.645-.33-3.976-.392h-27.2l9.6-32h31.296zm37.144 24.168-12.848-12.848c-2.683-2.602-5.718-4.816-9.016-6.576l10.8-36c10.723 2.195 20.56 7.504 28.28 15.264l3.272 3.272zm11.768 11.768 20.488-36.888 32.56 32.56-28.688 28.688zm137.336 239.384c-9.37 9.376-24.566 9.38-33.941.011-.004-.004-.007-.007-.011-.011l-94.968-94.968 24.6-9.6c.394.948.967 1.812 1.688 2.544l52.688 52.688c5.756 5.722 8.985 13.508 8.968 21.624 0 4.418 3.582 8 8 8s8-3.582 8-8c.036-12.373-4.881-24.245-13.656-32.968l-50.04-50.04 29.736-11.64 90.648 90.648zm97.368-73.368-40 40-2.344 2.344-106.344-106.344c-1.5-1.5-3.534-2.344-5.656-2.344-.997-.003-1.985.185-2.912.552l-87.128 34.096-26.648-26.648 66.344-66.344 40-40 2.344-2.344 18.344 18.344c1.5 1.5 3.534 2.344 5.656 2.344h64v64c0 2.122.844 4.156 2.344 5.656l74.344 74.344z"/></svg>