<svg enable-background="new 0 0 464 464" fill="#0bcc95" viewBox="0 0 464 464" xmlns="http://www.w3.org/2000/svg"><path d="m384.8 33.6c-1.385-1.039-3.069-1.6-4.8-1.6h-8l14.4-19.2c2.651-3.535 1.935-8.549-1.6-11.2s-8.549-1.935-11.2 1.6l-24 32c-2.651 3.535-1.935 8.549 1.6 11.2 1.385 1.039 3.069 1.6 4.8 1.6h8l-14.4 19.2c-2.655 3.532-1.945 8.547 1.587 11.202s8.547 1.944 11.202-1.587c.004-.005.007-.01.011-.015l24-32c2.651-3.534 1.935-8.549-1.6-11.2z"/><path d="m404 296h-16c-18.396.01-35.892 7.959-48 21.808v-46.448c27.527-3.973 47.967-27.547 48-55.36v-64c0-4.418-3.582-8-8-8h-16v-48h-16v48h-32v-48h-16v48h-16c-4.418 0-8 3.582-8 8v64c.033 27.813 20.473 51.387 48 55.36v46.448c-12.108-13.849-29.604-21.798-48-21.808h-16c-4.418 0-8 3.582-8 8 .04 35.33 28.67 63.96 64 64h8v40c-.026 22.08-17.92 39.974-40 40h-80c-22.08-.026-39.974-17.92-40-40v-112h8c44.408 0 72-33.72 72-88 0-4.418-3.582-8-8-8-28.698.031-55.575 14.067-72 37.6v-53.6h8c44.408 0 72-33.72 72-88 0-4.418-3.582-8-8-8-28.698.031-55.575 14.067-72 37.6v-53.6h8c35.33-.04 63.96-28.67 64-64 0-4.418-3.582-8-8-8h-16c-23.298.014-44.747 12.688-56 33.088-11.253-20.399-32.702-33.073-56-33.088h-16c-4.418 0-8 3.582-8 8 .04 35.33 28.67 63.96 64 64h8v53.6c-16.425-23.533-43.302-37.569-72-37.6h-16c-4.418 0-8 3.582-8 8 .057 48.577 39.423 87.943 88 88h8v53.6c-16.425-23.533-43.302-37.569-72-37.6h-16c-4.418 0-8 3.582-8 8 .057 48.577 39.423 87.943 88 88h8v112c.035 30.913 25.087 55.965 56 56h80c30.913-.035 55.965-25.087 56-56v-40h8c35.33-.04 63.96-28.67 64-64 0-4.418-3.581-8-8-8zm-88 56c-23.413-.029-43.401-16.92-47.336-40h7.336c23.413.029 43.401 16.92 47.336 40zm-88.312-135.52c-1.592 22.008-10.592 63.52-55.688 63.52h-7.56c3.775-33.291 29.974-59.602 63.248-63.52zm0-112c-1.592 22.008-10.592 63.52-55.688 63.52h-7.56c3.775-33.291 29.974-59.602 63.248-63.52zm-15.688-88.48h7.336c-3.935 23.08-23.923 39.971-47.336 40h-7.336c3.935-23.08 23.923-39.97 47.336-40zm-72 40c-23.413-.029-43.401-16.92-47.336-40h7.336c23.413.029 43.401 16.92 47.336 40zm0 112c-36.653-.044-67.44-27.579-71.56-64h7.56c36.653.044 67.44 27.579 71.56 64zm0 112c-36.653-.044-67.44-27.579-71.56-64h7.56c36.653.044 67.44 27.579 71.56 64zm192-24c-22.091 0-40-17.909-40-40v-56h80v56c0 22.092-17.908 40-40 40zm16 96h-7.336c3.935-23.08 23.923-39.971 47.336-40h7.336c-3.934 23.081-23.922 39.971-47.336 40z"/></svg>