<svg enable-background="new 0 0 480 480" viewBox="0 0 480 480" xmlns="http://www.w3.org/2000/svg"><path d="m442.971 192.571c-.945-.377-1.953-.571-2.971-.571h-32v-32c0-4.418-3.582-8-8-8h-56c-2.122 0-4.156.844-5.656 2.344l-32 32c-1.5 1.5-2.344 3.534-2.344 5.656v56c0 4.418 3.582 8 8 8h40v80c0 4.418 3.582 8 8 8h40c3.047.017 5.838-1.699 7.2-4.424l24-48c.54-1.114.814-2.338.8-3.576v-46.464l15.432-38.568c1.64-4.103-.358-8.758-4.461-10.397zm-26.403 44.461c-.376.944-.569 1.952-.568 2.968v46.112l-20.944 41.888h-27.056v-80c0-4.418-3.582-8-8-8h-40v-44.688l27.312-27.312h44.688v32c0 4.418 3.582 8 8 8h28.184z"/><path d="m240 0c-28.236-.039-56.256 4.926-82.76 14.664-13.169 4.864-25.878 10.894-37.976 18.016-4.214-21.685-25.211-35.848-46.896-31.633-18.683 3.631-32.219 19.922-32.368 38.953v67.68c-18.314 27.453-30.7 58.425-36.368 90.936-2.394 13.665-3.609 27.511-3.632 41.384-.055 35.873 8.025 71.292 23.632 103.592-15.005 14.831-23.505 35.015-23.632 56.112.091 43.244 34.323 78.694 77.536 80.296h2.456c21.241.008 41.603-8.478 56.552-23.568 32.264 15.565 67.634 23.623 103.456 23.568 132.548 0 240-107.452 240-240s-107.451-240-240-240zm72 27.936c45.204 15.452 84.315 44.896 111.664 84.064h-60.352l-51.312-51.312zm-192 23.032c10.194-6.515 20.895-12.2 32-17v46.032c0 4.418 3.582 8 8 8h52l44 58.664v29.336h-64c-4.418 0-8 3.582-8 8v58.208l-44-25.152c-1.218-.697-2.597-1.061-4-1.056h-16zm104 269.032h-24v-56h72v62.112l-20.944 41.888h-19.056v-40c0-4.418-3.581-8-8-8zm-184-180.704v52.704h-18.776c3.99-18.296 10.299-36.007 18.776-52.704zm-24 100.704c.013-10.709.794-21.403 2.336-32h21.664v122.824c-1.248.72-2.488 1.504-3.712 2.32-13.445-29.207-20.368-60.991-20.288-93.144zm121.098 188.619c-11.129 22.287-34.18 36.091-59.082 35.382-35.374-1.342-62.962-31.106-61.62-66.48.884-23.302 14.354-44.286 35.172-54.792 2.728-1.36 4.447-4.152 4.432-7.2v-295.529c0-13.255 10.745-24 24-24s24 10.745 24 24v8h-24v16h24v32h-24v16h24v32h-16v-16h-16v232.8c-21.645 4.418-35.61 25.547-31.192 47.192s25.547 35.61 47.192 31.192 35.61-25.547 31.192-47.192c-3.206-15.709-15.483-27.985-31.192-31.192v-56.8h16v31.568c-.015 3.048 1.704 5.84 4.432 7.2 31.623 15.791 44.457 54.228 28.666 85.851zm-49.098-188.619v-32h16v32zm16 16v32h-16v-32zm-16-64v-32h16v32zm-8 184c13.255 0 24 10.745 24 24s-10.745 24-24 24-24-10.745-24-24 10.746-24 24-24zm272.334 57.867c-34.135 19.767-72.888 30.162-112.334 30.133-32.114.079-63.861-6.827-93.04-20.24.216-.328.36-.688.568-1.016 1.831-2.865 3.482-5.842 4.944-8.912.112-.256.208-.52.32-.8 1.331-2.938 2.482-5.954 3.448-9.032.184-.584.384-1.16.56-1.752.927-3.215 1.651-6.486 2.168-9.792.104-.664.184-1.336.272-2.008 4.503-32.088-11.055-63.671-39.24-79.656v-98.792h13.872l50.128 28.64v67.36c0 4.418 3.582 8 8 8h24v40c0 4.418 3.582 8 8 8h32c3.047.017 5.838-1.699 7.2-4.424l24-48c.54-1.114.814-2.338.8-3.576v-72c0-4.418-3.582-8-8-8h-80v-56h64c4.418 0 8-3.582 8-8v-40c0-1.731-.561-3.415-1.6-4.8l-48-64c-1.511-2.014-3.882-3.2-6.4-3.2h-48v-44.168c41.305-13.955 85.776-15.604 128-4.744v40.912c0 2.122.844 4.156 2.344 5.656l56 56c1.5 1.5 3.534 2.344 5.656 2.344h73.864c61.949 106.977 25.447 243.918-81.53 305.867z"/></svg>