<svg enable-background="new 0 0 480.089 480.089" viewBox="0 0 480.089 480.089" xmlns="http://www.w3.org/2000/svg"><path d="m384.044 143.291c-.392-79.528-65.18-143.681-144.708-143.289s-143.681 65.179-143.289 144.707c.203 41.213 18.055 80.364 49.036 107.542-1.173 2.102-1.338 4.62-.448 6.856l88 216c1.668 4.091 6.337 6.056 10.428 4.388 1.993-.813 3.575-2.394 4.388-4.388l88-216c.89-2.236.725-4.754-.448-6.856 31.145-27.32 49.013-66.731 49.04-108.16 0-.248 0-.488-.04-.736zm-27.312 8.8-32 32h-12.688v-40c-.003-1.58-.47-3.124-1.344-4.44l.04-.032-12.36-18.544 24.976-24.984h20.688v48c0 4.418 3.582 8 8 8zm-92.688-133.664c16.828 3.187 32.838 9.739 47.072 19.264l-35.072 35.088-12-12zm-80 10.744v26.92c0 4.418 3.582 8 8 8h19.72l12.28 18.4v5.6h-40c-4.418 0-8 3.582-8 8v24l-16-12v-20c0-4.418-3.582-8-8-8h-22.68c12.79-22.007 31.819-39.727 54.68-50.92zm16 130.92h-8v-16h32v48h-16v-24c0-4.418-3.582-8-8-8zm-16 153.344-20.104-49.344h20.104zm56 137.456-45.096-110.696c1.095.703 2.246 1.316 3.44 1.832.336.152.688.264 1.032.392 1.002.393 2.032.714 3.08.96.408.096.8.2 1.208.272 1.429.281 2.88.428 4.336.44 13.255 0 24-10.745 24-24v-8c0-4.418 3.582-8 8-8s8 3.582 8 8v32c.005 1.684.188 3.362.544 5.008 0 .12.08.216.104.336 1.451 6.257 5.35 11.672 10.824 15.032.216.136.448.232.672.36 1.084.622 2.215 1.157 3.384 1.6.56.224 1.152.368 1.728.544.886.274 1.786.498 2.696.672.8.136 1.6.184 2.4.24.544.04 1.064.168 1.6.168.304 0 .584-.08.88-.088s.576.048.88 0zm56-137.456v-49.344h20.104zm18.544-65.344h-82.544c-4.418 0-8 3.582-8 8s3.582 8 8 8h48v80c0 4.418-3.582 8-8 8s-8-3.582-8-8v-32c0-13.255-10.745-24-24-24s-24 10.745-24 24v8c0 4.418-3.582 8-8 8s-8-3.582-8-8v-64c0-4.418-3.582-8-8-8h-26.544c-48.095-34.365-66.301-97.257-44-152h22.544v16c0 2.518 1.186 4.889 3.2 6.4l28.8 21.6v28c0 4.418 3.582 8 8 8h8v24c0 4.418 3.582 8 8 8h32c4.418 0 8-3.582 8-8v-64c0-4.418-3.582-8-8-8h-40v-24h40c4.418 0 8-3.582 8-8v-16c-.003-1.58-.47-3.124-1.344-4.44l-16-24c-1.484-2.225-3.982-3.56-6.656-3.56h-16v-25.512c12.901-4.284 26.406-6.475 40-6.488 2.704 0 5.344.24 8 .408v47.592c0 2.122.844 4.156 2.344 5.656l20 20c3.124 3.123 8.188 3.123 11.312 0l42.168-42.168c10.676 9.29 19.749 20.274 26.856 32.512h-30.68c-2.122 0-4.156.844-5.656 2.344l-32 32c-2.697 2.697-3.116 6.923-1 10.096l14.656 21.96v45.6c0 4.418 3.582 8 8 8h24c2.122 0 4.156-.844 5.656-2.344l32.544-32.544c-5.602 33.365-24.171 63.161-51.656 82.888zm45.456-112v-36.12c4.278 11.606 6.836 23.774 7.592 36.12z"/></svg>