<svg enable-background="new 0 0 480 480" viewBox="0 0 480 480" xmlns="http://www.w3.org/2000/svg"><path d="m438.248 115-32-40c-2.761-3.449-7.796-4.007-11.245-1.246-.23.184-.451.382-.659.59l-5.24 5.24-22.856-28.584c-1.519-1.897-3.818-3.001-6.248-3h-32v-8c-.026-22.08-17.92-39.974-40-40h-176c-22.08.026-39.974 17.92-40 40v376h-24c-4.418 0-8 3.582-8 8v48c0 4.418 3.582 8 8 8h304c4.418 0 8-3.582 8-8v-48c0-4.418-3.582-8-8-8h-24v-176c13.255 0 24 10.745 24 24v116c0 19.882 16.118 36 36 36s36-16.118 36-36v-188h8c4.418 0 8-3.582 8-8v-64c.001-1.817-.617-3.581-1.752-5zm-350.248-75c0-13.255 10.745-24 24-24h176c13.255 0 24 10.745 24 24v376h-224zm256 392v32h-288v-32zm64-52c0 11.046-8.954 20-20 20s-20-8.954-20-20v-116c-.026-22.08-17.92-39.974-40-40v-160h28.16l21.6 26.96-7.384 7.384-13.52 13.52c-8.818 8.89-9.363 23.05-1.256 32.592l38.4 44.752.072-.064c1.464 1.772 3.63 2.815 5.928 2.856h8zm-16-241.336v23.736l-24.288-28.328c-2.724-3.177-2.539-7.917.424-10.872l7-7zm32 37.336h-16v-40c0-1.731-.561-3.415-1.6-4.8l-19.84-26.448 12.8-12.8 24.64 30.856z"/><path d="m280 48h-160c-4.418 0-8 3.582-8 8v96c0 4.418 3.582 8 8 8h160c4.418 0 8-3.582 8-8v-96c0-4.418-3.582-8-8-8zm-8 96h-144v-80h144z"/><path d="m240 112h16v16h-16z"/><path d="m208 112h16v16h-16z"/><path d="m176 112h16v16h-16z"/><path d="m288 192h-48c-57.41.066-103.934 46.59-104 104v44.688l-21.656 21.656c-3.178 3.069-3.266 8.134-.196 11.312 3.069 3.178 8.134 3.266 11.312.196.067-.064.132-.13.196-.196l21.656-21.656h44.688c57.41-.066 103.934-46.59 104-104v-48c0-4.418-3.582-8-8-8zm-8 56c-.057 48.577-39.423 87.943-88 88h-28.688l98.344-98.344c3.07-3.178 2.982-8.242-.196-11.312-3.1-2.994-8.015-2.994-11.116 0l-98.344 98.344v-28.688c.057-48.577 39.423-87.943 88-88h40z"/></svg>