<svg enable-background="new 0 0 464.008 464.008" viewBox="0 0 464.008 464.008" xmlns="http://www.w3.org/2000/svg"><path d="m463.088 268.284-80-152c-1.375-2.64-4.103-4.298-7.08-4.304h-48v-16h-16v16h-32v-16h-16v16h-32v-16h-16v16h-32v-16h-16v16h-32c-4.418 0-8 3.582-8 8v56h-56c-2.122 0-4.156.844-5.656 2.344l-64 64-.048.056c-.627.659-1.138 1.419-1.512 2.248-.101.246-.189.497-.264.752-.239.684-.385 1.397-.432 2.12 0 .176-.096.32-.096.488v79.992c0 4.418 3.582 8 8 8h24.808c4.396 21.65 25.51 35.636 47.16 31.24 15.741-3.196 28.044-15.499 31.24-31.24h121.6c4.341 21.584 25.357 35.562 46.942 31.221 9.73-1.957 18.38-7.473 24.258-15.469 13.041 17.739 37.992 21.547 55.731 8.506 7.996-5.879 13.512-14.529 15.469-24.258h48.8c2.864.006 5.512-1.52 6.944-4l32-56c1.358-2.374 1.409-5.276.136-7.696zm-387.768-76.304h4.688v48h-52.688zm-3.312 160c-13.255 0-24-10.745-24-24s10.745-24 24-24 24 10.745 24 24-10.745 24-24 24zm56-32h-16.8c0-.144-.096-.272-.128-.416-.494-2.278-1.187-4.508-2.072-6.664-.312-.8-.736-1.472-1.096-2.216-.686-1.458-1.458-2.873-2.312-4.24-.512-.8-1.096-1.528-1.656-2.28-.882-1.194-1.827-2.339-2.832-3.432-.672-.712-1.368-1.376-2.088-2.04-1.07-.993-2.198-1.922-3.376-2.784-.8-.584-1.6-1.144-2.4-1.672-1.28-.788-2.602-1.506-3.96-2.152-.848-.408-1.672-.8-2.552-1.192-1.567-.594-3.17-1.089-4.8-1.48-.8-.208-1.552-.48-2.36-.64-5.015-1.024-10.185-1.024-15.2 0-.8.16-1.6.432-2.36.64-1.63.391-3.233.885-4.8 1.48-.88.352-1.704.8-2.552 1.192-1.358.646-2.68 1.364-3.96 2.152-.8.528-1.6 1.088-2.4 1.672-1.178.862-2.306 1.791-3.376 2.784-.72.664-1.416 1.328-2.088 2.04-1.005 1.093-1.95 2.238-2.832 3.432-.56.752-1.144 1.48-1.656 2.28-.854 1.367-1.626 2.782-2.312 4.24-.36.744-.8 1.448-1.096 2.216-.885 2.156-1.578 4.386-2.072 6.664 0 .144-.096.272-.128.416h-16.736v-64h72c4.418 0 8-3.582 8-8v-56h32zm272-137.224 21.696 41.224h-41.04l-10.904-40h30.248zm-28.8-54.776 21.056 40h-26.872l-10.904-40zm-132 177.216c-.264.416-.44.648-.656.976-1.233 1.893-2.304 3.887-3.2 5.96-.128.296-.232.592-.352.888-.913 2.206-1.622 4.49-2.12 6.824v.112h-88.872v-15.976h96c-.296.392-.536.8-.8 1.216zm32.8 46.784c-13.255 0-24-10.745-24-24s10.745-24 24-24 24 10.745 24 24-10.745 24-24 24zm64 0c-13.255 0-24-10.745-24-24s10.745-24 24-24 24 10.745 24 24-10.745 24-24 24zm-192-64v-160h193.888l8.728 32 34.904 128zm240 32h-8.8v-.112c-.498-2.334-1.207-4.618-2.12-6.824-.12-.296-.224-.592-.352-.888-.896-2.073-1.967-4.067-3.2-5.96-.216-.328-.432-.656-.656-.976s-.52-.8-.8-1.216h16zm35.36 0h-19.36v-16h28.504zm18.28-32h-39.528l-13.088-48h45.096l16.752 31.84z"/><path d="m284.013 160.02c-4.142-.57-8.023 2.146-8.909 6.231v.096l-12.432-18.784c-1.48-2.236-3.982-3.582-6.664-3.584-2.715-.158-5.291 1.217-6.672 3.56l-24 36c-2.452 3.675-1.461 8.643 2.215 11.095 1.32.88 2.871 1.349 4.457 1.345 2.677.003 5.178-1.333 6.664-3.56l17.336-25.976 16.8 25.448c2.442 3.682 7.407 4.687 11.089 2.245 1.824-1.21 3.073-3.114 3.455-5.269l3.496-19.832c.602-4.376-2.458-8.413-6.835-9.015z"/><path d="m240.008 239.98h-33.056l15.712-23.56c.874-1.316 1.341-2.86 1.344-4.44-.011-2.428-1.105-4.725-2.984-6.264-3.12-2.544-4.68-2.96-25.968 1.432-4.291 1.055-6.914 5.388-5.859 9.678.996 4.053 4.94 6.659 9.059 5.986l1.024-.208-13.96 20.936c-2.452 3.675-1.461 8.643 2.215 11.095 1.324.883 2.882 1.352 4.473 1.345h48c4.418 0 8-3.582 8-8s-3.582-8-8-8z"/><path d="m326.592 243.436-24.496-35.504c-2.512-3.638-7.498-4.552-11.136-2.04s-4.552 7.498-2.04 11.136l15.888 22.952h-32.8c-4.418-.017-8.014 3.551-8.031 7.969-.008 2.105.813 4.128 2.287 5.631l10.664 11c3.055 3.192 8.119 3.304 11.311.249 2.387-2.284 3.124-5.799 1.857-8.849h29.912c4.418 0 8-3.582 8-8 0-1.623-.494-3.208-1.416-4.544z"/><path d="m64.008 319.98h16v16h-16z"/><path d="m264.008 319.98h16v16h-16z"/><path d="m328.008 319.98h16v16h-16z"/></svg>