<svg enable-background="new 0 0 480 480" fill="#0bcc95" viewBox="0 0 480 480" xmlns="http://www.w3.org/2000/svg"><path d="m399.235 450.28c-.233-.979-.533-1.941-.896-2.88-.176-.456-.352-.904-.552-1.344-.434-.931-.925-1.834-1.472-2.704-.208-.328-.384-.68-.608-1-.798-1.139-1.689-2.209-2.664-3.2-.168-.168-.36-.296-.528-.464-.846-.809-1.75-1.555-2.704-2.232-.368-.264-.752-.488-1.136-.728-.844-.529-1.72-1.005-2.624-1.424-.416-.192-.8-.384-1.248-.56-.272-.104-.52-.256-.8-.352v-170.76c.28-.096.528-.248.8-.36.432-.168.8-.36 1.248-.552.906-.421 1.784-.896 2.632-1.424.376-.24.76-.464 1.128-.728.954-.677 1.858-1.423 2.704-2.232.168-.168.36-.296.528-.464.975-.991 1.866-2.061 2.664-3.2.216-.32.4-.664.608-1 .549-.871 1.04-1.777 1.472-2.712.2-.44.376-.88.552-1.336.363-.939.663-1.901.896-2.88.112-.44.24-.864.32-1.312.595-2.903.595-5.897 0-8.8-.08-.448-.208-.872-.32-1.312-.233-.979-.533-1.941-.896-2.88-.176-.456-.352-.904-.552-1.344-.434-.931-.925-1.834-1.472-2.704-.208-.328-.384-.68-.608-1-.798-1.139-1.689-2.209-2.664-3.2-.168-.168-.36-.296-.528-.464-.846-.809-1.75-1.555-2.704-2.232-.368-.264-.752-.488-1.136-.728-.844-.529-1.72-1.005-2.624-1.424-.416-.192-.8-.384-1.248-.56-.272-.104-.52-.256-.8-.352v-170.8c.28-.096.528-.232.8-.36.432-.168.8-.36 1.248-.552.906-.421 1.784-.896 2.632-1.424.376-.24.76-.464 1.128-.728.954-.677 1.858-1.423 2.704-2.232.168-.168.36-.296.528-.464.975-.991 1.866-2.061 2.664-3.2.216-.32.4-.664.608-1 .548-.871 1.04-1.777 1.472-2.712.2-.44.376-.88.552-1.336.363-.939.663-1.901.896-2.88.112-.44.24-.864.32-1.312.289-1.46.439-2.944.448-4.432 0-13.255-10.745-24-24-24h-272c-13.255 0-24 10.745-24 24 .01 1.48.16 2.956.448 4.408.08.448.208.872.312 1.312.243.98.545 1.944.904 2.888.176.448.352.888.552 1.328.432.935.923 1.841 1.472 2.712.208.336.392.68.608 1 .798 1.139 1.689 2.209 2.664 3.2.168.168.36.296.528.464.846.809 1.75 1.555 2.704 2.232.368.264.752.488 1.128.728.847.53 1.726 1.009 2.632 1.432.416.192.8.376 1.24.544.28.112.528.264.8.36v170.76c-.28.096-.528.248-.8.352-.424.176-.8.368-1.248.56-.906.421-1.784.896-2.632 1.424-.376.24-.76.464-1.128.728-.954.677-1.858 1.423-2.704 2.232-.168.168-.36.296-.528.464-.975.991-1.866 2.061-2.664 3.2-.216.32-.4.664-.608 1-.549.871-1.04 1.777-1.472 2.712-.2.44-.376.88-.552 1.328-.36.943-.659 1.907-.896 2.888-.112.44-.24.864-.32 1.312-.595 2.903-.595 5.897 0 8.8.08.448.208.872.312 1.312.243.98.545 1.944.904 2.888.176.448.352.888.552 1.328.432.935.923 1.841 1.472 2.712.208.336.392.68.608 1 .798 1.139 1.689 2.209 2.664 3.2.168.168.36.296.528.464.846.809 1.75 1.555 2.704 2.232.368.264.752.488 1.128.728.847.53 1.726 1.009 2.632 1.432.416.192.8.376 1.24.544.28.112.528.264.8.36v170.8c-.28.096-.528.248-.8.352-.424.176-.8.368-1.248.56-.906.421-1.784.896-2.632 1.424-.376.24-.76.464-1.128.728-.954.677-1.858 1.423-2.704 2.232-.168.168-.36.296-.528.464-.975.991-1.866 2.061-2.664 3.2-.216.32-.4.664-.608 1-.549.871-1.04 1.777-1.472 2.712-.2.44-.376.88-.552 1.328-.36.943-.659 1.907-.896 2.888-.112.44-.24.864-.32 1.312-.284 1.46-.428 2.944-.432 4.432 0 13.255 10.745 24 24 24h272c13.255 0 24-10.745 24-24-.01-1.48-.16-2.956-.448-4.408-.08-.448-.208-.872-.32-1.312zm-23.232 13.72h-272c-4.418 0-8-3.582-8-8s3.582-8 8-8h272c4.418 0 8 3.582 8 8s-3.582 8-8 8zm0-216h-48v16h40v168h-256v-168h40v-16h-48c-4.418 0-8-3.582-8-8s3.582-8 8-8h53.6v-16h-45.6v-168h120v32c0 13.255 10.745 24 24 24s24-10.745 24-24v-8c0-4.418 3.582-8 8-8s8 3.582 8 8v40c0 13.255 10.745 24 24 24s24-10.745 24-24v-64h24v168h-28.496v16h36.496c4.418 0 8 3.582 8 8s-3.582 8-8 8zm-88-200c-13.255 0-24 10.745-24 24v8c0 4.418-3.582 8-8 8s-8-3.582-8-8v-32h40 40v64c0 4.418-3.582 8-8 8s-8-3.582-8-8v-40c0-13.255-10.745-24-24-24zm88-16h-272c-4.418 0-8-3.582-8-8s3.582-8 8-8h272c4.418 0 8 3.582 8 8s-3.582 8-8 8z"/><path d="m320.003 152h-48c-57.374.154-103.846 46.626-104 104v44.688l-13.656 13.656c-3.178 3.069-3.266 8.134-.196 11.312 3.069 3.178 8.134 3.266 11.312.196.067-.064.132-.13.196-.196l13.656-13.656h44.688c37.103-.106 71.36-19.904 89.976-52 9.068-15.839 13.898-33.749 14.024-52v-48c0-4.418-3.582-8-8-8zm-8 56c-.114 48.554-39.446 87.886-88 88h-28.688l98.344-98.344c3.07-3.178 2.982-8.242-.196-11.312-3.1-2.994-8.015-2.994-11.116 0l-98.344 98.344v-28.688c.167-48.532 39.468-87.833 88-88h40z"/></svg>