<svg enable-background="new 0 0 480 480" viewBox="0 0 480 480" xmlns="http://www.w3.org/2000/svg"><path d="m460.056 209.104c-2.442-1.434-5.46-1.471-7.936-.096l-22.016 12.232-6.104-213.464c-.121-4.331-3.668-7.778-8-7.776h-56c-4.332-.002-7.879 3.445-8 7.776l-7.456 261.024-24.544 13.6v-66.4c-.002-4.418-3.586-7.998-8.004-7.996-1.356.001-2.69.346-3.876 1.004l-132.12 73.392v-66.4c-.002-4.418-3.586-7.998-8.004-7.996-1.356.001-2.69.346-3.876 1.004l-144 80c-2.541 1.409-4.119 4.086-4.12 6.992v176c0 4.418 3.582 8 8 8h432c4.418 0 8-3.582 8-8v-256c0-2.835-1.5-5.459-3.944-6.896zm-92.28-193.104h40.448l.464 16h-41.368zm-.92 32h42.288l5.2 181.992-53.544 29.736zm-134.856 416h-48v-40h48zm64 0h-48v-40h48zm152 0h-136v-48c0-4.418-3.582-8-8-8h-128c-4.418 0-8 3.582-8 8v48h-136v-163.288l128-71.112v66.4c.002 4.418 3.586 7.998 8.004 7.996 1.356-.001 2.69-.346 3.876-1.004l132.12-73.392v66.4c.002 4.418 3.586 7.998 8.004 7.996 1.356-.001 2.69-.346 3.876-1.004l75.448-41.912 35.072-19.48 21.6-12z"/><path d="m128 320h-64c-4.418 0-8 3.582-8 8v32c0 4.418 3.582 8 8 8h64c4.418 0 8-3.582 8-8v-32c0-4.418-3.582-8-8-8zm-8 32h-48v-16h48z"/><path d="m272 320h-64c-4.418 0-8 3.582-8 8v32c0 4.418 3.582 8 8 8h64c4.418 0 8-3.582 8-8v-32c0-4.418-3.582-8-8-8zm-8 32h-48v-16h48z"/><path d="m416 320h-64c-4.418 0-8 3.582-8 8v32c0 4.418 3.582 8 8 8h64c4.418 0 8-3.582 8-8v-32c0-4.418-3.582-8-8-8zm-8 32h-48v-16h48z"/></svg>