<svg enable-background="new 0 0 480 480" viewBox="0 0 480 480" xmlns="http://www.w3.org/2000/svg"><path d="m280 48h-160c-4.418 0-8 3.582-8 8v96c0 4.418 3.582 8 8 8h160c4.418 0 8-3.582 8-8v-96c0-4.418-3.582-8-8-8zm-8 96h-144v-80h144z"/><path d="m240 112h16v16h-16z"/><path d="m208 112h16v16h-16z"/><path d="m176 112h16v16h-16z"/><path d="m256 272h-29.688l36.736-68.208c2.097-3.889.645-8.741-3.243-10.839-2.689-1.45-5.968-1.243-8.453.535l-112 80c-3.596 2.566-4.432 7.562-1.865 11.159 1.502 2.104 3.928 3.354 6.513 3.353h29.688l-36.736 68.208c-2.097 3.889-.645 8.741 3.243 10.839 2.689 1.45 5.968 1.243 8.453-.535l112-80c3.596-2.566 4.432-7.562 1.865-11.159-1.502-2.104-3.928-3.353-6.513-3.353zm-88.632 61.48 26.76-49.688c2.094-3.89.638-8.742-3.252-10.836-1.167-.628-2.471-.956-3.796-.956h-18.12l63.672-45.48-26.76 49.688c-2.094 3.89-.638 8.742 3.252 10.836 1.167.628 2.471.956 3.796.956h18.12z"/><path d="m432 40h-8v-32c0-4.418-3.582-8-8-8s-8 3.582-8 8v32h-16v-32c0-4.418-3.582-8-8-8s-8 3.582-8 8v32h-8c-4.418 0-8 3.582-8 8v48c.024 19.001 13.389 35.373 32 39.2v232.8c0 6.627-5.373 12-12 12s-12-5.373-12-12v-178.816c-.018-11.297-6.809-21.482-17.232-25.84l-22.768-8.824v-114.52c-.026-22.08-17.92-39.974-40-40h-176c-22.08.026-39.974 17.92-40 40v376h-24c-4.418 0-8 3.582-8 8v48c0 4.418 3.582 8 8 8h304c4.418 0 8-3.582 8-8v-48c0-4.418-3.582-8-8-8h-24v-244.32l16.728 6.48c4.41 1.89 7.27 6.226 7.272 11.024v178.816c0 15.464 12.536 28 28 28s28-12.536 28-28v-232.8c18.611-3.827 31.976-20.199 32-39.2v-48c0-4.418-3.582-8-8-8zm-344 0c0-13.255 10.745-24 24-24h176c13.255 0 24 10.745 24 24v376h-224zm256 392v32h-288v-32zm80-336c0 13.255-10.745 24-24 24s-24-10.745-24-24v-40h48z"/></svg>