<svg enable-background="new 0 0 480.005 480.005" viewBox="0 0 480.005 480.005" xmlns="http://www.w3.org/2000/svg"><path d="m89.241 386.347c-12.738-.904-23.796 8.69-24.7 21.428s8.69 23.796 21.428 24.7c.56.04 1.12.056 1.672.056 12.769-.005 23.116-10.359 23.112-23.128-.005-12.142-9.4-22.212-21.512-23.056zm5.498 23.516c-.001.009-.001.018-.002.027l-.032.024c-.117 1.882-.981 3.639-2.4 4.88-1.416 1.254-3.283 1.875-5.168 1.72-3.923-.263-6.891-3.657-6.627-7.581.251-3.746 3.369-6.654 7.123-6.643h.504c3.914.269 6.87 3.659 6.602 7.573z"/><path d="m345.241 386.347c-12.738-.904-23.796 8.69-24.7 21.428s8.69 23.796 21.428 24.7c.56.04 1.12.056 1.672.056 12.769-.005 23.116-10.359 23.112-23.128-.005-12.142-9.4-22.212-21.512-23.056zm5.498 23.516c-.001.009-.001.018-.002.027l-.032.024c-.117 1.882-.981 3.639-2.4 4.88-1.414 1.257-3.282 1.879-5.168 1.72-3.923-.263-6.891-3.657-6.627-7.581.251-3.746 3.369-6.654 7.123-6.643h.504c3.914.269 6.87 3.659 6.602 7.573z"/><path d="m224.001 336.011h-32c-4.418 0-8 3.582-8 8s3.582 8 8 8h32c4.418 0 8-3.582 8-8s-3.582-8-8-8z"/><path d="m52.801 49.611c-1.385-1.039-3.069-1.6-4.8-1.6h-8l14.4-19.2c2.651-3.535 1.935-8.549-1.6-11.2s-8.549-1.935-11.2 1.6l-24 32c-2.651 3.535-1.935 8.549 1.6 11.2 1.385 1.039 3.069 1.6 4.8 1.6h8l-14.4 19.2c-2.652 3.533-1.938 8.548 1.595 11.201s8.548 1.938 11.201-1.595c.001-.002.003-.004.004-.006l24-32c2.651-3.535 1.934-8.549-1.6-11.2z"/><path d="m454.055 192.009c-23.49-30.319-59.701-48.045-98.055-47.999h-196.64c-3.973-27.527-27.547-47.967-55.36-48h-48c-4.418 0-8 3.582-8 8v16h-48v16h48v32h-48v16h48v16c0 4.418 3.582 8 8 8h48c27.813-.033 51.387-20.473 55.36-48h196.64c59.549-.1 107.905 48.094 108.004 107.644.048 28.866-11.48 56.546-32.004 76.844v-16.488c0-2.122-.844-4.156-2.344-5.656l-12.16-12.16c-42.637-42.857-99.991-67.875-160.408-69.968-.357-.097-.721-.169-1.088-.216-.289.039-.575.097-.856.176-2.4-.072-4.712-.176-7.08-.176-58.691-.021-115.345 21.516-159.2 60.52l-4.856 4.32-44.096 13.232c-23.758 7.007-40.026 28.871-39.912 53.64v36.288c0 4.418 3.582 8 8 8h24.64c4.391 30.574 32.736 51.8 63.311 47.409 24.574-3.529 43.88-22.836 47.409-47.409h145.28c4.391 30.574 32.736 51.8 63.311 47.409 24.574-3.529 43.88-22.836 47.409-47.409h24.64c4.418 0 8-3.582 8-8v-42.248c54.072-41.89 63.946-119.682 22.055-173.753zm-350.054.002h-40v-80h40c22.091 0 40 17.909 40 40s-17.909 40-40 40zm-16 256c-22.091 0-40-17.909-40-40s17.909-40 40-40 40 17.909 40 40c-.027 22.08-17.92 39.973-40 40zm160-48h-104.568c-.088-.616-.24-1.208-.352-1.816-.136-.8-.264-1.528-.432-2.28-.224-1.008-.496-2-.8-2.984-.2-.712-.384-1.432-.616-2.128-.328-1.024-.72-2.024-1.104-3.024-.248-.632-.464-1.272-.736-1.888-.48-1.12-1.024-2.2-1.6-3.28-.24-.464-.448-.952-.696-1.408-.8-1.504-1.72-2.976-2.68-4.4-.24-.352-.512-.68-.8-1.024-.744-1.064-1.504-2.112-2.32-3.112-.416-.504-.864-.976-1.296-1.464-.704-.8-1.408-1.6-2.152-2.4-.496-.512-1.024-.992-1.544-1.48-.736-.688-1.472-1.376-2.24-2.032-.56-.48-1.144-.928-1.728-1.384-.8-.608-1.56-1.2-2.4-1.768-.616-.432-1.24-.848-1.88-1.256-.8-.528-1.656-1.032-2.504-1.52-.656-.376-1.328-.744-2-1.096-.872-.448-1.768-.872-2.664-1.28-.688-.312-1.376-.624-2.072-.904-.944-.384-1.904-.72-2.864-1.056-.704-.232-1.392-.488-2.104-.696-1.024-.304-2.064-.552-3.104-.8-.688-.16-1.36-.344-2.056-.48-1.168-.232-2.36-.392-3.56-.544-.592-.08-1.176-.192-1.776-.248-1.672-.144-3.504-.248-5.352-.248s-3.68.104-5.48.28c-.6.056-1.184.168-1.776.248-1.2.152-2.4.312-3.56.544-.696.136-1.368.32-2.056.48-1.04.248-2.08.496-3.104.8-.712.208-1.4.464-2.104.696-.96.336-1.92.672-2.864 1.056-.696.28-1.384.592-2.072.904-.896.408-1.792.8-2.664 1.28-.672.352-1.344.72-2 1.096-.848.488-1.688.992-2.504 1.52-.64.408-1.264.8-1.88 1.256-.8.568-1.6 1.16-2.4 1.768-.584.456-1.168.904-1.728 1.384-.8.656-1.504 1.344-2.24 2.032-.52.488-1.048.968-1.544 1.48-.744.76-1.448 1.6-2.152 2.4-.432.488-.88.96-1.296 1.464-.8 1-1.6 2.048-2.32 3.112-.248.344-.52.672-.76 1.024-.96 1.424-1.848 2.896-2.68 4.4-.248.456-.456.944-.696 1.408-.552 1.08-1.096 2.16-1.6 3.28-.272.616-.488 1.256-.736 1.888-.384 1-.8 2-1.104 3.024-.232.696-.416 1.416-.616 2.128-.272.984-.544 1.976-.8 2.984-.168.752-.296 1.52-.432 2.28-.112.608-.264 1.2-.352 1.816h-16.48v-28.32c-.082-17.69 11.536-33.307 28.504-38.312l44.68-13.4h158.816zm0-96h-138.288c39.393-31.084 88.108-47.993 138.288-48zm16-47.376c34.584 2.358 68.134 12.795 97.952 30.472l-28.168 16.904h-69.784zm80 191.376c-22.091 0-40-17.909-40-40s17.909-40 40-40 40 17.909 40 40c-.027 22.08-17.92 39.973-40 40zm72-48h-16.568c-.088-.616-.24-1.208-.352-1.816-.136-.8-.264-1.528-.432-2.28-.224-1.008-.496-2-.8-2.984-.2-.712-.384-1.432-.616-2.128-.328-1.024-.72-2.024-1.104-3.024-.248-.632-.464-1.272-.736-1.888-.48-1.12-1.024-2.2-1.6-3.28-.24-.464-.448-.952-.696-1.408-.8-1.504-1.72-2.976-2.68-4.4-.24-.352-.512-.68-.76-1.024-.744-1.064-1.504-2.112-2.32-3.112-.416-.504-.864-.976-1.296-1.464-.704-.8-1.408-1.6-2.152-2.4-.496-.512-1.024-.992-1.544-1.48-.736-.688-1.472-1.376-2.24-2.032-.56-.48-1.144-.928-1.728-1.384-.8-.608-1.6-1.2-2.4-1.768-.616-.432-1.24-.848-1.88-1.256-.8-.528-1.656-1.032-2.504-1.52-.656-.376-1.328-.744-2-1.096-.872-.448-1.768-.872-2.664-1.28-.688-.312-1.376-.624-2.072-.904-.944-.384-1.904-.72-2.864-1.056-.704-.232-1.392-.488-2.104-.696-1.024-.304-2.064-.552-3.104-.8-.688-.16-1.36-.344-2.056-.48-1.168-.232-2.36-.392-3.56-.544-.592-.08-1.176-.192-1.776-.248-1.712-.144-3.544-.248-5.392-.248s-3.68.104-5.48.28c-.6.056-1.184.168-1.776.248-1.2.152-2.4.312-3.56.544-.696.136-1.368.32-2.056.48-1.04.248-2.08.496-3.104.8-.712.208-1.4.464-2.104.696-.96.336-1.92.672-2.864 1.056-.696.28-1.384.592-2.072.904-.896.408-1.792.8-2.664 1.28-.672.352-1.344.72-2 1.096-.848.488-1.688.992-2.504 1.52-.64.408-1.264.8-1.88 1.256-.8.568-1.6 1.16-2.4 1.768-.584.456-1.168.904-1.728 1.384-.8.656-1.504 1.344-2.24 2.032-.52.488-1.048.968-1.544 1.48-.744.76-1.448 1.6-2.152 2.4-.432.488-.88.96-1.296 1.464-.8 1-1.6 2.048-2.32 3.112-.248.344-.52.672-.76 1.024-.96 1.424-1.848 2.896-2.68 4.4-.248.456-.456.944-.696 1.408-.552 1.08-1.096 2.16-1.6 3.28-.272.616-.488 1.256-.736 1.888-.384 1-.8 2-1.104 3.024-.232.696-.416 1.416-.616 2.128-.272.984-.544 1.976-.8 2.984-.168.752-.296 1.52-.432 2.28-.112.608-.264 1.2-.352 1.816h-24.48v-80.032h72c1.452 0 2.876-.396 4.12-1.144l36.728-22.056c10.461 7.377 20.275 15.631 29.336 24.672l9.816 9.84z"/></svg>