<svg enable-background="new 0 0 480.014 480.014" fill="#0bcc95" viewBox="0 0 480.014 480.014" xmlns="http://www.w3.org/2000/svg"><path d="m447.782 252.007c-6.72-.013-13.274 2.086-18.736 6l-57.032 40.728-85.704-90.728c-10.146-10.695-23.674-17.559-38.296-19.432v-72.568h32c57.41-.066 103.934-46.59 104-104 0-4.418-3.582-8-8-8h-32c-54.314.086-99.429 41.926-103.6 96.08-.136 0-.256-.08-.4-.08s-.264.072-.4.08c-4.171-54.154-49.286-95.994-103.6-96.08h-32c-4.418 0-8 3.582-8 8 .066 57.41 46.59 103.934 104 104h32v72.568c-14.622 1.873-28.15 8.737-38.296 19.432l-41.6 44h-1.6c-36.126-.162-68.629 21.922-81.784 55.568l-68.064 157.232c-1.767 4.049.083 8.765 4.132 10.532 1.013.442 2.107.67 3.212.668h144c3.445.001 6.503-2.204 7.592-5.472l14.36-43.08 154.848-15.448c1.4-.141 2.739-.649 3.88-1.472l133.96-96.792c8.377-6.07 13.344-15.783 13.36-26.128v-3.376c-.022-17.792-14.44-32.21-32.232-32.232zm-103.768-232h23.64c-4.191 45.288-42.159 79.946-87.64 80h-23.64c4.191-45.288 42.159-79.946 87.64-80zm-144 80c-45.481-.054-83.449-34.712-87.64-80h23.64c45.481.054 83.449 34.712 87.64 80zm5.336 118.944c18.074-19.144 48.246-20.012 67.391-1.937.664.627 1.31 1.273 1.937 1.937l84.216 89.168-33.44 23.888h-165.44c-4.418 0-8-3.582-8-8s3.582-8 8-8h104c17.673 0 32-14.327 32-32s-14.327-32-32-32h-89.888zm258.664 68.664c-.003 5.212-2.505 10.105-6.728 13.16l-132.208 95.488-157.864 15.784c-3.136.314-5.796 2.441-6.792 5.432l-14.176 42.528h-126.056l63.328-146.328c10.733-27.627 37.378-45.786 67.016-45.672h113.48c8.837 0 16 7.163 16 16s-7.163 16-16 16h-104c-13.255 0-24 10.745-24 24s10.745 24 24 24h168c1.667 0 3.292-.52 4.648-1.488l43-30.712 62.688-44.8c7.296-5.209 17.433-3.518 22.642 3.778 1.969 2.758 3.026 6.064 3.022 9.454z"/></svg>