<svg enable-background="new 0 0 479.997 479.997" viewBox="0 0 479.997 479.997" xmlns="http://www.w3.org/2000/svg"><path d="m477.654 2.342c-3.124-3.123-8.188-3.123-11.312 0l-45.656 45.656h-164.688c-2.122 0-4.156.844-5.656 2.344l-248 248c-3.123 3.124-3.123 8.188 0 11.312l168 168c3.124 3.123 8.188 3.123 11.312 0l248-248c1.5-1.5 2.344-3.534 2.344-5.656v-164.688l45.656-45.656c3.123-3.124 3.123-8.188 0-11.312zm-61.656 218.344-240 240-156.688-156.688 240-240h145.376l-20.536 20.536c-4.876-2.941-10.457-4.508-16.152-4.536-17.673 0-32 14.327-32 32s14.327 32 32 32 32-14.327 32-32c-.028-5.695-1.595-11.276-4.536-16.152l20.536-20.536zm-53.852-103.032c3.07 3.178 8.134 3.266 11.312.196.067-.064.132-.13.196-.196l9.744-9.744c.379 1.33.581 2.705.6 4.088 0 8.837-7.163 16-16 16s-16-7.163-16-16 7.163-16 16-16c1.383.019 2.758.221 4.088.6l-9.744 9.744c-3.178 3.07-3.265 8.134-.196 11.312z"/><path d="m299.054 176.614c-.968-.406-2.007-.615-3.056-.616h-64c-57.41.066-103.934 46.59-104 104v60.688l-13.656 13.656c-3.178 3.069-3.266 8.134-.196 11.312 3.069 3.178 8.134 3.266 11.312.196.067-.064.132-.13.196-.196l13.656-13.656h60.688c57.41-.066 103.934-46.59 104-104v-64c-.003-3.234-1.955-6.148-4.944-7.384zm-67.056 15.384h44.688l-44.688 44.688zm-16 1.528v59.2l-21.648 21.648-11.664 11.624-5.52-74.712c11.281-9.032 24.621-15.134 38.832-17.76zm-72 86.472c.005-19.345 6.426-38.142 18.256-53.448l5.496 74.4-23.752 23.736zm56 56h-44.688l48-48h74.976c-15.017 29.427-45.25 47.964-78.288 48zm88-88c-.02 8.119-1.167 16.196-3.408 24h-65.28l10.336-10.336 58.352-58.352z"/></svg>