<svg enable-background="new 0 0 479.979 479.979" viewBox="0 0 479.979 479.979" xmlns="http://www.w3.org/2000/svg"><path d="m477.044 229.794-85.064-69.6v-100.208c0-4.418-3.582-8-8-8h-64c-4.418 0-8 3.582-8 8v39.352l-67-53.6c-2.918-2.327-7.058-2.327-9.976 0l-232 184c-3.451 2.759-4.011 7.794-1.252 11.244 1.514 1.893 3.804 2.998 6.228 3.004h64v184c0 4.418 3.582 8 8 8h320c4.418 0 8-3.582 8-8v-184h64c4.418-.001 7.999-3.583 7.999-8.001-.001-2.4-1.078-4.672-2.935-6.191zm-245.064 149.728-22.768-17.072c-30.737-23.182-48.923-59.358-49.192-97.856l71.96 78.504zm0-60.104-69.976-76.344c3.236-18.519 10.65-36.056 21.68-51.28l48.296 55.192zm0-96.72-37.952-43.368c4.67-5.021 9.755-9.64 15.2-13.808l22.752-17.072zm168 5.288c-4.418 0-8 3.582-8 8v184h-144v-19.536l33.6-25.208c61.445-46.078 73.902-133.243 27.824-194.688-7.909-10.547-17.277-19.915-27.824-27.824l-36.184-27.144c-2.844-2.133-6.756-2.133-9.6 0l-36.184 27.144c-61.445 46.078-73.902 133.243-27.824 194.688 7.909 10.547 17.277 19.915 27.824 27.824l32.368 24.28v20.464h-144v-184c0-4.418-3.582-8-8-8h-49.04l209.04-165.776 75.024 60c3.46 2.748 8.492 2.172 11.24-1.288 1.116-1.404 1.727-3.143 1.736-4.936v-48h48v96c0 2.4 1.078 4.673 2.936 6.192l70.664 57.808zm-81.448 11.408c1.725 8.085 2.623 16.325 2.68 24.592-.09 38.719-18.311 75.16-49.232 98.464l-24 18v-84.616zm-70.552 35.944v-127.816l24 18c19.254 14.514 33.84 34.345 41.96 57.048z"/></svg>