<svg enable-background="new 0 0 480 480" viewBox="0 0 480 480" xmlns="http://www.w3.org/2000/svg"><path d="m207.808 400c-2.049-40.003-24.12-76.279-58.704-96.488l-55.264-61.4c-7.433-8.422-18.961-11.964-29.84-9.168v-104.944c0-17.673-14.327-32-32-32s-32 14.327-32 32v151.416c.008 12.241 3.127 24.279 9.064 34.984l70.936 127.672v29.928c0 4.418 3.582 8 8 8h112c4.418 0 8-3.582 8-8v-72zm-15.808 64h-96v-24c0-1.361-.347-2.699-1.008-3.888l-71.944-129.496c-4.614-8.324-7.039-17.683-7.048-27.2v-151.416c0-8.837 7.163-16 16-16s16 7.163 16 16v114.824c-10.01 11.633-9.78 28.902.536 40.264l65.544 72.112 11.84-10.768-65.544-72.104c-5.224-5.746-5.013-14.583.48-20.072 5.674-5.679 14.878-5.683 20.557-.008.185.185.364.374.539.568l56.104 62.336c.714.718 1.521 1.337 2.4 1.84 31.839 18.243 51.497 52.113 51.544 88.808z"/><path d="m448 96c-17.673 0-32 14.327-32 32v104.944c-2.593-.656-5.261-.973-7.936-.944-8.386.187-16.318 3.846-21.904 10.104l-55.248 61.384c-34.631 20.175-56.721 56.483-58.72 96.512h-.192v72c0 4.418 3.582 8 8 8h112c4.418 0 8-3.582 8-8v-29.944l70.056-126.976c6.507-11.065 9.94-23.667 9.944-36.504v-150.576c0-17.673-14.327-32-32-32zm16 182.576c-.012 10.057-2.719 19.928-7.84 28.584l-71.2 128.976c-.641 1.187-.971 2.516-.96 3.864v24h-96v-58.2c.098-36.838 19.923-70.801 51.952-89 .745-.423 1.418-.963 1.992-1.6l56.104-62.4c5.388-5.965 14.591-6.432 20.556-1.044s6.432 14.591 1.044 20.556l-65.568 72.104 11.84 10.784 65.544-72.096c10.326-11.365 10.555-28.645.536-40.28v-114.824c0-8.837 7.163-16 16-16s16 7.163 16 16z"/><path d="m336 200h-16c-28.698.031-55.575 14.067-72 37.6v-53.6h8c48.577-.057 87.943-39.423 88-88 0-4.418-3.582-8-8-8h-16c-28.698.031-55.575 14.067-72 37.6v-53.6h8c35.33-.04 63.96-28.67 64-64 0-4.418-3.582-8-8-8h-16c-23.298.014-44.747 12.688-56 33.088-11.253-20.4-32.702-33.074-56-33.088h-16c-4.418 0-8 3.582-8 8 .04 35.33 28.67 63.96 64 64h8v53.6c-16.425-23.533-43.302-37.569-72-37.6h-16c-4.418 0-8 3.582-8 8 .057 48.577 39.423 87.943 88 88h8v53.6c-16.425-23.533-43.302-37.569-72-37.6h-16c-4.418 0-8 3.582-8 8 .057 48.577 39.423 87.943 88 88h8v64h16v-64h8c48.577-.057 87.943-39.423 88-88 0-4.418-3.582-8-8-8zm-16-96h7.56c-4.12 36.421-34.907 63.956-71.56 64h-7.56c4.12-36.421 34.907-63.956 71.56-64zm-24-88h7.336c-3.935 23.08-23.923 39.971-47.336 40h-7.336c3.935-23.08 23.923-39.971 47.336-40zm-72 40c-23.413-.029-43.401-16.92-47.336-40h7.336c23.413.029 43.401 16.92 47.336 40zm0 112c-36.653-.044-67.44-27.579-71.56-64h7.56c36.653.044 67.44 27.579 71.56 64zm0 112c-36.653-.044-67.44-27.579-71.56-64h7.56c36.653.044 67.44 27.579 71.56 64zm32 0h-7.56c4.12-36.421 34.907-63.956 71.56-64h7.56c-4.12 36.421-34.907 63.956-71.56 64z"/></svg>