<svg enable-background="new 0 0 479.403 479.403" fill="#0bcc95" viewBox="0 0 479.403 479.403" xmlns="http://www.w3.org/2000/svg"><path d="m479.063 291.699c-4.162-49.773-45.794-88.039-95.74-88-11.51.022-22.921 2.128-33.68 6.216l-30.856-65.136 5.976-13.08c16.524 2.637 33.293-2.967 44.912-15.008 7.551-7.539 7.56-19.772.021-27.323-3.627-3.633-8.552-5.673-13.685-5.669h-67.2c-9.636-.011-17.457 7.792-17.468 17.428-.008 7.288 4.514 13.813 11.34 16.364l26.464 9.92-5.632 12.288h-161.56l9.152-38.136c1.029-4.297-1.619-8.614-5.916-9.644-.612-.147-1.239-.22-1.868-.22h-64c-22.091 0-40 17.909-40 40s17.909 40 40 40h16v-16h-16c-13.255 0-24-10.745-24-24s10.745-24 24-24h53.848l-23.328 97.216c-52.246-7.829-100.946 28.179-108.774 80.425s28.18 100.946 80.426 108.774 100.946-28.18 108.774-80.426c6.916-46.159-20.49-90.57-64.85-105.086l6.4-26.824 101.336 123.008c1.518 1.842 3.78 2.91 6.168 2.912h48.408c4.418 52.835 50.831 92.084 103.666 87.666s92.085-50.83 87.666-103.665zm-364.916-36.144c24.38 10.41 35.705 38.614 25.294 62.994-10.41 24.38-38.614 35.705-62.994 25.294-24.38-10.41-35.705-38.614-25.294-62.994 7.553-17.689 24.936-29.161 44.17-29.15 1.096 0 2.176.088 3.248.168l-11.032 45.968 15.568 3.728zm61.176 44.144c.374 44.566-35.451 80.996-80.016 81.37s-80.996-35.451-81.37-80.016c-.374-44.566 35.451-80.996 80.016-81.37 4.063-.034 8.124.239 12.146.816l-3.744 15.592c-35.267-4.032-67.125 21.289-71.157 56.555s21.289 67.125 56.555 71.157c35.267 4.032 67.125-21.289 71.157-56.555 3.337-29.19-13.544-56.926-41.003-67.373l3.752-15.648c32.094 11.217 53.609 41.474 53.664 75.472zm180.528-39.304 14.832 31.304h-34.64c2.148-12.665 9.283-23.94 19.808-31.304zm34.672 35.88.024-.008-20.24-42.736c25.508-7.217 52.038 7.611 59.255 33.119s-7.611 52.038-33.119 59.255-52.038-7.611-59.255-33.119c-.474-1.674-.856-3.372-1.145-5.087h47.28c4.418-.017 7.986-3.612 7.97-8.03-.004-1.174-.267-2.333-.77-3.394zm-41.576-50.472c-16.021 10.227-26.671 27.042-29.072 45.896h-16.144c2.561-25.047 16.764-47.426 38.336-60.408zm-60.712-143.296c-.554-.223-.916-.762-.912-1.36 0-.8.648-1.448 1.448-1.448h.008 67.2c1.829-.002 3.314 1.479 3.316 3.308.001.881-.349 1.726-.972 2.348-10.389 10.365-25.87 13.716-39.616 8.576zm-50.88 182.224-100.8-122.4 1.56-6.632h158.096zm14.376 6.968 58.336-127.888 25.12 52.952c-27.102 15.735-44.817 43.709-47.456 74.936zm158.794 83.304c-8.727 3.13-17.931 4.718-27.202 4.696-41.064-.052-75.438-31.147-79.592-72h16.144c4.391 35.112 36.415 60.017 71.528 55.626s60.017-36.415 55.626-71.528c-4.391-35.112-36.415-60.017-71.528-55.626-4.117.515-8.174 1.428-12.114 2.728l-6.872-14.504c41.589-14.914 87.395 6.71 102.309 48.299s-6.709 87.395-48.299 102.309z"/></svg>