<svg height="52" viewBox="0 0 28 26" width="56" xmlns="http://www.w3.org/2000/svg"><path d="m914.132 1077.7a1.806 1.806 0 0 0 -.724.15l-12.365-7a1.857 1.857 0 1 0 -3.711.12 1.832 1.832 0 0 0 .092.46l-6.58 3.71a1.738 1.738 0 0 0 -.978-.33 1.9 1.9 0 0 0 -1.867 1.93 1.876 1.876 0 0 0 1.408 1.82v.05l1.738 6.68a1.925 1.925 0 0 0 -.349 1.06 1.894 1.894 0 0 0 1.867 1.92c.078 0 .144-.04.218-.04l6.27 5.36a1.064 1.064 0 0 0 .161.09 1.853 1.853 0 0 0 1.751 1.32 1.8 1.8 0 0 0 1.778-2.37l10.371-11.37a1.765 1.765 0 0 0 .917.28 1.921 1.921 0 0 0 0-3.84zm-13.287 6.16a2.855 2.855 0 0 0 1.128-2.06l8.937-.82-9.18 10.06zm-7.431.73a1.714 1.714 0 0 0 -.547-.12l-1.575-6.05 5.219 2.36a2.917 2.917 0 0 0 -.112.76 2.808 2.808 0 0 0 .106.74zm18.34-5.62-10.248.94a2.821 2.821 0 0 0 -1.193-1.01l-.076-6.38.052-.03zm-13.307-.19a2.638 2.638 0 0 0 -.84.39l-5.565-2.52 6.336-3.56zm-4.047 8.24a1.881 1.881 0 0 0 .132-.67 1.6 1.6 0 0 0 -.037-.19l3.065-2.29a2.8 2.8 0 0 0 1.471.54l.888 7.19c-.029.02-.065.04-.093.06z" fill="#202b34" fill-rule="evenodd" transform="translate(-888 -1069)"/></svg>