<svg height="48" viewBox="0 0 27 24" width="54" xmlns="http://www.w3.org/2000/svg"><path d="m1358.62 1076.93 12.53 5a.91.91 0 0 0 .7 0l12.53-5a1.006 1.006 0 0 0 .62-.93.986.986 0 0 0 -.62-.93l-12.53-5a.941.941 0 0 0 -.7 0l-12.53 5a.986.986 0 0 0 -.62.93 1.006 1.006 0 0 0 .62.93zm12.88-4.86 9.85 3.93-9.85 3.93-9.85-3.93zm12.88 14.99-2.76-1.1-2.69 1.07 2.42.97-9.85 3.93-9.85-3.93 2.42-.97-2.69-1.07-2.76 1.11a.986.986 0 0 0 -.62.93 1.006 1.006 0 0 0 .62.93l12.53 5a.91.91 0 0 0 .7 0l12.53-5a1.015 1.015 0 0 0 0-1.87zm0-5.99-2.76-1.11-2.69 1.08 2.42.96-9.85 3.93-9.85-3.93 2.42-.96-2.69-1.08-2.76 1.11a.986.986 0 0 0 -.62.93 1.006 1.006 0 0 0 .62.93l12.53 5a.91.91 0 0 0 .7 0l12.53-5a1.006 1.006 0 0 0 .62-.93.986.986 0 0 0 -.62-.93z" fill="#202b34" fill-rule="evenodd" transform="translate(-1358 -1070)"/></svg>