<svg enable-background="new 0 0 479.896 479.896" fill="#fff" viewBox="0 0 479.896 479.896" xmlns="http://www.w3.org/2000/svg"><path d="m437.576 260.212-88-88c-3.128-3.128-8.184-3.128-11.312 0l-47.304 47.304-37.232 22.36h-29.784c-.896 0-1.776.184-2.608.472l-40.96-15.36-46.768-46.768c-3.128-3.128-8.184-3.128-11.312 0l-80 80c-3.136 3.128-3.136 8.184-.008 11.312l47.608 47.608 19.504 26.008c-9.128 9.376-9.08 24.416.2 33.696l12.688 12.688 24 24 24 24 12.68 12.688c4.536 4.528 10.56 7.032 16.976 7.032s12.44-2.496 16.968-7.032l7.032-7.032 23.024 23.032c4.536 4.528 10.56 7.032 16.976 7.032s12.44-2.496 16.968-7.032l1.376-1.376c4.352-4.36 6.592-10 6.888-15.712 5.936-.304 11.496-2.68 15.728-6.912l1.376-1.376c4.352-4.36 6.592-10 6.888-15.712 5.936-.304 11.496-2.68 15.728-6.912l1.376-1.376c4.352-4.36 6.592-10 6.888-15.712 5.936-.304 11.496-2.68 15.728-6.912l1.376-1.376c7.528-7.536 8.888-18.824 4.296-27.84l31.6-48.064 47.416-47.416c3.128-3.128 3.128-8.184 0-11.312zm-378.32 5.664 68.688-68.688 36.688 36.688-68.688 68.688zm61.664 101.656c-3.12-3.12-3.12-8.192 0-11.312l9.376-9.376c3.016-3.032 8.288-3.032 11.312 0l1.368 1.376c3.12 3.12 3.12 8.192 0 11.312l-15.032 15.032zm18.336 18.344 15.032-15.032c3.016-3.032 8.288-3.032 11.312 0l1.368 1.376c3.12 3.12 3.12 8.192 0 11.312l-15.024 15.032zm36.688 36.688-12.688-12.688 15.032-15.032c3.016-3.032 8.288-3.032 11.312 0l1.368 1.376c3.12 3.12 3.12 8.192 0 11.312zm39.032 8.968-9.376 9.376c-3.016 3.032-8.288 3.032-11.312 0l-7.032-7.032 15.032-15.032c3.016-3.032 8.288-3.032 11.312 0l1.368 1.376c3.12 3.12 3.12 8.192.008 11.312zm127.992-48-1.376 1.376c-3.016 3.032-8.288 3.032-11.312 0l-20.688-20.688-11.312 11.312 20.68 20.688c3.12 3.12 3.12 8.192 0 11.312l-1.376 1.376c-3.016 3.032-8.288 3.032-11.312 0l-20.688-20.688-11.312 11.312 20.68 20.688c3.12 3.12 3.12 8.192 0 11.312l-1.376 1.376c-3.016 3.032-8.288 3.032-11.312 0l-20.688-20.688-11.312 11.312 20.68 20.688c3.12 3.12 3.12 8.192 0 11.312l-1.376 1.376c-3.016 3.032-8.288 3.032-11.312 0l-25.656-25.656c1.784-7.792-.288-16.288-6.344-22.344l-1.368-1.376c-4.224-4.224-9.928-6.392-15.712-6.68-.248-5.8-2.504-11.528-6.92-15.944l-1.368-1.376c-4.224-4.224-9.928-6.392-15.712-6.68-.248-5.8-2.504-11.528-6.92-15.944l-1.368-1.376c-4.224-4.224-9.928-6.392-15.712-6.68-.248-5.8-2.504-11.528-6.92-15.944l-1.368-1.376c-8.456-8.448-22.696-8.92-31.944-1.608l-14.464-19.296 71.456-71.456 29.04 10.888-38.048 33.32c-.048.04-.08.096-.12.136-1.456 1.288-2.728 2.712-3.856 4.224-.472.632-.832 1.312-1.248 1.976-.6.96-1.184 1.912-1.656 2.92-.416.872-.736 1.76-1.056 2.664-.312.888-.584 1.784-.808 2.696-.24.968-.448 1.936-.576 2.936-.136.992-.168 1.984-.2 2.984-.024.712-.176 1.392-.144 2.112.008.224.088.432.104.656.12 1.856.392 3.696.88 5.512.128.472.36.904.512 1.376.464 1.432 1.008 2.848 1.704 4.208.304.584.68 1.12 1.024 1.68.48.792.872 1.616 1.44 2.368.264.352.6.616.88.952.504.616 1.056 1.176 1.608 1.752.848.872 1.728 1.696 2.68 2.448.392.312.688.704 1.096 1 .544.4 1.152.688 1.72 1.04.272.168.544.344.824.496 4.696 2.68 10 3.888 15.336 3.576.888-.04 1.744-.184 2.616-.312.68-.104 1.36-.208 2.04-.36 1.096-.24 2.16-.544 3.224-.912.472-.16.928-.36 1.392-.544 1.064-.44 2.12-.888 3.136-1.456.8-.44 1.544-.984 2.312-1.496.536-.376 1.12-.648 1.632-1.056l.352-.28 22.08-17.672 21.384-7.128h19.808l45.24 37.656 28.68 28.688c3.12 3.12 3.12 8.192 0 11.312zm4.776-29.16-14.144-14.152-.016.016-8.52-8.504-48-40c-1.44-1.2-3.248-1.856-5.12-1.856h-24c-.856 0-1.712.144-2.528.416l-24 8c-.896.296-1.728.752-2.472 1.336l-23.192 18.56c-2.24 1.792-4.936 2.784-7.608 2.952-.08 0-.168-.008-.248-.008-1.008.04-2-.104-2.968-.304-.4-.088-.816-.144-1.2-.272-.944-.296-1.832-.728-2.656-1.272-.384-.24-.744-.52-1.104-.8-.384-.32-.768-.648-1.104-1-.248-.256-.496-.512-.728-.792s-.424-.592-.632-.888c-1.664-2.408-2.376-5.216-2.168-7.976.016-.184.016-.376.04-.56.168-1.36.552-2.688 1.16-3.928.08-.168.192-.328.28-.496.68-1.248 1.528-2.424 2.656-3.408l47.48-41.56h28.992c1.448 0 2.872-.392 4.12-1.144l34.64-20.784 78.976 78.976zm36.2-51.808-76.688-76.688 36.688-36.688 76.688 76.688z"/><path d="m333.6 20.22c-20.768-20.768-54.544-20.768-75.312 0l-18.344 18.344-18.344-18.344c-20.768-20.768-54.544-20.768-75.312 0s-20.768 54.544 0 75.312l88 88c1.56 1.56 3.608 2.344 5.656 2.344s4.096-.784 5.656-2.344l88-88c20.768-20.768 20.768-54.544 0-75.312zm-11.312 64-82.344 82.344-82.344-82.344c-14.52-14.52-14.52-38.168 0-52.688 7.264-7.264 16.808-10.888 26.344-10.888s19.08 3.624 26.344 10.888l24 24c3.128 3.128 8.184 3.128 11.312 0l24-24c14.52-14.528 38.168-14.528 52.688 0 14.52 14.52 14.52 38.168 0 52.688z"/><path d="m29.864 125.74c-2.656 4.8-5.184 9.76-7.512 14.752l14.496 6.768c2.168-4.648 4.528-9.28 7.008-13.752z"/><path d="m47.848 97.98c-3.296 4.392-6.488 8.96-9.472 13.576l13.432 8.688c2.784-4.296 5.76-8.552 8.832-12.656z"/><path d="m6.176 187.348c-1.248 5.352-2.328 10.816-3.192 16.256l15.8 2.528c.816-5.072 1.816-10.168 2.976-15.16z"/><path d="m15.872 155.732c-1.968 5.12-3.784 10.384-5.4 15.648l15.296 4.688c1.504-4.904 3.2-9.824 5.04-14.6z"/><path d="m39.216 341.396-14.336 7.112c2.432 4.896 5.08 9.8 7.864 14.56l13.808-8.096c-2.6-4.44-5.072-9.008-7.336-13.576z"/><path d="m94.288 51.108c-4.392 3.36-8.696 6.888-12.792 10.496l10.576 12c3.816-3.36 7.832-6.656 11.936-9.8z"/><path d="m69.472 72.956c-3.88 3.904-7.664 7.992-11.24 12.136l12.112 10.456c3.344-3.864 6.872-7.68 10.488-11.328z"/><path d="m.92 220.036c-.488 5.48-.8 11.032-.92 16.512l16 .344c.112-5.112.4-10.296.856-15.432z"/><path d="m19.72 283.004-15.736 2.904c.992 5.368 2.192 10.808 3.576 16.168l15.496-4c-1.288-4.992-2.416-10.064-3.336-15.072z"/><path d="m16.192 252.332-15.984.728c.248 5.472.688 11.016 1.32 16.496l15.896-1.832c-.592-5.12-1-10.296-1.232-15.392z"/><path d="m27.432 312.876-15.176 5.064c1.736 5.2 3.68 10.416 5.784 15.504l14.784-6.104c-1.96-4.744-3.776-9.608-5.392-14.464z"/><path d="m73.92 392.268-11.84 10.752c3.712 4.096 7.592 8.088 11.52 11.856l11.08-11.528c-3.664-3.528-7.288-7.256-10.76-11.08z"/><path d="m148.392 446.364-6.56 14.592c5.008 2.248 10.168 4.36 15.336 6.248l5.512-15.008c-4.816-1.768-9.624-3.728-14.288-5.832z"/><path d="m96.176 413.668-10.264 12.264c4.208 3.52 8.592 6.944 13.032 10.176l9.416-12.936c-4.152-3.024-8.248-6.216-12.184-9.504z"/><path d="m121.152 431.82-8.496 13.544c4.672 2.936 9.496 5.736 14.328 8.304l7.528-14.112c-4.504-2.4-8.992-5-13.36-7.736z"/><path d="m54.808 368.02-13.216 9.024c3.104 4.544 6.4 9.04 9.8 13.344l12.552-9.928c-3.168-4.016-6.248-8.192-9.136-12.44z"/><path d="m383.2 414.076c-3.96 3.288-8.064 6.48-12.2 9.472l9.376 12.968c4.432-3.2 8.832-6.616 13.064-10.144z"/><path d="m386.168 51.556-9.768 12.672c4.056 3.128 8.064 6.44 11.92 9.84l10.6-11.984c-4.12-3.648-8.408-7.184-12.752-10.528z"/><path d="m405.52 392.74c-3.496 3.84-7.128 7.552-10.784 11.04l11.048 11.576c3.928-3.752 7.816-7.728 11.56-11.832z"/><path d="m424.712 368.556c-2.888 4.2-5.984 8.384-9.184 12.432l12.536 9.936c3.432-4.328 6.736-8.808 9.832-13.304z"/><path d="m330.92 446.628c-4.688 2.088-9.504 4.032-14.304 5.784l5.472 15.032c5.152-1.864 10.312-3.952 15.344-6.2z"/><path d="m358.184 432.156c-4.392 2.728-8.888 5.32-13.376 7.696l7.496 14.144c4.816-2.544 9.64-5.328 14.336-8.256z"/><path d="m432.472 98.556-12.832 9.56c3.056 4.104 6.016 8.376 8.808 12.696l13.448-8.672c-2.976-4.616-6.152-9.184-9.424-13.584z"/><path d="m464.256 156.364-14.944 5.704c1.816 4.768 3.496 9.672 4.992 14.6l15.312-4.656c-1.608-5.272-3.408-10.544-5.36-15.648z"/><path d="m440.392 341.956c-2.296 4.592-4.784 9.168-7.384 13.56l13.784 8.144c2.784-4.72 5.448-9.616 7.912-14.544z"/><path d="m450.368 126.364-14.024 7.704c2.48 4.512 4.832 9.152 6.976 13.784l14.512-6.736c-2.296-4.952-4.808-9.92-7.464-14.752z"/><path d="m410.936 73.468-11.4 11.232c3.592 3.64 7.112 7.472 10.456 11.368l12.144-10.424c-3.584-4.168-7.352-8.272-11.2-12.176z"/><path d="m479.016 220.684-15.936 1.392c.448 5.104.72 10.288.816 15.416l16-.296c-.104-5.496-.4-11.056-.88-16.512z"/><path d="m473.88 188.004-15.6 3.576c1.144 4.984 2.128 10.088 2.928 15.16l15.808-2.488c-.848-5.44-1.912-10.904-3.136-16.248z"/><path d="m452.264 313.468c-1.64 4.848-3.472 9.72-5.44 14.464l14.776 6.144c2.104-5.08 4.064-10.296 5.824-15.496z"/><path d="m463.672 252.948c-.248 5.136-.68 10.312-1.272 15.4l15.888 1.856c.64-5.432 1.104-10.976 1.368-16.472z"/><path d="m460.064 283.596c-.944 5.024-2.08 10.088-3.384 15.064l15.488 4.048c1.392-5.336 2.608-10.768 3.624-16.144z"/></svg>