<svg enable-background="new -57 180.9 480 480" fill="#fff" viewBox="-57 180.9 480 480" xmlns="http://www.w3.org/2000/svg"><path d="m23 468.9c0-4.4-3.6-8-8-8h-16v-8h32c4.4 0 8-3.6 8-8v-48c0-4.4-3.6-8-8-8h-80c-4.4 0-8 3.6-8 8v48c0 4.4 3.6 8 8 8h32v8h-16c-4.4 0-8 3.6-8 8s3.6 8 8 8h48c4.4 0 8-3.6 8-8zm-64-32v-32h64v32z"/><path d="m415 388.9h-80c-4.4 0-8 3.6-8 8v48c0 4.4 3.6 8 8 8h32v8h-16c-4.4 0-8 3.6-8 8s3.6 8 8 8h48c4.4 0 8-3.6 8-8s-3.6-8-8-8h-16v-8h32c4.4 0 8-3.6 8-8v-48c0-4.4-3.6-8-8-8zm-8 48h-64v-32h64z"/><path d="m287 308.9h32v8h-16c-4.4 0-8 3.6-8 8s3.6 8 8 8h48c4.4 0 8-3.6 8-8s-3.6-8-8-8h-16v-8h32c4.4 0 8-3.6 8-8v-48c0-4.4-3.6-8-8-8h-80c-4.4 0-8 3.6-8 8v48c0 4.4 3.6 8 8 8zm8-48h64v32h-64z"/><path d="m-1 308.9h32v8h-16c-4.4 0-8 3.6-8 8s3.6 8 8 8h48c4.4 0 8-3.6 8-8s-3.6-8-8-8h-16v-8h32c4.4 0 8-3.6 8-8v-48c0-4.4-3.6-8-8-8h-80c-4.4 0-8 3.6-8 8v48c0 4.4 3.6 8 8 8zm8-48h64v32h-64z"/><path d="m79 532.9h-80c-4.4 0-8 3.6-8 8v48c0 4.4 3.6 8 8 8h32v8h-16c-4.4 0-8 3.6-8 8s3.6 8 8 8h48c4.4 0 8-3.6 8-8s-3.6-8-8-8h-16v-8h32c4.4 0 8-3.6 8-8v-48c0-4.4-3.6-8-8-8zm-8 48h-64v-32h64z"/><path d="m367 532.9h-80c-4.4 0-8 3.6-8 8v48c0 4.4 3.6 8 8 8h32v8h-16c-4.4 0-8 3.6-8 8s3.6 8 8 8h48c4.4 0 8-3.6 8-8s-3.6-8-8-8h-16v-8h32c4.4 0 8-3.6 8-8v-48c0-4.4-3.6-8-8-8zm-8 48h-64v-32h64z"/><path d="m143 244.9h32v8h-16c-4.4 0-8 3.6-8 8s3.6 8 8 8h48c4.4 0 8-3.6 8-8s-3.6-8-8-8h-16v-8h32c4.4 0 8-3.6 8-8v-48c0-4.4-3.6-8-8-8h-80c-4.4 0-8 3.6-8 8v48c0 4.4 3.6 8 8 8zm8-48h64v32h-64z"/><path d="m223 572.9h-80c-4.4 0-8 3.6-8 8v48c0 4.4 3.6 8 8 8h32v8h-16c-4.4 0-8 3.6-8 8s3.6 8 8 8h48c4.4 0 8-3.6 8-8s-3.6-8-8-8h-16v-8h32c4.4 0 8-3.6 8-8v-48c0-4.4-3.6-8-8-8zm-8 48h-64v-32h64z"/><path d="m276.7 503.2-31.8-31.8c10-12.1 16.1-27 17.7-42.6h40.4c4.4 0 8-3.6 8-8s-3.6-8-8-8h-40.4c-1.6-15.6-7.7-30.5-17.7-42.6l31.8-31.8c3.1-3.2 3-8.2-.2-11.3-3.1-3-8-3-11.1 0l-31.8 31.9c-12.1-10-27-16.1-42.6-17.7v-48.4c0-4.4-3.6-8-8-8s-8 3.6-8 8v48.5c-15.6 1.5-30.5 7.6-42.5 17.7l-31.8-31.8c-3.2-3.1-8.2-3-11.3.2-3 3.1-3 8 0 11.1l31.8 31.8c-1.6 2-3.2 4-4.6 6.1-7.3 10.9-11.7 23.4-12.9 36.5h-40.7c-4.4 0-8 3.6-8 8s3.6 8 8 8h40.6c1.2 13 5.7 25.6 12.9 36.4 1.4 2.1 3 4.1 4.6 6.1l-31.8 31.8c-3.2 3.1-3.3 8.1-.2 11.3s8.1 3.3 11.3.2l.2-.2 31.8-31.8c12.1 10 27 16.1 42.6 17.7 0 .2-.1.3-.1.5v48c0 4.4 3.6 8 8 8s8-3.6 8-8v-48c0-.1-.1-.3-.1-.4 15.7-1.6 30.5-7.7 42.7-17.7l31.8 31.8c3.2 3.1 8.2 3 11.3-.2s3.1-8.2.1-11.3zm-64.3-25.4c-9.1 4.7-19.2 7.1-29.4 7.1-35.3 0-64-28.7-64-64 0-12.7 3.8-25 10.8-35.6 6-9.1 14.3-16.4 24-21.3 31.4-16.2 70-3.8 86.2 27.6s3.9 70-27.6 86.2z"/><g fill="#fff"><path d="m222 409.4-7.9-1.6c-.4-1.1-.9-2.2-1.4-3.3l4.5-6.7c1.4-2 1.1-4.8-.6-6.5l-5-5c-1-1-2.3-1.5-3.6-1.5-1 0-2 .3-2.9.9l-6.7 4.5c-1.1-.5-2.2-1-3.3-1.4l-1.6-7.9c-.5-2.4-2.6-4.1-5.1-4.1h-7c-2.5 0-4.6 1.7-5.1 4.1l-1.6 7.9c-1.1.4-2.2.9-3.3 1.4l-6.7-4.5c-.9-.6-1.9-.9-2.9-.9-1.3 0-2.6.5-3.6 1.5l-5 5c-1.7 1.7-2 4.5-.6 6.5l4.5 6.7c-.5 1.1-1 2.2-1.4 3.3l-7.9 1.6c-2.4.5-4.1 2.6-4.1 5v7c0 2.5 1.7 4.6 4.1 5.1l7.9 1.6c.4 1.1.9 2.2 1.4 3.3l-4.5 6.7c-1.4 2-1.1 4.8.6 6.5l5 5c1 1 2.3 1.5 3.6 1.5 1 0 2-.3 2.9-.9l6.7-4.5c1.1.5 2.2 1 3.3 1.4l1.6 7.9c.5 2.4 2.6 4.1 5.1 4.1h7c2.5 0 4.6-1.7 5.1-4.1l1.6-7.9c1.1-.4 2.2-.9 3.3-1.4l6.7 4.5c.9.6 1.9.9 2.9.9 1.3 0 2.7-.5 3.6-1.5l5-5c1.7-1.7 2-4.5.6-6.5l-4.5-6.7c.5-1.1 1-2.2 1.4-3.3l7.9-1.6c2.4-.5 4.1-2.6 4.1-5.1v-7c.1-2.4-1.6-4.5-4.1-5zm-8.9 13.7c-1.8.4-3.3 1.6-3.9 3.4-.3 1-.7 1.9-1.2 2.8-.8 1.6-.7 3.6.3 5.1l4.5 6.7-5 5-6.7-4.5c-.9-.6-1.9-.9-2.9-.9-.8 0-1.5.2-2.2.5-.9.4-1.8.8-2.8 1.2-1.7.6-3 2.1-3.4 3.9l-1.6 7.9h-7l-1.6-7.9c-.4-1.8-1.6-3.3-3.4-3.9-1-.3-1.9-.7-2.8-1.2-.7-.3-1.5-.5-2.2-.5-1 0-2 .3-2.9.9l-6.3 4.4-5-5 4.5-6.7c1-1.5 1.1-3.5.4-5.1-.4-.9-.8-1.8-1.2-2.8-.6-1.7-2.1-3-3.9-3.4l-7.9-1.6v-7l7.9-1.6c1.8-.4 3.3-1.6 3.9-3.4.3-1 .7-1.9 1.2-2.8.8-1.6.7-3.6-.4-5.1l-4.5-6.5 5-5 6.7 4.5c.9.6 1.9.9 2.9.9.8 0 1.5-.2 2.2-.5.9-.4 1.8-.8 2.8-1.2 1.7-.6 3-2.1 3.4-3.9l1.6-7.9h7l1.6 7.9c.4 1.8 1.6 3.3 3.4 3.9 1 .3 1.9.7 2.8 1.2.7.3 1.5.5 2.2.5 1 0 2-.3 2.9-.9l6.7-4.5 5 5-4.5 6.7c-1 1.5-1.1 3.5-.4 5.1.4.9.8 1.8 1.2 2.8.6 1.7 2.1 3 3.9 3.4l7.9 1.6v7z"/><path d="m185 400c-10 0-18 8.1-18 18 0 10 8.1 18 18 18s18-8.1 18-18c0-10-8.1-18-18-18zm0 33.8c-8.7 0-15.8-7.1-15.8-15.8s7.1-15.8 15.8-15.8 15.8 7.1 15.8 15.8-7.1 15.8-15.8 15.8z"/><path d="m185 407.7c-5.7 0-10.3 4.6-10.3 10.3s4.6 10.3 10.3 10.3 10.3-4.6 10.3-10.3-4.6-10.3-10.3-10.3zm0 18c-4.3 0-7.7-3.5-7.7-7.7 0-4.3 3.5-7.7 7.7-7.7 4.3 0 7.7 3.5 7.7 7.7 0 4.3-3.5 7.7-7.7 7.7z"/></g></svg>