<svg enable-background="new 0 0 480 480" fill="#fff" viewBox="0 0 480 480" xmlns="http://www.w3.org/2000/svg"><path d="m184 96h-16v-72c0-13.232-10.768-24-24-24h-96c-13.232 0-24 10.768-24 24v72h-16c-4.416 0-8 3.584-8 8 0 22.056 17.944 40 40 40h112c22.056 0 40-17.944 40-40 0-4.416-3.584-8-8-8zm-144-72c0-4.408 3.592-8 8-8h96c4.408 0 8 3.592 8 8v72h-112zm112 104h-112c-10.432 0-19.328-6.688-22.632-16h14.632 128 14.632c-3.304 9.312-12.2 16-22.632 16z"/><path d="m128 32h-64c-4.416 0-8 3.584-8 8v32c0 4.416 3.584 8 8 8h64c4.416 0 8-3.584 8-8v-32c0-4.416-3.584-8-8-8zm-8 32h-48v-16h48z"/><path d="m472 96h-16v-72c0-13.232-10.768-24-24-24h-96c-13.232 0-24 10.768-24 24v72h-16c-4.416 0-8 3.584-8 8 0 22.056 17.944 40 40 40h112c22.056 0 40-17.944 40-40 0-4.416-3.584-8-8-8zm-144-72c0-4.408 3.592-8 8-8h96c4.408 0 8 3.592 8 8v72h-112zm112 104h-112c-10.432 0-19.328-6.688-22.632-16h14.632 128 14.632c-3.304 9.312-12.2 16-22.632 16z"/><path d="m416 32h-64c-4.416 0-8 3.584-8 8v32c0 4.416 3.584 8 8 8h64c4.416 0 8-3.584 8-8v-32c0-4.416-3.584-8-8-8zm-8 32h-48v-16h48z"/><path d="m184 432h-16v-72c0-13.232-10.768-24-24-24h-96c-13.232 0-24 10.768-24 24v72h-16c-4.416 0-8 3.584-8 8 0 22.056 17.944 40 40 40h112c22.056 0 40-17.944 40-40 0-4.416-3.584-8-8-8zm-144-72c0-4.408 3.592-8 8-8h96c4.408 0 8 3.592 8 8v72h-112zm112 104h-112c-10.432 0-19.328-6.688-22.632-16h14.632 128 14.632c-3.304 9.312-12.2 16-22.632 16z"/><path d="m128 368h-64c-4.416 0-8 3.584-8 8v32c0 4.416 3.584 8 8 8h64c4.416 0 8-3.584 8-8v-32c0-4.416-3.584-8-8-8zm-8 32h-48v-16h48z"/><path d="m472 432h-16v-72c0-13.232-10.768-24-24-24h-96c-13.232 0-24 10.768-24 24v72h-16c-4.416 0-8 3.584-8 8 0 22.056 17.944 40 40 40h112c22.056 0 40-17.944 40-40 0-4.416-3.584-8-8-8zm-144-72c0-4.408 3.592-8 8-8h96c4.408 0 8 3.592 8 8v72h-112zm112 104h-112c-10.432 0-19.328-6.688-22.632-16h14.632 128 14.632c-3.304 9.312-12.2 16-22.632 16z"/><path d="m416 368h-64c-4.416 0-8 3.584-8 8v32c0 4.416 3.584 8 8 8h64c4.416 0 8-3.584 8-8v-32c0-4.416-3.584-8-8-8zm-8 32h-48v-16h48z"/><path d="m351.344 228.048c-.136-1.248-.392-2.472-.568-3.712-.376-2.656-.76-5.312-1.32-7.912-.328-1.536-.784-3.04-1.176-4.56-.576-2.224-1.152-4.44-1.864-6.608-.552-1.696-1.2-3.344-1.832-5-.728-1.904-1.464-3.8-2.288-5.656-.784-1.768-1.64-3.496-2.52-5.224-.84-1.648-1.712-3.28-2.624-4.88-1.016-1.768-2.072-3.512-3.184-5.232-.952-1.472-1.96-2.904-2.976-4.32-1.216-1.696-2.44-3.384-3.752-5.016-1.112-1.384-2.304-2.696-3.48-4.024-1.36-1.536-2.688-3.08-4.136-4.552s-3.008-2.824-4.536-4.216c-1.2-1.088-2.296-2.256-3.544-3.288-.064-.048-.144-.072-.208-.12-19.384-16.056-44.248-25.728-71.336-25.728-35.688 0-67.456 16.84-87.984 42.928-.048.064-.128.08-.184.144-.552.704-1.016 1.448-1.544 2.16-1.344 1.8-2.68 3.592-3.92 5.472-.648.984-1.216 2.016-1.832 3.016-1.152 1.88-2.328 3.752-3.376 5.704-.592 1.104-1.072 2.248-1.624 3.368-1.736 3.536-3.288 7.168-4.648 10.896-.472 1.288-1.016 2.544-1.432 3.848-.008.024 0 .056-.008.08-3.504 10.848-5.448 22.384-5.448 34.384 0 3.464.208 6.888.52 10.288.088.96.208 1.904.32 2.864.312 2.64.712 5.248 1.2 7.832.152.776.272 1.568.44 2.336 1.448 6.832 3.528 13.448 6.176 19.808.128.312.272.624.4.936 8.376 19.592 22.224 36.512 40.16 48.632.192.128.392.256.584.384 2.536 1.696 5.16 3.28 7.856 4.776.576.32 1.144.648 1.728.96 2.696 1.432 5.448 2.776 8.288 4 .32.136.624.296.936.432.104.04.192.096.296.136.056.024.112.016.168.032 13.232 5.512 27.728 8.584 42.928 8.584 27.088 0 51.952-9.672 71.336-25.728.064-.048.144-.064.208-.12 1.248-1.04 2.344-2.208 3.544-3.288 1.528-1.392 3.088-2.744 4.536-4.216 1.448-1.464 2.776-3.016 4.136-4.552 1.176-1.328 2.36-2.64 3.48-4.024 1.312-1.632 2.536-3.32 3.752-5.016 1.024-1.424 2.024-2.848 2.976-4.32 1.112-1.72 2.168-3.456 3.184-5.232.92-1.6 1.784-3.232 2.624-4.88.88-1.728 1.736-3.456 2.52-5.224.824-1.856 1.56-3.744 2.288-5.656.632-1.664 1.28-3.312 1.832-5 .712-2.168 1.288-4.384 1.864-6.608.392-1.52.848-3.016 1.176-4.56.56-2.6.944-5.248 1.32-7.912.176-1.24.432-2.464.568-3.712.416-3.928.656-7.912.656-11.952s-.24-8.024-.656-11.952zm-197.544-30.032c.904-1.84 1.824-3.664 2.84-5.448.44-.776.928-1.528 1.392-2.288 1.176-1.928 2.392-3.832 3.704-5.688.144-.2.296-.392.448-.592h13.816c4.408 0 8 3.592 8 8s-3.592 8-8 8h-23.16c.312-.664.64-1.32.96-1.984zm70.2 129.984h-22.248c-.584-.256-1.144-.56-1.72-.832-2.816-1.288-5.528-2.72-8.176-4.248-1.24-.72-2.464-1.456-3.664-2.232-2.12-1.36-4.136-2.824-6.128-4.328-1.808-1.376-3.568-2.8-5.28-4.304-1.8-1.576-3.576-3.184-5.248-4.888-1.344-1.376-2.616-2.816-3.88-4.264-1.184-1.36-2.328-2.76-3.432-4.184-1.152-1.488-2.312-2.968-3.384-4.52-1.76-2.568-3.408-5.216-4.912-7.944-.768-1.392-1.432-2.84-2.128-4.272-1.08-2.208-2.104-4.448-3.008-6.744-.536-1.344-1.024-2.712-1.496-4.088-.896-2.616-1.68-5.288-2.344-7.992-.248-1.008-.56-1.984-.776-3.008-.8-3.736-1.376-7.536-1.728-11.392-.024-.256-.016-.512-.04-.768h55.592c4.408 0 8 3.592 8 8s-3.592 8-8 8c-13.232 0-24 10.768-24 24s10.768 24.008 24 24.008h24c4.408 0 8 3.592 8 8s-3.592 8-8 8zm17.832 7.912c3.792-4.248 6.168-9.784 6.168-15.912 0-13.232-10.768-24-24-24h-24c-4.408 0-8-3.592-8-8s3.592-8 8-8c13.232 0 24-10.768 24-24s-10.768-24-24-24h-55.592c.456-5.48 1.416-10.816 2.752-16h28.84c13.232 0 24-10.768 24-24 0-13.016-10.424-23.584-23.36-23.936 16.928-14.928 39.072-24.064 63.36-24.064 13.6 0 26.52 2.88 38.248 8h-14.248c-13.232 0-24 10.768-24 24s10.768 24 24 24h24c4.408 0 8 3.592 8 8s-3.592 8-8 8h-24c-13.232 0-24 10.768-24 24s10.768 24 24 24h32c4.408 0 8 3.592 8 8s-3.592 8-8 8h-8c-13.232 0-24 10.768-24 24 0 10.704 7.096 19.688 16.792 22.776-11.872 5.608-25.04 8.872-38.96 9.136zm93.632-85.848c-.104 1.024-.32 2.008-.464 3.024-.312 2.264-.624 4.536-1.088 6.76-.28 1.312-.664 2.576-1 3.864-.472 1.864-.928 3.728-1.512 5.552-.472 1.48-1.056 2.912-1.6 4.36-.584 1.552-1.144 3.12-1.808 4.64-.688 1.576-1.464 3.096-2.232 4.624-.664 1.32-1.312 2.64-2.032 3.928-.888 1.576-1.848 3.104-2.816 4.624-.744 1.168-1.496 2.336-2.296 3.48-1.048 1.496-2.152 2.952-3.28 4.384-.872 1.104-1.76 2.184-2.68 3.248-1.168 1.36-2.368 2.688-3.616 3.976-1.032 1.072-2.112 2.104-3.2 3.136-.84.792-1.696 1.568-2.568 2.336h-15.272c-4.408 0-8-3.592-8-8s3.592-8 8-8h8c13.232 0 24-10.768 24-24s-10.768-24-24-24h-32c-4.408 0-8-3.592-8-8s3.592-8 8-8h24c13.232 0 24-10.768 24-24s-10.768-24-24-24h-24c-4.408 0-8-3.592-8-8s3.592-8 8-8h39.288c.872.768 1.728 1.536 2.568 2.336 1.088 1.032 2.168 2.064 3.2 3.136 1.24 1.288 2.448 2.616 3.616 3.976.92 1.064 1.808 2.152 2.68 3.248 1.128 1.432 2.232 2.888 3.28 4.384.8 1.136 1.552 2.304 2.296 3.48.968 1.52 1.928 3.048 2.816 4.624.72 1.288 1.376 2.608 2.032 3.928.768 1.528 1.544 3.048 2.232 4.624.664 1.52 1.224 3.08 1.808 4.64.544 1.448 1.128 2.88 1.6 4.36.584 1.824 1.04 3.688 1.512 5.552.328 1.288.72 2.56 1 3.864.472 2.224.776 4.496 1.088 6.76.136 1.016.352 2 .464 3.024.336 3.328.52 6.68.52 10.064s-.184 6.736-.536 10.064z"/><path d="m184 48h16v16h-16z"/><path d="m216 48h16v16h-16z"/><path d="m248 48h16v16h-16z"/><path d="m280 48h16v16h-16z"/><path d="m384 168h16v16h-16z"/><path d="m384 200h16v16h-16z"/><path d="m384 232h16v16h-16z"/><path d="m384 264h16v16h-16z"/><path d="m384 296h16v16h-16z"/><path d="m80 168h16v16h-16z"/><path d="m80 200h16v16h-16z"/><path d="m80 232h16v16h-16z"/><path d="m80 264h16v16h-16z"/><path d="m80 296h16v16h-16z"/><path d="m184 384h16v16h-16z"/><path d="m216 384h16v16h-16z"/><path d="m248 384h16v16h-16z"/><path d="m280 384h16v16h-16z"/></svg>