<svg enable-background="new 0 0 482.451 482.451" fill="#fff" viewBox="0 0 482.451 482.451" xmlns="http://www.w3.org/2000/svg"><path d="m132.8 92.985c2.073-3.577 3.176-7.634 3.2-11.768 0-13.255-10.745-24-24-24v-8c0-4.418-3.582-8-8-8s-8 3.582-8 8v8h-8v-8c0-4.418-3.582-8-8-8s-8 3.582-8 8v8h-8c-4.418 0-8 3.582-8 8s3.582 8 8 8h8v48h-8c-4.418 0-8 3.582-8 8s3.582 8 8 8h8v8c0 4.418 3.582 8 8 8s8-3.582 8-8v-8h8v8c0 4.418 3.582 8 8 8s8-3.582 8-8v-8h8c13.228.031 23.977-10.668 24.008-23.896.019-8.257-4.217-15.942-11.208-20.336zm-44.8-19.768h24c4.418 0 8 3.582 8 8s-3.582 8-8 8h-24zm32 48h-32v-16h32c4.418 0 8 3.582 8 8s-3.582 8-8 8z"/><path d="m482.448 154.641c-.002-.327-.029-.653-.08-.976-.13-.862-.4-1.697-.8-2.472 0 0 0-.088-.048-.136l-6.808-11.784-38.464-66.624c-.492-.82-1.129-1.543-1.88-2.136-.192-.16-.4-.272-.608-.416-.604-.407-1.261-.73-1.952-.96-.152-.048-.272-.168-.424-.208l-185.44-49.68c-4.267-1.145-8.655 1.387-9.8 5.654v.002l-23.72 88.312h-21.84c.922-5.284 1.396-10.636 1.416-16-.01-53.019-42.998-95.992-96.017-95.983-15.251.003-30.282 3.639-43.847 10.607-5.869 2.95-11.393 6.54-16.472 10.704-7.75 6.245-14.467 13.672-19.904 22.008-2.114 3.265-4.058 6.638-5.824 10.104-13.248 26.824-13.248 58.288 0 85.112 1.764 3.47 3.708 6.845 5.824 10.112.048.08.432.696.488.8 14.681 21.888 37.75 36.742 63.752 41.048v281.488c0 4.418 3.582 8 8 8h256c4.418 0 8-3.582 8-8v-44.608l45.928 12.336c.676.178 1.373.269 2.072.272 3.621 0 6.79-2.431 7.728-5.928l74.56-278.16c.056-.224 0-.448 0-.68.125-.594.179-1.201.16-1.808zm-50.448-57.264 25.944 44.928-35.44-9.496zm-402.672 44.024-.008-.024c-1.822-2.803-3.499-5.697-5.024-8.672-11.078-22.382-11.078-48.65 0-71.032 1.613-3.104 3.384-6.124 5.304-9.048 4.471-6.703 9.949-12.678 16.24-17.712 4.198-3.422 8.758-6.373 13.6-8.8 39.26-20.211 87.47-4.768 107.68 34.491 9.299 18.063 11.372 38.988 5.8 58.525-.942 3.45-2.148 6.823-3.608 10.088-12.739 29.137-41.512 47.976-73.312 48-2.472 0-4.872-.152-7.272-.368-24.16-2.171-46.019-15.216-59.4-35.448zm306.672 323.816h-240v-272c38.14-.024 72.655-22.606 87.952-57.544.928-2.104 1.768-4.224 2.52-6.336l.048-.12h85.48v56c0 4.418 3.582 8 8 8h56zm-48-288v-36.688l36.688 36.688zm106.344 246.192-42.344-11.36v-16.56l23.288 6.248c.675.186 1.372.28 2.072.28 4.418.002 8.002-3.578 8.004-7.996.002-3.623-2.432-6.795-5.932-7.732l-27.432-7.368v-16.552l31.6 8.496c.679.18 1.378.271 2.08.272 4.418.006 8.005-3.57 8.012-7.988.005-3.626-2.429-6.802-5.932-7.74l-35.76-9.608v-16.584l39.856 10.664c4.27 1.144 8.66-1.39 9.804-5.66s-1.39-8.66-5.66-9.804l-44-11.736v-16.56l48.168 12.904c.676.18 1.372.271 2.072.272 4.418.002 8.002-3.578 8.004-7.996.002-3.623-2.432-6.795-5.932-7.732l-52.312-14.016v-16.544l56.408 15.136c.678.184 1.378.276 2.08.272 4.418-.019 7.985-3.615 7.966-8.034-.015-3.598-2.43-6.743-5.902-7.686l-60.552-16.256v-61.224c0-.176-.088-.328-.104-.504-.04-.701-.177-1.393-.408-2.056-.088-.256-.152-.504-.264-.752-.387-.872-.929-1.666-1.6-2.344l-64-64c-.679-.674-1.476-1.216-2.352-1.6-.235-.101-.475-.189-.72-.264-.687-.236-1.403-.379-2.128-.424-.16 0-.296-.088-.456-.088h-50.976l20.504-76.448 169.992 45.544-14.496 54.136c-1.145 4.267 1.387 8.655 5.654 9.799h.002l54.152 14.472z"/><path d="m312 401.217h-192c-4.418 0-8 3.582-8 8s3.582 8 8 8h192c4.418 0 8-3.582 8-8s-3.582-8-8-8z"/><path d="m312 369.217h-192c-4.418 0-8 3.582-8 8s3.582 8 8 8h192c4.418 0 8-3.582 8-8s-3.582-8-8-8z"/><path d="m312 337.217h-192c-4.418 0-8 3.582-8 8s3.582 8 8 8h192c4.418 0 8-3.582 8-8s-3.582-8-8-8z"/><path d="m312 305.217h-192c-4.418 0-8 3.582-8 8s3.582 8 8 8h192c4.418 0 8-3.582 8-8s-3.582-8-8-8z"/><path d="m312 273.217h-192c-4.418 0-8 3.582-8 8s3.582 8 8 8h192c4.418 0 8-3.582 8-8s-3.582-8-8-8z"/><path d="m280 225.217h-80c-4.418 0-8 3.582-8 8s3.582 8 8 8h80c4.418 0 8-3.582 8-8s-3.582-8-8-8z"/><path d="m168 225.217h-16c-4.418 0-8 3.582-8 8s3.582 8 8 8h16c4.418 0 8-3.582 8-8s-3.582-8-8-8z"/></svg>