<svg enable-background="new 0 0 56 56" fill="#fff" viewBox="0 0 56 56" xmlns="http://www.w3.org/2000/svg"><path d="m55 12h-18c-.553 0-1 .448-1 1v10 1h-17c-.553 0-1 .448-1 1v10 1h-17c-.553 0-1 .448-1 1v10 4 4c0 .552.447 1 1 1h18 18 18c.553 0 1-.448 1-1v-4-4-4-4-4-4-4-4-10c0-.552-.447-1-1-1zm-17 2h16v8h-16zm-36 34h16v2h-16zm18-4h16v2h-16zm0-4h16v2h-16zm16-2h-16v-1-1h16zm-16 10h16v2h-16zm18 0h16v2h-16zm0-4h16v2h-16zm0-4h16v2h-16zm0-4h16v2h-16zm0-4h16v2h-16zm0-4h16v2h-16zm0-3v-1h16v2h-16zm-18 1h16v1 4 3h-16zm-18 12h16v1 4 3h-16zm0 14h16v2h-16zm18 0h16v2h-16zm18 2v-2h16v2z"/><path d="m10 39c-1.654 0-3 1.346-3 3s1.346 3 3 3 3-1.346 3-3-1.346-3-3-3zm0 4c-.552 0-1-.449-1-1s.448-1 1-1 1 .449 1 1-.448 1-1 1z"/><path d="m28 27c-1.654 0-3 1.346-3 3s1.346 3 3 3 3-1.346 3-3-1.346-3-3-3zm0 4c-.552 0-1-.449-1-1s.448-1 1-1 1 .449 1 1-.448 1-1 1z"/><path d="m46 15c-1.654 0-3 1.346-3 3s1.346 3 3 3 3-1.346 3-3-1.346-3-3-3zm0 4c-.552 0-1-.449-1-1s.448-1 1-1 1 .449 1 1-.448 1-1 1z"/><path d="m19 12.414 5.293 5.293c.391.391 1.023.391 1.414 0l14.293-14.293v2.586h2v-5c0-.552-.447-1-1-1h-5v2h2.586l-13.586 13.586-5.293-5.293c-.391-.391-1.023-.391-1.414 0l-18 18 1.414 1.414z"/></svg>