<svg enable-background="new 0 0 496 496" fill="#fff" viewBox="0 0 496 496" xmlns="http://www.w3.org/2000/svg"><path d="m99.144 346.392-14.568 9.704-24.664-24.664 9.704-14.568-3.328-4.512c-16.912-22.928-28.088-49.872-32.296-77.912l-.832-5.552-17.16-3.44v-34.888l17.152-3.432.832-5.552c4.208-28.04 15.384-54.984 32.296-77.912l3.328-4.512-9.704-14.568 24.664-24.664 14.568 9.704 4.512-3.328c22.928-16.912 49.872-28.088 77.912-32.296l5.552-.832 3.44-17.168h34.888l3.432 17.152 5.552.832c28.04 4.208 54.984 15.384 77.912 32.296l4.512 3.328 14.568-9.704 24.664 24.664-9.704 14.568 3.328 4.512c16.04 21.744 26.976 47.232 31.616 73.728l15.768-2.768c-4.752-27.072-15.512-53.176-31.224-75.864l10.816-16.224-43.208-43.208-16.224 10.816c-22.448-15.544-48.12-26.192-74.872-31.04l-3.824-19.088h-61.112l-3.824 19.088c-26.76 4.84-52.432 15.496-74.872 31.04l-16.224-10.816-43.208 43.208 10.816 16.224c-15.544 22.448-26.192 48.12-31.04 74.872l-19.088 3.832v61.112l19.088 3.824c4.84 26.76 15.496 52.432 31.04 74.872l-10.816 16.224 43.208 43.208 16.224-10.816c22.688 15.712 48.8 26.48 75.864 31.224l2.768-15.768c-26.496-4.64-51.984-15.576-73.728-31.616z"/><path d="m166.072 333.208 12.144-10.424c-6.352-7.4-13.088-16.544-19.288-27.368 5.672-1.848 11.8-3.488 18.52-4.72l-2.888-15.736c-8.424 1.552-16.024 3.656-23 6.032-8.16-17.96-14.264-39.6-15.344-65h39.784v-16h-39.616c1.088-25.184 7.048-46.808 15.336-64.912 13.392 4.56 29.464 7.872 48.288 8.632v32.288h16v-32.272c18.888-.768 35.008-4.104 48.432-8.68 5.68 12.456 10.36 26.48 13.032 42.288l15.784-2.672c-2.88-17.064-7.856-32.192-13.88-45.64 15.184-7.112 25.76-15.224 31.976-20.92 18.312 18.856 31.688 42.664 37.456 69.576l15.64-3.36c-15.68-73.192-81.48-126.32-156.448-126.32-88.224 0-160 71.776-160 160 0 74.968 53.128 140.768 126.32 156.448l3.36-15.64c-23.072-4.944-43.856-15.512-61.216-29.944 5.432-4.776 14.528-11.552 27.424-17.552 7.072 12.704 14.864 23.36 22.184 31.896zm133.544-236.016c-5.384 4.808-14.44 11.576-27.4 17.576-11.912-21.44-26.152-37.456-37.848-48.248 24.256 4.576 46.64 15.312 65.248 30.672zm-83.616-25.344c11.024 9.096 27.496 25.248 41.04 48.816-11.472 3.68-25.112 6.368-41.04 7.072zm-16 .032v55.864c-15.888-.704-29.496-3.384-40.952-7.056 13.496-23.456 29.952-39.672 40.952-48.808zm-18.448-5.336c-11.72 10.8-26.016 26.744-37.912 48.16-12.976-6.024-22.016-12.824-27.368-17.616 18.456-15.288 40.8-25.976 65.28-30.544zm-76.976 41.496c6.192 5.68 16.744 13.8 31.92 20.928-8.856 19.768-15.264 43.384-16.312 71.032h-55.776c1.968-35.64 16.848-67.84 40.168-91.96zm.024 199.928c-23.472-24.384-38.264-56.832-40.248-91.968h55.856c1.08 27.696 7.64 51.336 16.48 70.968-15.288 7.144-25.864 15.304-32.088 21z"/><path d="m472 192h-256c-13.232 0-24 10.768-24 24v56h16v-56c0-4.416 3.584-8 8-8h256c4.416 0 8 3.584 8 8v56h16v-56c0-13.232-10.768-24-24-24z"/><path d="m440 464c13.232 0 24-10.768 24-24s-10.768-24-24-24-24 10.768-24 24 10.768 24 24 24zm0-32c4.416 0 8 3.584 8 8s-3.584 8-8 8-8-3.584-8-8 3.584-8 8-8z"/><path d="m376 464c13.232 0 24-10.768 24-24s-10.768-24-24-24-24 10.768-24 24 10.768 24 24 24zm0-32c4.416 0 8 3.584 8 8s-3.584 8-8 8-8-3.584-8-8 3.584-8 8-8z"/><path d="m304 416h-80v48h80zm-16 32h-48v-16h48z"/><path d="m464 344c0-13.232-10.768-24-24-24s-24 10.768-24 24 10.768 24 24 24 24-10.768 24-24zm-32 0c0-4.416 3.584-8 8-8s8 3.584 8 8-3.584 8-8 8-8-3.584-8-8z"/><path d="m400 344c0-13.232-10.768-24-24-24s-24 10.768-24 24 10.768 24 24 24 24-10.768 24-24zm-32 0c0-4.416 3.584-8 8-8s8 3.584 8 8-3.584 8-8 8-8-3.584-8-8z"/><path d="m224 320v48h80v-48zm64 32h-48v-16h48z"/><path d="m464 248c0-13.232-10.768-24-24-24s-24 10.768-24 24 10.768 24 24 24 24-10.768 24-24zm-32 0c0-4.416 3.584-8 8-8s8 3.584 8 8-3.584 8-8 8-8-3.584-8-8z"/><path d="m400 248c0-13.232-10.768-24-24-24s-24 10.768-24 24 10.768 24 24 24 24-10.768 24-24zm-32 0c0-4.416 3.584-8 8-8s8 3.584 8 8-3.584 8-8 8-8-3.584-8-8z"/><path d="m224 224v48h80v-48zm64 32h-48v-16h48z"/><path d="m192 368h16v-64h272v64h16v-80h-304z"/><path d="m192 472c0 13.232 10.768 24 24 24h256c13.232 0 24-10.768 24-24v-88h-304zm16-72h272v72c0 4.416-3.584 8-8 8h-256c-4.416 0-8-3.584-8-8z"/></svg>