<?xml version="1.0" encoding="utf-8"?>
<!-- Generator: Adobe Illustrator 22.1.0, SVG Export Plug-In . SVG Version: 6.00 Build 0)  -->
<svg version="1.1" id="图层_1" xmlns="http://www.w3.org/2000/svg" xmlns:xlink="http://www.w3.org/1999/xlink" x="0px" y="0px"
	 viewBox="0 0 406.5 406.5" style="enable-background:new 0 0 406.5 406.5;fill:#FFF;" xml:space="preserve">
<path d="M372.1,309.5c-4.7,0-9.1,0.9-13.1,2.6L225.1,89c7.9-6.3,13-16,13-26.9c0-19-15.4-34.4-34.4-34.4s-34.4,15.4-34.4,34.4
	c0,10.4,4.6,19.6,11.9,25.9L47.1,311.6c-3.7-1.3-7.6-2.1-11.7-2.1c-19,0-34.4,15.4-34.4,34.4c0,19,15.4,34.4,34.4,34.4
	c18.4,0,33.4-14.5,34.3-32.6h268.2c0.9,18.2,15.9,32.6,34.3,32.6c19,0,34.4-15.4,34.4-34.4C406.5,324.9,391.1,309.5,372.1,309.5z
	 M352.9,315.4c-1.5,1-2.9,2.2-4.2,3.4l-107.5-71.5l-0.4,0.5c0.4-2.3,0.6-4.6,0.6-7c0-18.3-11.9-33.7-28.3-39.2V95.1
	c2.1-0.6,4.2-1.4,6.1-2.4L352.9,315.4z M366.9,338.7h-11.1c1.1-3.4,3.2-6.4,6-8.5L366.9,338.7z M44.5,329.4c3.4,2.1,6,5.4,7.2,9.4
	H38.9L44.5,329.4z M68.7,335.6l101.8-66.4c7.5,7.9,18.1,12.8,29.8,12.8c13.1,0,24.8-6.1,32.3-15.7l105.9,70.4
	c-0.1,0.7-0.2,1.3-0.3,2H69.3C69.2,337.7,69,336.6,68.7,335.6z M203.8,79.3c-2.9,0-5.6-0.8-8-2.1l7.1-11.9l7.5,12.6
	C208.4,78.8,206.1,79.3,203.8,79.3z M200.3,220.2c11.4,0,20.6,9.2,20.6,20.6s-9.2,20.6-20.6,20.6c-11.4,0-20.6-9.2-20.6-20.6
	S188.9,220.2,200.3,220.2z M186.6,62.1c0-9.5,7.7-17.2,17.2-17.2s17.2,7.7,17.2,17.2c0,4.6-1.9,8.8-4.8,11.9l-10.3-17.1h-5.9
	l-9.5,15.9C188,69.9,186.6,66.2,186.6,62.1z M186.9,92c1.8,1,3.7,1.9,5.7,2.6v105.7c-19.1,3.6-33.5,20.4-33.5,40.5
	c0,3.6,0.5,7,1.4,10.4L58,318c-1.4-1.3-3-2.4-4.6-3.4L186.9,92z M35.4,361.1c-9.5,0-17.2-7.7-17.2-17.2c0-9.5,7.7-17.2,17.2-17.2
	c0.9,0,1.7,0.1,2.5,0.3l-8.1,13.4l2.9,5.2h19.6C51.5,354.3,44.3,361.1,35.4,361.1z M372.1,361.1c-8.9,0-16.1-6.8-17-15.5H373
	l2.9-5.2l-7.9-13.1c1.3-0.3,2.7-0.5,4.1-0.5c9.5,0,17.2,7.7,17.2,17.2C389.3,353.4,381.6,361.1,372.1,361.1z"/>
</svg>
