<svg viewBox="0 0 347.54 116.63" xmlns="http://www.w3.org/2000/svg" xmlns:xlink="http://www.w3.org/1999/xlink"><radialGradient id="a" cx="56.45" cy="63.11" gradientUnits="userSpaceOnUse" r="74.25"><stop offset="0" stop-color="#6fba2c"/><stop offset=".42" stop-color="#00a73c"/><stop offset="1" stop-color="#00895d"/></radialGradient><linearGradient id="b" gradientUnits="userSpaceOnUse" x1="63.18" x2="22.49" y1="95.27" y2="96.69"><stop offset="0" stop-color="#00895d"/><stop offset=".6" stop-color="#009e46"/><stop offset="1" stop-color="#00a73c"/></linearGradient><linearGradient id="c" gradientUnits="userSpaceOnUse" x1="116.17" x2="64.76" y1="34.77" y2="29.37"><stop offset="0" stop-color="#64b6c8"/><stop offset="1" stop-color="#a0d8ef"/></linearGradient><linearGradient id="d" gradientUnits="userSpaceOnUse" x1="-18.8" x2="57.21" y1="25.92" y2="33.91"><stop offset="0" stop-color="#dae000"/><stop offset="1" stop-color="#faed00"/></linearGradient><linearGradient id="e" gradientUnits="userSpaceOnUse" x1="92.14" x2="15.79" y1="66.28" y2="20.41"><stop offset="0" stop-color="#89c997"/><stop offset="1" stop-color="#e2eec5"/></linearGradient><g fill-rule="evenodd"><path d="m54.87 116.56a57.87 57.87 0 0 1 -51-37.44c-3.21-8.36 2.33-9.51 9.53-8.57 18.14 2.3 36.65 17.28 43.34 33.62 1.8 4.47 5.55 12.83-1.87 12.39z" fill="#abcd03"/><path d="m104.12 94.6a58.39 58.39 0 0 1 -81.65 9.64 12.07 12.07 0 0 1 -4.53-10.94c3.45-29.23 55.87-34.7 77.11-25.3 12.09 5.43 17.78 15.72 9.07 26.6z" fill="url(#a)"/><path d="m28.88 75.44c12.31 6.2 23.12 17.07 27.86 28.73 1.8 4.39 5.4 12.53-1.58 12.39a58.52 58.52 0 0 1 -32.69-12.32 12.07 12.07 0 0 1 -4.53-10.94c.86-7.42 4.96-13.3 10.94-17.86z" fill="url(#b)"/><path d="m80.72 4.24a58.5 58.5 0 0 1 36.07 51.33c.36 6.84-2.59 7.42-8.64 4.32-18-9.14-32.9-28.15-34.77-50.76-.44-5.04 3.09-6.69 7.34-4.89z" fill="url(#c)"/><path d="m57.54 5.68c-2.6 24.04-28.08 48.24-48.68 55.32-5.32 1.77-9.07 1.48-8.86-4.64a58.59 58.59 0 0 1 53.22-56.3c4.32-.43 4.78 1.44 4.32 5.62z" fill="url(#d)"/><path d="m47.6 22.81c16.27 1.08 29.45 9.36 29.45 18.58s-13.18 15.84-29.45 14.76-29.52-9.29-29.52-18.51 13.25-15.84 29.52-14.83z" fill="url(#e)"/><path d="m51.85 23.24c-5.55 10.52-14.47 20.24-24.05 27.36-6-3.45-9.72-8.06-9.72-13 0-9.21 13.25-15.84 29.52-14.83z" fill="#abcd03"/></g><path d="m180.66 76 21-48.67h5l21.44 48.67h-7.2l-6.26-14.33h-20.74l-6.19 14.33zm15.91-20.59h15.19l-7.7-17.5z" fill="#fff"/><path d="m146.89 92.87 1.87.43a5.86 5.86 0 0 1 -2.09 3.31 6.6 6.6 0 0 1 -3.81 1.08 7.46 7.46 0 0 1 -3.75-.86 5.45 5.45 0 0 1 -2.11-2.52 8.23 8.23 0 0 1 -.79-3.53 7 7 0 0 1 .86-3.53 5.41 5.41 0 0 1 2.45-2.3 7.57 7.57 0 0 1 3.46-.79 6.48 6.48 0 0 1 3.6 1 5.15 5.15 0 0 1 2 2.81l-1.87.43a3.77 3.77 0 0 0 -1.44-2.08 4 4 0 0 0 -2.37-.65 4.67 4.67 0 0 0 -2.74.72 3.7 3.7 0 0 0 -1.51 1.94 5.76 5.76 0 0 0 -.51 2.45 7.42 7.42 0 0 0 .58 3 3.47 3.47 0 0 0 1.66 1.87 4.73 4.73 0 0 0 5.11-.21 4.24 4.24 0 0 0 1.44-2.52zm4 4.61v-13.11h1.73v4.75a4.14 4.14 0 0 1 3.09-1.36 4.6 4.6 0 0 1 2 .43 3.35 3.35 0 0 1 1.15 1.08 4.45 4.45 0 0 1 .36 2.16v6h-1.73v-6a2.38 2.38 0 0 0 -.49-1.73 2 2 0 0 0 -1.59-.5 3.88 3.88 0 0 0 -1.51.28 2.12 2.12 0 0 0 -.93 1 4 4 0 0 0 -.29 1.8v5.19zm17.78-1.16a6.78 6.78 0 0 1 -1.87 1.08 5.38 5.38 0 0 1 -1.94.29 3.8 3.8 0 0 1 -2.56-.69 2.53 2.53 0 0 1 -.94-2 2.86 2.86 0 0 1 .36-1.3 3.62 3.62 0 0 1 .86-.94 10.48 10.48 0 0 1 1.3-.5c.36-.07.86-.14 1.58-.22a16.22 16.22 0 0 0 3.1-.57v-.47c0-.65-.14-1.16-.5-1.37a3 3 0 0 0 -1.95-.51 3.39 3.39 0 0 0 -1.87.36 2.48 2.48 0 0 0 -.86 1.37l-1.73-.21a3.29 3.29 0 0 1 .79-1.52 3.24 3.24 0 0 1 1.51-1 8.08 8.08 0 0 1 2.38-.36 9 9 0 0 1 2.16.28 2.66 2.66 0 0 1 1.22.8 2.21 2.21 0 0 1 .51 1 6.83 6.83 0 0 1 .14 1.52v2.16a24 24 0 0 0 .07 2.8 3.24 3.24 0 0 0 .43 1.16h-1.8a2.94 2.94 0 0 1 -.36-1.16zm-.14-3.6a13.61 13.61 0 0 1 -2.88.58 4.64 4.64 0 0 0 -1.51.36 1.62 1.62 0 0 0 -.72.5 1.44 1.44 0 0 0 -.22.8 1.54 1.54 0 0 0 .51 1.08 2.62 2.62 0 0 0 1.58.43 3.77 3.77 0 0 0 1.8-.43 2.53 2.53 0 0 0 1.15-1.16 3 3 0 0 0 .29-1.58zm4.47-6.48v-1.87h1.8v1.87zm0 11.24v-9.48h1.8v9.51zm4.47 0v-9.48h1.58v1.3a3.85 3.85 0 0 1 3.17-1.51 4.31 4.31 0 0 1 1.73.36 2.34 2.34 0 0 1 1.15.79 2.55 2.55 0 0 1 .58 1.15 8.57 8.57 0 0 1 .07 1.58v5.84h-1.75v-5.87a3.46 3.46 0 0 0 -.22-1.44 1.53 1.53 0 0 0 -.72-.79 2.12 2.12 0 0 0 -1.06-.21 3.08 3.08 0 0 0 -1.94.57 3.27 3.27 0 0 0 -.79 2.52v5.19zm18.16-1.48.22 1.44a10.57 10.57 0 0 1 -1.3.14 2.92 2.92 0 0 1 -1.51-.29 1.37 1.37 0 0 1 -.72-.72 5.4 5.4 0 0 1 -.22-1.94v-5.43h-1.29v-1.2h1.29v-2.12h1.73v2.12h1.8v1.2h-1.8v5.61a2 2 0 0 0 .15.87c0 .14.14.21.28.28a1.06 1.06 0 0 0 .58.15 3.6 3.6 0 0 0 .79-.07zm1-3.32a4.5 4.5 0 0 1 1.66-3.88 4.88 4.88 0 0 1 3.24-1.08 4.79 4.79 0 0 1 3.47 1.33 4.4 4.4 0 0 1 1.37 3.53 6.38 6.38 0 0 1 -.58 2.88 4 4 0 0 1 -1.8 1.66 5.54 5.54 0 0 1 -2.44.57 4.85 4.85 0 0 1 -3.55-1.29 5 5 0 0 1 -1.37-3.68zm1.8 0a3.81 3.81 0 0 0 .86 2.74 3.16 3.16 0 0 0 2.24.94 3 3 0 0 0 2.16-.94 4 4 0 0 0 .86-2.81 3.72 3.72 0 0 0 -.85-2.61 2.69 2.69 0 0 0 -2.16-.87 2.84 2.84 0 0 0 -2.24.87 3.79 3.79 0 0 0 -.86 2.73zm17.15 3.32.21 1.44a10.24 10.24 0 0 1 -1.29.14 3 3 0 0 1 -1.52-.29 1.4 1.4 0 0 1 -.72-.72 5.48 5.48 0 0 1 -.21-1.94v-5.43h-1.3v-1.2h1.3v-2.12h1.73v2.12h1.8v1.2h-1.8v5.61a2.62 2.62 0 0 0 .07.87.68.68 0 0 0 .36.28.86.86 0 0 0 .57.15 3.68 3.68 0 0 0 .8-.07zm1.65 1.44v-13.07h1.77v4.75a4 4 0 0 1 3.1-1.36 4.23 4.23 0 0 1 1.94.43 3.1 3.1 0 0 1 1.23 1.08 5.67 5.67 0 0 1 .36 2.16v6h-1.73v-6a2.38 2.38 0 0 0 -.58-1.73 1.93 1.93 0 0 0 -1.58-.5 3.6 3.6 0 0 0 -1.51.28 1.82 1.82 0 0 0 -.94 1 4 4 0 0 0 -.29 1.8v5.19zm18.15-3.1 1.8.22a4.13 4.13 0 0 1 -1.59 2.3 5.16 5.16 0 0 1 -3 .79 5 5 0 0 1 -3.59-1.25 4.82 4.82 0 0 1 -1.3-3.6 4.67 4.67 0 0 1 1.37-3.68 4.75 4.75 0 0 1 3.46-1.36 4.57 4.57 0 0 1 4.68 5v.44h-7.71a3.32 3.32 0 0 0 1 2.37 2.78 2.78 0 0 0 2.09.87 2.55 2.55 0 0 0 1.66-.51 2.48 2.48 0 0 0 1.08-1.51zm-5.76-2.59h5.83a3.84 3.84 0 0 0 -.72-1.8 2.52 2.52 0 0 0 -2.16-.87 2.88 2.88 0 0 0 -2 .65 3 3 0 0 0 -.93 2zm13.1 5.69v-9.44h1.58v1.3a4 4 0 0 1 1.3-1.08 3.66 3.66 0 0 1 1.8-.43 2.89 2.89 0 0 1 1.87.5 2.36 2.36 0 0 1 1.08 1.15 3.79 3.79 0 0 1 3.17-1.65 3.48 3.48 0 0 1 2.38.79 3.07 3.07 0 0 1 .79 2.37v6.56h-1.69v-6a6.48 6.48 0 0 0 -.14-1.44 1.46 1.46 0 0 0 -.65-.65 1.65 1.65 0 0 0 -1-.21 2.47 2.47 0 0 0 -1.8.57 2.71 2.71 0 0 0 -.72 2.16v5.55h-1.8v-6.2a2.64 2.64 0 0 0 -.43-1.65c-.29-.36-.72-.43-1.37-.43a3 3 0 0 0 -1.37.28 2 2 0 0 0 -.93 1.08 6 6 0 0 0 -.29 2v5zm16.63-11.24v-1.83h1.73v1.87zm0 11.24v-9.44h1.73v9.51zm4.39 0v-6.08c0-1.66 1.08-3.75 5-3.6v1.44c-2.73-.08-3.24 1.15-3.24 2.23v6zm13.4-1.16a7 7 0 0 1 -1.88 1.08 5.9 5.9 0 0 1 -1.94.29 4.13 4.13 0 0 1 -2.66-.72 2.7 2.7 0 0 1 -.87-2 2.2 2.2 0 0 1 .36-1.3 3.66 3.66 0 0 1 .87-.94 5.51 5.51 0 0 1 1.29-.5c.29-.07.87-.14 1.51-.22a17.19 17.19 0 0 0 3.17-.57v-.4a1.71 1.71 0 0 0 -.5-1.37 3.21 3.21 0 0 0 -2-.51 3.13 3.13 0 0 0 -1.8.36 1.91 1.91 0 0 0 -.86 1.37l-1.73-.21a2.75 2.75 0 0 1 .79-1.52 3.29 3.29 0 0 1 1.51-1 7.41 7.41 0 0 1 2.38-.36 7.93 7.93 0 0 1 2.09.28 2.84 2.84 0 0 1 1.8 1.8 8.24 8.24 0 0 1 .07 1.52v2.16a18.67 18.67 0 0 0 .14 2.8 3.25 3.25 0 0 0 .44 1.16h-1.88a2.79 2.79 0 0 1 -.28-1.16zm-.15-3.6a14.65 14.65 0 0 1 -2.88.58 4.64 4.64 0 0 0 -1.51.36 1.31 1.31 0 0 0 -.72.5 1.52 1.52 0 0 0 -.22.8 1.31 1.31 0 0 0 .51 1.08 2.48 2.48 0 0 0 1.58.43 4 4 0 0 0 1.8-.43 2.85 2.85 0 0 0 1.15-1.16 4 4 0 0 0 .3-1.54v-.58zm11.16 1.32 1.73.14a3.62 3.62 0 0 1 -1.44 2.6 4.18 4.18 0 0 1 -2.81.93 4.66 4.66 0 0 1 -3.45-1.29 4.75 4.75 0 0 1 -1.3-3.68 6.07 6.07 0 0 1 .58-2.66 3.25 3.25 0 0 1 1.72-1.66 4.64 4.64 0 0 1 2.45-.64 4.69 4.69 0 0 1 2.74.79 3.63 3.63 0 0 1 1.37 2.16l-1.74.31a2.22 2.22 0 0 0 -.87-1.44 1.92 1.92 0 0 0 -1.44-.44 2.78 2.78 0 0 0 -2.16.8 3.86 3.86 0 0 0 -.86 2.8 4.38 4.38 0 0 0 .79 2.81 2.89 2.89 0 0 0 2.09.87 2.63 2.63 0 0 0 1.73-.58 2.54 2.54 0 0 0 .86-1.8zm3.24 3.46v-13.09h1.73v13.11zm11.52-3.1 1.8.22a4.11 4.11 0 0 1 -1.58 2.3 5.49 5.49 0 0 1 -2.95.79 4.9 4.9 0 0 1 -3.6-1.29 4.79 4.79 0 0 1 -1.3-3.6 4.86 4.86 0 0 1 1.3-3.68 5 5 0 0 1 3.42-1.34 4.58 4.58 0 0 1 3.39 1.36 4.5 4.5 0 0 1 1.36 3.6v.44h-7.7a3.53 3.53 0 0 0 .94 2.37 2.9 2.9 0 0 0 2.16.87 2.65 2.65 0 0 0 1.65-.51 3.19 3.19 0 0 0 1.08-1.51zm-5.76-2.59h5.76a3.14 3.14 0 0 0 -.65-1.8 2.66 2.66 0 0 0 -2.16-.87 2.73 2.73 0 0 0 -2 .65 3 3 0 0 0 -.95 2.04z" fill="#fff"/><path d="m271.38 65.15c0 6.55 4.6 10.87 12 10.87h21.31v-6.19h-19.92c-4.83 0-6.48-2.23-6.48-5.91v-24.4c0-3.75 1.65-6 6.48-6h19.94v-6.17h-21.31c-7.42 0-12 4.39-12 10.94z" fill="#fff"/><path d="m284.12 48.52h20.02v6.34h-20.02z" fill="#fff"/><path d="m261 34-19.23-.07c-6 0-8.56 5.76-2.16 9.94a16.64 16.64 0 0 0 2.24 1.36c3.74 1.95 8.71 3.68 12.88 6.2a24.72 24.72 0 0 1 5.27 4.14c6.77 7.42 4.1 21.31-7.7 21.31h-20.3v-6.76l18.94.07c7.13 0 5.76-8.35 1.58-11.67-4.39-3.52-11.66-5.76-17-8.92-10.44-6.27-7.7-22.4 6.19-22.4l19.3.08z" fill="#fff"/><path d="m344.89 34-19.23-.07c-6 0-8.49 5.76-2.16 9.94a17.57 17.57 0 0 0 2.31 1.36c3.74 1.95 8.64 3.68 12.81 6.2a21.66 21.66 0 0 1 5.26 4.17c6.77 7.42 4.1 21.31-7.63 21.31h-20.38v-6.79l18.94.07c7.13 0 5.76-8.35 1.58-11.67-4.39-3.52-11.59-5.76-16.92-8.92-10.44-6.27-7.7-22.4 6.12-22.4l19.3.08z" fill="#fff"/><path d="m155.38 26.2a25.52 25.52 0 1 1 -25.48 25.48 25.54 25.54 0 0 1 25.48-25.48zm0 6.76a18.76 18.76 0 1 0 18.8 18.72 18.74 18.74 0 0 0 -18.8-18.68z" fill="#fff" fill-rule="evenodd"/></svg>