<svg xmlns="http://www.w3.org/2000/svg" viewBox="0 0 432.04 512" style="fill:#FFF"><title>资源 1</title><g id="图层_2" data-name="图层 2"><g id="图层_1-2" data-name="图层 1"><path d="M419.11,355c-2.41-1.29-3.16-2.63-3.15-5.3q.12-93.72,0-187.43c0-2.4.5-3.75,2.81-5,12.46-6.74,16.78-21,10.19-32.76-6.75-12.08-21.39-16-33.58-8.64-2.36,1.43-3.92,1.3-6.16,0q-73-42.63-146-85.09c-2.38-1.38-3.54-2.7-3.34-5.78.49-7.18-2.33-13.25-7.4-18.37C229.2,3.29,224.86,2.13,221,0H211c-.35.3-.65.74-1.05.88C197.65,5.13,192,12.82,192.26,25.94c.05,2.93-1.6,3.67-3.42,4.73q-73,42.55-146,85.14c-2.24,1.31-3.8,1.44-6.17,0-12-7.21-26.63-3.5-33.35,8.2-6.86,11.94-2.61,26.35,10,33.23,2,1.11,2.8,2.2,2.8,4.5Q16,256,16.06,350.19a4.41,4.41,0,0,1-2.73,4.54C.7,361.62-3.61,376.09,3.24,387.92S24.63,403.36,37,396a4.4,4.4,0,0,1,5.28-.06q73.62,43,147.35,85.84c2.33,1.35,2.61,2.85,2.5,5.22-.33,7,2.23,12.95,7.05,18.05,3.3,3.5,7.82,4.76,11.83,7h9a8.43,8.43,0,0,1,1.64-.83c11.18-2.87,18.67-12.28,18.19-23.71-.15-3.45,1-4.94,3.77-6.52q72.67-42.13,145.23-84.51c2.63-1.54,4.38-1.49,7,.08a23.7,23.7,0,0,0,32.9-8.62C435.52,376.08,431.35,361.54,419.11,355ZM407.93,128.06a8.23,8.23,0,0,1,8,7.85,8.34,8.34,0,0,1-7.87,8,7.94,7.94,0,0,1-.16-15.88Zm-191.85-112a8.2,8.2,0,0,1,7.88,8,7.94,7.94,0,0,1-15.88-.12A8.21,8.21,0,0,1,216.08,16.06ZM50.87,129.57q73.22-42.7,146.41-85.42c2.27-1.33,3.85-1.38,6.17.06,8.41,5.21,17.05,5.09,25.4-.14,2.2-1.38,3.66-1.22,5.73,0q73.17,42.76,146.47,85.31c3.2,1.85,3.44,4,2.89,7,1.37,3.64-.95,5.11-3.78,6.75q-72.45,42-144.78,84.24c-2.48,1.45-4.21,2-7,.29-8.22-5.06-16.79-5-25,.19-2.37,1.49-4,1.24-6.17-.05Q124,185,50.8,142.37C46.44,139.83,46.47,132.14,50.87,129.57ZM224,334.5a2.8,2.8,0,0,1,1.51-2.81c15.32-8.88,30.6-17.82,46.48-27.1,0,20.35,0,39.94,0,59.53,0,1.91-1.09,2.59-2.41,3.35L224,394C224,373.7,224.05,354.1,224,334.5ZM24.25,128.06a7.94,7.94,0,1,1-.47,15.88,7.94,7.94,0,0,1,.47-15.88ZM24.2,383.94a7.94,7.94,0,1,1-.34-15.87,7.94,7.94,0,0,1,.34,15.87ZM208,462c0,4.52-6.47,8.26-10.36,6q-73.49-42.8-147-85.57c-2.15-1.24-2.94-2.45-2.84-5,.39-10.06-3.94-17.74-12.82-22.48-2.48-1.32-3-2.8-3-5.37q.09-93.74.06-187.47c0-4.55,6.4-8.26,10.35-6q73.48,42.76,147,85.49c2.78,1.61,3.19,3.44,2.59,6,.4,9.43,4.27,16.81,12.6,21.32,2.51,1.36,3.5,2.7,3.49,5.61Q208,368.25,208,462Zm8.14-221.92a7.94,7.94,0,1,1-8.08,7.78A8.23,8.23,0,0,1,216.15,240.06Zm0,255.88a7.94,7.94,0,1,1,7.8-8.08A8.23,8.23,0,0,1,216.16,495.94Zm10.32-226.52c9.32-4.83,13.78-12.65,13.39-23.14-.07-1.77,0-3.13,1.78-4.16,9.92-5.66,19.78-11.42,30.37-17.56v24.86c0,11,0,22,0,33,0,1.76.38,3.48-1.76,4.72C255,295.89,239.87,304.79,224,314.06c0-14.17,0-27.32-.05-40.48A4,4,0,0,1,226.48,269.42Zm42.83,178.23c-11.66,6.68-23.25,13.5-34.88,20.23-3.94,2.28-10.39-1.37-10.4-5.88,0-15.47,0-30.94,0-46.42,0-1.66,0-3,1.84-4.12,15.21-8.73,30.35-17.6,46.17-26.82,0,20.08,0,39.21.06,58.34A4.69,4.69,0,0,1,269.31,447.65Zm64.86-37.79c-15,8.63-29.89,17.34-44.84,26-.22.13-.61,0-1.31-.07,0-16.92.5-33.88-.23-50.78-.33-7.6,2.15-11.49,8.68-14.93,13.17-6.94,25.86-14.82,39.52-22.77,0,20.26,0,39.58,0,58.89C336,407.84,335.73,409,334.17,409.86Zm.22-80.11c-15.2,8.81-30.39,17.63-46.37,26.91,0-20.28,0-39.6,0-58.93a3.58,3.58,0,0,1,1.88-3.63c15-8.63,29.9-17.35,44.85-26,.22-.13.61,0,1.28.1q0,29.38,0,58.8A2.87,2.87,0,0,1,334.39,329.75ZM336,245.06c0,1.73.49,3.51-1.65,4.74C319.12,258.55,304,267.4,288,276.66c0-20.2,0-39.35,0-58.51,0-1.73.1-3.07,1.91-4.11,15.11-8.68,30.15-17.47,45.13-26.18,1.6.89.94,2.2.94,3.22Q336.05,218.07,336,245.06Zm61.63,109.43c-9.5,4.95-14,12.9-13.42,23.59A3.71,3.71,0,0,1,382,382c-9.77,5.59-19.49,11.29-30,17.39v-11.8q0-23,0-45.95c0-2-.17-3.71,2.13-5C369.24,328,384.24,319.17,400,310c0,14.19-.05,27.5.05,40.82C400.06,352.79,399.31,353.62,397.63,354.49Zm0-61.58q-22.39,13-44.74,26c-1.49-.84-.81-2.15-.82-3.15-.05-18,0-36-.05-54,0-2.22,0-4,2.42-5.38,15-8.55,29.87-17.3,45.6-26.47,0,20.25,0,39.7.05,59.16C400.08,291.15,399.12,292,397.61,292.91Zm0-80c-14.92,8.66-29.83,17.33-45.56,26.49,0-20.2,0-39.62,0-59,0-2,.93-2.93,2.47-3.82,11.94-6.89,23.82-13.86,35.77-20.73,3-1.75,9.74,2,9.76,5.41.07,16,0,32,.1,47.92C400.09,211.18,399.07,212,397.58,212.9Zm10.2,171a7.94,7.94,0,1,1,8.18-7.7A8.22,8.22,0,0,1,407.78,383.94Z"/><path d="M216.43,88C224,88,224,88,224,80.19,224,72,224,72,215.85,72,208,72,208,72,208,79.57,208,88,208,88,216.43,88Z"/><path d="M216.28,120c7.74,0,7.74,0,7.74-7.76,0-8.24,0-8.24-8.26-8.24-7.74,0-7.74,0-7.74,7.76C208,120,208,120,216.28,120Z"/><path d="M95.81,144c8.21,0,8.21,0,8.21-8.29,0-7.71,0-7.71-7.8-7.71-8.2,0-8.2,0-8.2,8.29C88,144,88,144,95.81,144Z"/><path d="M127.72,144c8.3,0,8.3,0,8.3-8.21,0-7.79,0-7.79-7.71-7.79-8.29,0-8.29,0-8.29,8.21C120,144,120,144,127.72,144Z"/><path d="M160.23,144c7.77,0,7.77,0,7.79-7.61,0-8.41,0-8.41-8-8.41s-8.05,0-8.05,7.88C152,144,152,144,160.23,144Z"/><path d="M191.81,144c8.21,0,8.21,0,8.21-8.29,0-7.71,0-7.71-7.8-7.71-8.2,0-8.2,0-8.2,8.29C184,144,184,144,191.81,144Z"/><path d="M239.93,144h.5c7.61,0,7.61,0,7.61-7.81,0-8.21,0-8.21-8.17-8.21-7.85,0-7.85,0-7.85,8.05S232,144,239.93,144Z"/><path d="M272.19,144c7.83,0,7.83,0,7.83-7.67,0-8.33,0-8.33-8.18-8.33-7.82,0-7.82,0-7.82,7.66C264,144,264,144,272.19,144Z"/><path d="M304.16,144c7.86,0,7.86,0,7.86-7.64,0-8.36,0-8.36-8.14-8.36-7.86,0-7.86,0-7.86,7.64C296,144,296,144,304.16,144Z"/><path d="M336.63,144c7.38,0,7.38,0,7.41-7.54,0-8.53,0-8.53-8.39-8.49h-.5c-7.1,0-7.1,0-7.14,7.28C328,144.05,328,144.05,336.63,144Z"/><path d="M216.09,184c-8.07,0-8.07,0-8.07,7.91,0,8.09,0,8.09,7.92,8.09,8.08,0,8.08,0,8.08-7.92C224,184,224,184,216.09,184Z"/><path d="M216,152c-8,0-8,0-8,7.89v.5c0,7.63,0,7.63,7.75,7.63,8.27,0,8.27,0,8.27-8.14C224,152,224,152,216,152Z"/><path d="M188.58,265.33q-68.45-38.46-136.89-76.92c-1-.59-2-1.94-3.67-1q0,83.14-.08,166.38c0,2.74,1.34,3.69,3.3,4.79q25,14,50,28.09l90.43,50.86a15.92,15.92,0,0,0,.35-2q0-82.47.12-164.94C192.13,267.53,190.67,266.5,188.58,265.33ZM176,410.31c-22.37-12.6-44-24.81-65.72-37-14.33-8.07-28.63-16.17-43-24.12-2.28-1.26-3.33-2.5-3.33-5.29q.16-64.69.08-129.36c1.42-.63,2.26.45,3.19,1Q119.77,245,172.32,274.58c2.27,1.27,3.81,2.34,3.8,5.52C176,323.23,176,366.36,176,410.31Z"/></g></g></svg>